<?xml version="1.0" encoding="UTF-8" standalone="no"?>
<!-- Created with Inkscape (http://www.inkscape.org/) -->

<svg
   xmlns:dc="http://purl.org/dc/elements/1.1/"
   xmlns:cc="http://creativecommons.org/ns#"
   xmlns:rdf="http://www.w3.org/1999/02/22-rdf-syntax-ns#"
   xmlns:svg="http://www.w3.org/2000/svg"
   xmlns="http://www.w3.org/2000/svg"
   xmlns:xlink="http://www.w3.org/1999/xlink"
   xmlns:sodipodi="http://sodipodi.sourceforge.net/DTD/sodipodi-0.dtd"
   xmlns:inkscape="http://www.inkscape.org/namespaces/inkscape"
   id="svg2"
   version="1.1"
   inkscape:version="0.91 r13725"
   xml:space="preserve"
   width="800"
   height="217.2"
   viewBox="0 0 800 217.2"
   sodipodi:docname="Logo Bas Rhin 2018.pdf.2018_09_30_16_20_56.0.svg"><metadata
     id="metadata8"><rdf:RDF><cc:Work
         rdf:about=""><dc:format>image/svg+xml</dc:format><dc:type
           rdf:resource="http://purl.org/dc/dcmitype/StillImage" /><dc:title></dc:title></cc:Work></rdf:RDF></metadata><defs
     id="defs6"><linearGradient
       id="linearGradient4234"
       spreadMethod="pad"
       gradientTransform="matrix(-6.7586,0.74612,-0.74612,-6.7586,439.386,43.478)"
       gradientUnits="userSpaceOnUse"
       y2="0"
       x2="1"
       y1="0"
       x1="0"><stop
         id="stop4236"
         offset="0"
         style="stop-opacity:1;stop-color:#e31e2e" /><stop
         id="stop4238"
         offset="1"
         style="stop-opacity:1;stop-color:#c61d38" /></linearGradient><linearGradient
       inkscape:collect="always"
       xlink:href="#linearGradient4234"
       id="linearGradient4232"
       x1="427.0174"
       y1="47.26474"
       x2="437.1243"
       y2="43.251698"
       gradientUnits="userSpaceOnUse" /></defs><sodipodi:namedview
     pagecolor="#ffffff"
     bordercolor="#666666"
     borderopacity="1"
     objecttolerance="10"
     gridtolerance="10"
     guidetolerance="10"
     inkscape:pageopacity="0"
     inkscape:pageshadow="2"
     inkscape:window-width="1440"
     inkscape:window-height="790"
     id="namedview4"
     showgrid="false"
     inkscape:zoom="0.67280633"
     inkscape:cx="564.22384"
     inkscape:cy="28.531181"
     inkscape:window-x="0"
     inkscape:window-y="1"
     inkscape:window-maximized="1"
     inkscape:current-layer="g10" /><g
     id="g10"
     inkscape:groupmode="layer"
     inkscape:label="Logo Bas Rhin 2018"
     transform="matrix(1.25,0,0,-1.25,0,217.20003)"><g
       id="g4309"
       transform="matrix(3.5380891,0,0,3.5380891,-1191.5785,-76.643832)"><path
         inkscape:connector-curvature="0"
         id="path202"
         style="fill:#ffffff;fill-opacity:1;fill-rule:nonzero;stroke:none"
         d="m 336.899,64.945 174.292,5.726 c 3.523,0 6.381,-3.378 6.381,-6.002 l -3.189,-38.154 c 0,-2.623 -2.858,-4.75 -6.382,-4.75 l -160.995,1.883 c -3.526,0 -6.383,2.129 -6.383,4.752" /><path
         d="m 336.899,64.945 174.292,5.726 c 3.523,0 6.381,-3.378 6.381,-6.002 l -3.189,-38.154 c 0,-2.623 -2.858,-4.75 -6.382,-4.75 l -160.995,1.883 c -3.526,0 -6.383,2.129 -6.383,4.752 l -3.724,36.545 z"
         style="fill:none;stroke:#838382;stroke-width:0.205;stroke-linecap:butt;stroke-linejoin:miter;stroke-miterlimit:10;stroke-dasharray:none;stroke-opacity:1"
         id="path206"
         inkscape:connector-curvature="0" /><g
         id="g4273"><path
           d="m 451.47,40.293 c 0,0.521 -0.287,0.937 -1.15,0.937 l -1.264,0 0,-1.993 1.071,0 c 1.017,0 1.343,0.379 1.343,0.938 l 0,0.118 z m -0.053,3.739 c 0,0.586 -0.26,0.833 -1.187,0.833 -0.249,0 -1.083,-0.012 -1.174,-0.012 l 0,-1.85 1.264,0 c 0.863,0 1.097,0.365 1.097,0.82 l 0,0.209 z m -1.643,-6.944 c -0.665,0 -1.892,0.051 -2.504,0.157 -0.612,0.104 -0.82,0.285 -0.82,0.989 l 0,7.648 c 0,0.704 0.208,0.886 0.808,0.977 0.547,0.092 1.825,0.155 2.476,0.155 2.57,0 4.238,-0.598 4.238,-2.788 l 0,-0.221 c 0,-0.821 -0.418,-1.523 -1.004,-1.849 0.586,-0.34 1.056,-1.057 1.056,-1.889 l 0,-0.17 c 0,-2.514 -2.164,-3.009 -4.25,-3.009"
           style="fill:#08090a;fill-opacity:1;fill-rule:nonzero;stroke:none"
           id="path208"
           inkscape:connector-curvature="0" /><path
           d="m 459.795,41.363 -0.963,0 c -1.182,0 -1.486,-0.405 -1.486,-1.232 l 0,-0.152 c 0,-0.71 0.354,-0.846 1.064,-0.846 0.505,0 0.98,0.169 1.385,0.373 l 0,1.857 z m 2.347,-4.29 -1.893,0 c -0.184,0 -0.337,0.153 -0.337,0.339 l 0,0.422 c -0.659,-0.473 -1.335,-0.761 -2.348,-0.761 -1.468,0 -2.887,0.71 -2.887,2.906 l 0,0.152 c 0,1.976 1.265,2.854 4.155,2.854 l 0.912,0 0,0.607 c 0,0.965 -0.473,1.166 -1.269,1.166 -1.08,0 -2.278,-0.067 -2.802,-0.117 l -0.083,0 c -0.17,0 -0.306,0.084 -0.306,0.303 l 0,1.369 c 0,0.185 0.118,0.321 0.322,0.371 0.625,0.152 1.806,0.354 2.921,0.354 2.432,0 3.952,-0.978 3.952,-3.446 l 0,-6.18 c 0,-0.186 -0.15,-0.339 -0.337,-0.339"
           style="fill:#08090a;fill-opacity:1;fill-rule:nonzero;stroke:none"
           id="path210"
           inkscape:connector-curvature="0" /><path
           d="m 466.329,37.088 c -1.068,0 -1.941,0.142 -2.632,0.338 -0.129,0.039 -0.274,0.117 -0.274,0.26 l 0,1.604 c 0,0.183 0.079,0.272 0.274,0.26 0.562,-0.052 1.956,-0.196 2.645,-0.196 0.638,0 0.821,0.248 0.821,0.664 0,0.261 -0.13,0.404 -0.613,0.691 l -1.875,1.106 c -1.223,0.717 -1.55,1.603 -1.55,2.607 0,1.42 0.78,2.593 3.413,2.593 1.028,0 2.422,-0.169 2.956,-0.327 0.119,-0.037 0.237,-0.103 0.237,-0.247 l 0,-1.628 c 0,-0.143 -0.053,-0.261 -0.261,-0.248 -0.534,0.039 -2.021,0.169 -2.959,0.169 -0.481,0 -0.651,-0.169 -0.651,-0.442 0,-0.235 0.118,-0.365 0.678,-0.664 l 1.759,-0.939 c 1.263,-0.677 1.72,-1.538 1.72,-2.618 0,-1.459 -1.004,-2.983 -3.688,-2.983"
           style="fill:#08090a;fill-opacity:1;fill-rule:nonzero;stroke:none"
           id="path212"
           inkscape:connector-curvature="0" /><path
           d="m 473.023,40.562 -2.268,0 c -0.124,0 -0.224,0.118 -0.224,0.281 l 0,1.506 c 0,0.162 0.1,0.281 0.224,0.281 l 2.268,0 c 0.12,0 0.221,-0.119 0.221,-0.281 l 0,-1.506 c 0,-0.163 -0.101,-0.281 -0.221,-0.281"
           style="fill:#e41d30;fill-opacity:1;fill-rule:nonzero;stroke:none"
           id="path214"
           inkscape:connector-curvature="0" /><path
           d="m 478.74,43.819 c 0,0.621 -0.435,0.937 -1.32,0.937 -0.094,0 -0.634,0 -1.018,-0.025 l 0,-2.101 0.964,-0.013 c 1.018,0 1.374,0.357 1.374,0.977 l 0,0.225 z m 2.786,-6.749 -2.43,0 c -0.145,0 -0.198,0.134 -0.265,0.265 l -1.677,3.222 c -0.197,0 -0.342,0 -0.752,0.014 l 0,-3.236 c 0,-0.144 -0.118,-0.265 -0.264,-0.265 l -2.139,0 c -0.145,0 -0.277,0.121 -0.277,0.265 l 0,8.636 c 0,0.634 0.211,0.779 0.765,0.873 0.529,0.078 1.849,0.171 2.788,0.171 2.454,0 4.132,-0.78 4.132,-3.196 l 0,-0.212 c 0,-1.412 -0.778,-2.245 -1.611,-2.6 l 1.914,-3.593 0.04,-0.145 c 0,-0.119 -0.093,-0.199 -0.224,-0.199"
           style="fill:#08090a;fill-opacity:1;fill-rule:nonzero;stroke:none"
           id="path216"
           inkscape:connector-curvature="0" /><path
           d="m 490.369,37.073 -2.183,0 c -0.149,0 -0.27,0.122 -0.27,0.267 l 0,3.647 -2.801,0 0,-3.647 c 0,-0.145 -0.119,-0.267 -0.267,-0.267 l -2.184,0 c -0.149,0 -0.284,0.122 -0.284,0.267 l 0,9.438 c 0,0.148 0.135,0.254 0.284,0.254 l 2.184,0 c 0.148,0 0.267,-0.106 0.267,-0.254 l 0,-3.432 2.801,0 0,3.432 c 0,0.148 0.121,0.254 0.27,0.254 l 2.183,0 c 0.148,0 0.267,-0.106 0.267,-0.254 l 0,-9.438 c 0,-0.145 -0.119,-0.267 -0.267,-0.267"
           style="fill:#08090a;fill-opacity:1;fill-rule:nonzero;stroke:none"
           id="path218"
           inkscape:connector-curvature="0" /><path
           d="m 494.035,37.073 -2.189,0 c -0.146,0 -0.267,0.122 -0.267,0.267 l 0,9.438 c 0,0.148 0.121,0.254 0.267,0.254 l 2.189,0 c 0.146,0 0.267,-0.106 0.267,-0.254 l 0,-9.438 c 0,-0.145 -0.121,-0.267 -0.267,-0.267"
           style="fill:#08090a;fill-opacity:1;fill-rule:nonzero;stroke:none"
           id="path220"
           inkscape:connector-curvature="0" /><path
           d="m 503.295,37.08 -2.077,0 c -0.189,0 -0.345,0.17 -0.345,0.36 l 0,5.719 c 0,1.204 -0.223,1.597 -1.271,1.597 -0.497,0 -1.029,-0.24 -1.614,-0.548 l 0,-6.768 c 0,-0.19 -0.154,-0.36 -0.343,-0.36 l -2.079,0 c -0.189,0 -0.36,0.17 -0.36,0.36 l 0,9.248 c 0,0.189 0.155,0.344 0.344,0.344 l 1.922,0 c 0.19,0 0.344,-0.155 0.344,-0.344 l 0,-0.522 c 0.945,0.669 1.701,0.893 2.801,0.893 2.489,0 3.038,-1.734 3.038,-3.9 l 0,-5.719 c 0,-0.19 -0.169,-0.36 -0.36,-0.36"
           style="fill:#08090a;fill-opacity:1;fill-rule:nonzero;stroke:none"
           id="path222"
           inkscape:connector-curvature="0" /></g><g
         id="g4305"><path
           inkscape:connector-curvature="0"
           id="path4974"
           d="m 434.215,52.45 c -0.656,-0.672 -1.437,-1.168 -2.597,-1.361 -0.873,-0.117 -1.411,-0.185 -2.394,0.32 -0.891,0.546 -0.891,0.546 -1.336,0.815 -0.445,0.277 -0.933,-1.118 -1.26,-1.799 -0.236,-0.697 0.159,-0.991 1.294,-2.15 1.151,-1.16 -0.353,-0.857 0.957,-1.479 0.647,-0.303 0.849,-0.101 1.017,0.101 0.176,0.21 0.311,0.42 0.865,0.059 1.084,-0.706 -0.109,-1.126 -0.092,-1.824 0.025,-0.697 -0.815,-1.688 -1.445,-2.663 -0.613,-0.949 -0.79,-3.142 0.294,-4.226 0.949,-0.966 2.932,-2.689 5.906,-3.983 0,0 0.236,-0.1 0.185,0.101 -0.059,0.21 -0.201,0.714 -0.21,0.866 -0.319,1.495 -0.512,3.041 -0.546,4.629 -0.084,4.991 1.386,9.637 3.806,13.283 0,0 0.151,0.227 -0.042,0.395 -0.193,0.177 -0.63,0.555 -1.311,0.714 -0.142,0.034 -0.285,0.051 -0.42,0.051 -1.218,0 -2.092,-1.252 -2.671,-1.849"
           style="fill:url(#linearGradient4232);fill-opacity:1" /><path
           d="m 444.614,57.475 c 0.043,0.042 0.055,0.078 -0.086,0.035 l -0.732,-0.298 c 0,0 -0.288,-0.119 -0.526,-0.319 -4.284,-3.612 -7.099,-8.802 -6.875,-15.208 0.107,-3.051 1.075,-6.083 2.281,-8.415 0,0 0.122,-0.235 0.377,-0.307 1.354,-0.384 3.176,-0.733 4.958,-0.884 0,0 0.265,-0.022 0.077,0.163 -2.679,2.636 -5.017,7.235 -5.177,11.806 -0.175,5.077 2.26,10.129 5.703,13.427"
           style="fill:#36beef;fill-opacity:1;fill-rule:nonzero;stroke:none"
           id="path262"
           inkscape:connector-curvature="0" /></g><g
         id="g4283"><path
           d="m 448.857,48.713 c -0.205,-0.039 -0.398,-0.064 -0.815,-0.064 -0.604,0 -1.298,0.324 -1.298,1.518 l 0,0.683 c 0,1.203 0.694,1.518 1.298,1.518 0.309,0 0.61,-0.044 0.825,-0.078 l 0.079,-0.064 0,-0.251 -0.058,-0.053 -0.015,0 c -0.178,0.014 -0.541,0.043 -0.828,0.043 -0.48,0 -0.853,-0.28 -0.853,-1.115 l 0,-0.683 c 0,-0.825 0.373,-1.116 0.853,-1.116 0.282,0 0.635,0.025 0.812,0.039 l 0.021,0 0.078,-0.078 0,-0.201 -0.099,-0.098"
           style="fill:#08090a;fill-opacity:1;fill-rule:nonzero;stroke:none"
           id="path264"
           inkscape:connector-curvature="0" /><path
           d="m 450.62,48.649 c -0.771,0 -1.332,0.452 -1.332,1.542 l 0,0.635 c 0,1.09 0.561,1.542 1.332,1.542 0.774,0 1.33,-0.452 1.33,-1.542 l 0,-0.635 c 0,-1.09 -0.556,-1.542 -1.33,-1.542 m 0.879,2.177 c 0,0.825 -0.337,1.139 -0.879,1.139 -0.535,0 -0.88,-0.314 -0.88,-1.139 l 0,-0.635 c 0,-0.825 0.339,-1.14 0.88,-1.14 0.538,0 0.879,0.315 0.879,1.14"
           style="fill:#08090a;fill-opacity:1;fill-rule:nonzero;stroke:none"
           id="path266"
           inkscape:connector-curvature="0" /><path
           d="m 455.061,48.683 -0.304,0 -0.159,0.079 -1.517,2.884 -0.015,0.016 -0.006,-0.016 0,-2.869 -0.087,-0.094 -0.255,0 -0.09,0.059 0,3.455 0.145,0.137 0.269,0 c 0.138,0 0.162,-0.024 0.201,-0.098 l 1.509,-2.87 0.009,-0.015 0.004,0.015 0,2.875 0.09,0.093 0.261,0 0.088,-0.093 0,-3.414 -0.143,-0.144"
           style="fill:#08090a;fill-opacity:1;fill-rule:nonzero;stroke:none"
           id="path268"
           inkscape:connector-curvature="0" /><path
           d="m 456.831,48.649 c -0.344,0 -0.599,0.034 -0.815,0.069 l -0.094,0.088 0,0.196 0.084,0.079 0.015,0 c 0.225,-0.019 0.584,-0.03 0.81,-0.03 0.59,0 0.747,0.236 0.747,0.58 0,0.246 -0.142,0.384 -0.589,0.659 l -0.477,0.289 c -0.452,0.276 -0.678,0.526 -0.678,0.919 0,0.595 0.426,0.87 1.174,0.87 0.289,0 0.668,-0.03 0.855,-0.059 l 0.083,-0.084 0,-0.211 -0.083,-0.078 -0.011,0 c -0.216,0.014 -0.558,0.029 -0.844,0.029 -0.506,0 -0.723,-0.108 -0.723,-0.467 0,-0.23 0.164,-0.368 0.537,-0.594 l 0.451,-0.27 c 0.569,-0.339 0.772,-0.61 0.772,-1.003 0,-0.471 -0.245,-0.982 -1.214,-0.982"
           style="fill:#08090a;fill-opacity:1;fill-rule:nonzero;stroke:none"
           id="path270"
           inkscape:connector-curvature="0" /><path
           d="m 460.68,48.674 c -0.187,-0.021 -0.668,-0.025 -0.957,-0.025 -0.689,0 -1.048,0.26 -1.048,0.914 l 0,1.891 c 0,0.654 0.359,0.914 1.048,0.914 0.289,0 0.749,-0.01 0.957,-0.029 l 0.049,-0.069 0,-0.245 -0.055,-0.061 -0.948,0 c -0.521,0 -0.604,-0.136 -0.604,-0.51 l 0,-0.683 1.509,0 0.098,-0.098 0,-0.187 -0.098,-0.098 -1.509,0 0,-0.825 c 0,-0.374 0.083,-0.512 0.604,-0.512 l 0.948,0 0.055,-0.059 0,-0.251 -0.049,-0.067"
           style="fill:#08090a;fill-opacity:1;fill-rule:nonzero;stroke:none"
           id="path272"
           inkscape:connector-curvature="0" /><path
           d="m 461.791,48.683 -0.271,0 -0.088,0.099 0,3.459 0.088,0.093 0.271,0 0.088,-0.093 0,-3.459 -0.088,-0.099"
           style="fill:#08090a;fill-opacity:1;fill-rule:nonzero;stroke:none"
           id="path274"
           inkscape:connector-curvature="0" /><path
           d="m 464.701,48.693 c -0.128,-0.019 -0.496,-0.044 -0.957,-0.044 -0.528,0 -1.048,0.103 -1.048,0.913 l 0,2.674 0.099,0.098 0.251,0 0.097,-0.098 0,-2.674 c 0,-0.373 0.084,-0.511 0.604,-0.511 l 0.948,0 0.055,-0.059 0,-0.23 -0.049,-0.069"
           style="fill:#08090a;fill-opacity:1;fill-rule:nonzero;stroke:none"
           id="path276"
           inkscape:connector-curvature="0" /><path
           d="m 467.435,48.649 c -0.374,0 -0.753,0.025 -0.894,0.05 l -0.105,0.122 0,3.375 0.105,0.123 c 0.141,0.025 0.52,0.049 0.894,0.049 0.909,0 1.488,-0.466 1.488,-1.528 l 0,-0.663 c 0,-1.052 -0.579,-1.528 -1.488,-1.528 m 1.041,2.191 c 0,0.89 -0.452,1.144 -1.041,1.144 -0.231,0 -0.385,-0.004 -0.547,-0.014 l 0,-2.928 c 0.158,-0.01 0.316,-0.01 0.547,-0.01 0.589,0 1.041,0.26 1.041,1.145"
           style="fill:#08090a;fill-opacity:1;fill-rule:nonzero;stroke:none"
           id="path278"
           inkscape:connector-curvature="0" /><path
           d="m 471.593,48.674 c -0.187,-0.021 -0.669,-0.025 -0.959,-0.025 -0.687,0 -1.047,0.26 -1.047,0.914 l 0,1.891 c 0,0.654 0.36,0.914 1.047,0.914 0.29,0 0.752,-0.01 0.959,-0.029 l 0.049,-0.069 0,-0.245 -0.054,-0.061 -0.949,0 c -0.52,0 -0.604,-0.135 -0.604,-0.51 l 0,-0.683 1.509,0 0.098,-0.098 0,-0.187 -0.098,-0.098 -1.509,0 0,-0.825 c 0,-0.374 0.084,-0.512 0.604,-0.512 l 0.949,0 0.054,-0.058 0,-0.252 -0.049,-0.067 m -0.266,4.604 -0.555,-0.619 -0.114,-0.074 -0.264,0 -0.045,0.033 0.021,0.05 0.481,0.61 0.117,0.073 0.325,0 0.054,-0.035 -0.02,-0.038"
           style="fill:#08090a;fill-opacity:1;fill-rule:nonzero;stroke:none"
           id="path280"
           inkscape:connector-curvature="0" /><path
           d="m 473.23,50.137 c -0.158,0 -0.364,0.016 -0.492,0.025 l 0,-1.38 -0.087,-0.099 -0.267,0 -0.088,0.099 0,3.424 0.118,0.124 c 0.211,0.023 0.529,0.038 0.816,0.038 0.796,0 1.375,-0.275 1.375,-1.066 l 0,-0.064 c 0,-0.82 -0.579,-1.101 -1.375,-1.101 m 0.93,1.165 c 0,0.496 -0.296,0.688 -0.93,0.688 -0.152,0 -0.374,-0.012 -0.492,-0.02 l 0,-1.44 c 0.115,-0.005 0.364,-0.018 0.492,-0.018 0.672,0 0.93,0.215 0.93,0.726"
           style="fill:#08090a;fill-opacity:1;fill-rule:nonzero;stroke:none"
           id="path282"
           inkscape:connector-curvature="0" /><path
           d="m 477.407,48.683 -0.29,0 -0.083,0.074 -0.319,1.13 -1.274,0 -0.314,-1.13 -0.087,-0.074 -0.292,0 -0.082,0.079 0.004,0.035 0.91,3.198 c 0.082,0.3 0.314,0.373 0.501,0.373 0.181,0 0.412,-0.069 0.496,-0.368 l 0.91,-3.203 0.004,-0.035 -0.084,-0.079 m -1.233,3.209 -0.093,0.088 -0.1,-0.088 -0.446,-1.616 1.087,0"
           style="fill:#08090a;fill-opacity:1;fill-rule:nonzero;stroke:none"
           id="path284"
           inkscape:connector-curvature="0" /><path
           d="m 480.45,48.683 -0.313,0 -0.128,0.064 -0.88,1.465 -0.128,0 c -0.164,0 -0.281,0.004 -0.541,0.014 l 0,-1.444 -0.087,-0.099 -0.267,0 -0.088,0.099 0,3.438 0.118,0.11 c 0.211,0.024 0.579,0.038 0.865,0.038 0.776,0 1.374,-0.26 1.374,-1.055 l 0,-0.035 c 0,-0.551 -0.323,-0.875 -0.77,-0.993 l 0.893,-1.493 0.016,-0.045 -0.064,-0.064 m -0.516,2.63 c 0,0.491 -0.32,0.652 -0.933,0.652 -0.153,0 -0.423,0 -0.541,-0.014 l 0,-1.347 c 0.217,-0.005 0.427,-0.009 0.541,-0.009 0.604,0 0.933,0.152 0.933,0.683"
           style="fill:#08090a;fill-opacity:1;fill-rule:nonzero;stroke:none"
           id="path286"
           inkscape:connector-curvature="0" /><path
           d="m 483.13,51.951 -0.96,0 0,-3.169 -0.087,-0.099 -0.271,0 -0.087,0.099 0,3.169 -0.96,0 -0.097,0.078 0,0.216 0.097,0.089 2.365,0 0.094,-0.089 0,-0.216 -0.094,-0.078"
           style="fill:#08090a;fill-opacity:1;fill-rule:nonzero;stroke:none"
           id="path288"
           inkscape:connector-curvature="0" /><path
           d="m 485.651,48.674 c -0.186,-0.021 -0.668,-0.025 -0.958,-0.025 -0.688,0 -1.047,0.26 -1.047,0.914 l 0,1.891 c 0,0.654 0.359,0.914 1.047,0.914 0.29,0 0.751,-0.01 0.958,-0.029 l 0.05,-0.069 0,-0.245 -0.056,-0.061 -0.948,0 c -0.52,0 -0.604,-0.136 -0.604,-0.51 l 0,-0.683 1.508,0 0.1,-0.098 0,-0.187 -0.1,-0.098 -1.508,0 0,-0.825 c 0,-0.374 0.084,-0.512 0.604,-0.512 l 0.948,0 0.056,-0.059 0,-0.251 -0.05,-0.067"
           style="fill:#08090a;fill-opacity:1;fill-rule:nonzero;stroke:none"
           id="path290"
           inkscape:connector-curvature="0" /><path
           d="m 489.234,48.683 -0.24,0 -0.098,0.099 0,2.914 -0.007,0.014 -0.008,-0.009 -0.701,-1.454 c -0.052,-0.1 -0.1,-0.143 -0.222,-0.143 l -0.226,0 c -0.124,0 -0.173,0.043 -0.221,0.143 l -0.703,1.454 -0.01,0.009 -0.004,-0.014 0,-2.914 -0.1,-0.099 -0.241,0 -0.099,0.099 0,3.41 0.144,0.142 0.319,0 0.157,-0.083 0.812,-1.686 0.058,-0.054 0.06,0.054 0.809,1.686 0.157,0.083 0.321,0 0.143,-0.142 0,-3.41 -0.1,-0.099"
           style="fill:#08090a;fill-opacity:1;fill-rule:nonzero;stroke:none"
           id="path292"
           inkscape:connector-curvature="0" /><path
           d="m 492.101,48.674 c -0.187,-0.021 -0.668,-0.025 -0.958,-0.025 -0.689,0 -1.048,0.26 -1.048,0.914 l 0,1.891 c 0,0.654 0.359,0.914 1.048,0.914 0.29,0 0.75,-0.01 0.958,-0.029 l 0.049,-0.069 0,-0.245 -0.056,-0.061 -0.947,0 c -0.522,0 -0.605,-0.136 -0.605,-0.51 l 0,-0.683 1.509,0 0.099,-0.098 0,-0.187 -0.099,-0.098 -1.509,0 0,-0.825 c 0,-0.374 0.083,-0.512 0.605,-0.512 l 0.947,0 0.056,-0.059 0,-0.251 -0.049,-0.067"
           style="fill:#08090a;fill-opacity:1;fill-rule:nonzero;stroke:none"
           id="path294"
           inkscape:connector-curvature="0" /><path
           d="m 495.237,48.683 -0.306,0 -0.156,0.079 -1.52,2.884 -0.015,0.016 -0.004,-0.016 0,-2.869 -0.089,-0.094 -0.254,0 -0.089,0.059 0,3.455 0.143,0.137 0.269,0 c 0.138,0 0.163,-0.024 0.203,-0.098 l 1.506,-2.87 0.011,-0.015 0.004,0.015 0,2.875 0.09,0.093 0.26,0 0.088,-0.093 0,-3.414 -0.141,-0.144"
           style="fill:#08090a;fill-opacity:1;fill-rule:nonzero;stroke:none"
           id="path296"
           inkscape:connector-curvature="0" /><path
           d="m 498.23,51.951 -0.958,0 0,-3.169 -0.089,-0.099 -0.271,0 -0.087,0.099 0,3.169 -0.959,0 -0.098,0.078 0,0.216 0.098,0.089 2.364,0 0.093,-0.089 0,-0.216 -0.093,-0.078"
           style="fill:#08090a;fill-opacity:1;fill-rule:nonzero;stroke:none"
           id="path298"
           inkscape:connector-curvature="0" /><path
           d="m 500.939,48.683 -0.29,0 -0.082,0.074 -0.321,1.13 -1.272,0 -0.315,-1.13 -0.089,-0.074 -0.289,0 -0.085,0.079 0.007,0.035 0.908,3.198 c 0.084,0.3 0.315,0.373 0.501,0.373 0.184,0 0.413,-0.069 0.495,-0.368 l 0.912,-3.203 0.004,-0.035 -0.084,-0.079 m -1.234,3.209 -0.093,0.088 -0.099,-0.088 -0.446,-1.616 1.085,0"
           style="fill:#08090a;fill-opacity:1;fill-rule:nonzero;stroke:none"
           id="path300"
           inkscape:connector-curvature="0" /><path
           d="m 503.465,48.693 c -0.127,-0.019 -0.496,-0.044 -0.958,-0.044 -0.526,0 -1.045,0.103 -1.045,0.913 l 0,2.674 0.097,0.098 0.251,0 0.098,-0.098 0,-2.674 c 0,-0.373 0.084,-0.511 0.604,-0.511 l 0.947,0 0.056,-0.059 0,-0.23 -0.05,-0.069"
           style="fill:#08090a;fill-opacity:1;fill-rule:nonzero;stroke:none"
           id="path302"
           inkscape:connector-curvature="0" /></g><g
         id="g4265"><path
           d="m 353.955,50.322 c 0.055,0.203 0.142,0.22 0.218,0.22 0.042,0 0.139,0 0.199,-0.22 l 1.719,-6.215 -3.855,0 1.719,6.215 z m 2.369,0.526 c -0.388,1.393 -1.514,1.601 -2.151,1.601 -0.642,0 -1.777,-0.211 -2.17,-1.619 l -3.611,-12.717 -0.038,-0.217 c 0,-0.282 0.22,-0.494 0.513,-0.494 l 1.155,0 c 0.234,0 0.466,0.189 0.526,0.425 l 1.216,4.373 4.799,0 1.235,-4.368 c 0.064,-0.257 0.268,-0.43 0.507,-0.43 l 1.156,0 c 0.301,0 0.512,0.203 0.512,0.494 l -0.026,0.186"
           style="fill:#010202;fill-opacity:1;fill-rule:nonzero;stroke:none"
           id="path304"
           inkscape:connector-curvature="0" /><path
           d="m 369.506,39.23 -3.779,0 c -2.037,0 -2.229,0.509 -2.229,1.857 l 0,10.652 c 0,0.315 -0.256,0.572 -0.572,0.572 l -0.998,0 c -0.315,0 -0.571,-0.257 -0.571,-0.572 l 0,-10.652 c 0,-3.368 2.199,-3.822 4.35,-3.822 1.743,0 3.283,0.092 3.848,0.178 0.217,0.036 0.346,0.258 0.346,0.452 l 0,0.92 c 0,0.244 -0.162,0.415 -0.395,0.415"
           style="fill:#010202;fill-opacity:1;fill-rule:nonzero;stroke:none"
           id="path306"
           inkscape:connector-curvature="0" /><path
           d="m 376.55,45.51 -1.8,1.076 c -1.417,0.858 -2.048,1.381 -2.048,2.216 0,1.257 0.681,1.681 2.699,1.681 1.132,0 2.501,-0.059 3.368,-0.118 l 0.038,0 c 0.303,0 0.514,0.203 0.514,0.493 l 0,0.842 c 0,0.125 -0.047,0.423 -0.485,0.511 -0.723,0.114 -2.243,0.237 -3.435,0.237 -4.017,0 -4.86,-1.983 -4.86,-3.646 0,-1.758 1.114,-2.796 2.788,-3.815 l 1.899,-1.155 c 1.799,-1.107 2.264,-1.615 2.264,-2.471 0,-1.054 -0.332,-2.131 -2.796,-2.131 -0.93,0 -2.333,0.04 -3.231,0.117 l -0.059,0 c -0.302,0 -0.513,-0.202 -0.513,-0.493 l 0,-0.783 c 0,-0.327 0.131,-0.461 0.524,-0.53 0.902,-0.144 1.924,-0.276 3.279,-0.276 4.365,0 5.016,2.566 5.016,4.096 0,1.653 -0.857,2.778 -3.162,4.149"
           style="fill:#010202;fill-opacity:1;fill-rule:nonzero;stroke:none"
           id="path308"
           inkscape:connector-curvature="0" /><path
           d="m 386.168,50.322 c 0.055,0.203 0.142,0.22 0.218,0.22 0.042,0 0.138,0 0.199,-0.22 l 1.719,-6.216 -3.855,0 1.719,6.216 z m 2.369,0.526 c -0.388,1.393 -1.514,1.601 -2.151,1.601 -0.642,0 -1.778,-0.211 -2.171,-1.619 l -3.61,-12.717 -0.038,-0.218 c 0,-0.281 0.22,-0.493 0.512,-0.493 l 1.156,0 c 0.235,0 0.467,0.189 0.525,0.426 l 1.217,4.372 4.799,0 1.235,-4.368 c 0.065,-0.261 0.264,-0.43 0.507,-0.43 l 1.155,0 c 0.302,0 0.513,0.203 0.513,0.493 l -0.027,0.186"
           style="fill:#010202;fill-opacity:1;fill-rule:nonzero;stroke:none"
           id="path310"
           inkscape:connector-curvature="0" /><path
           d="m 401.817,39.387 -0.094,-10e-4 c -0.906,-0.075 -2.227,-0.156 -3.215,-0.156 -2.112,0 -3.228,1.475 -3.228,4.266 l 0,2.722 c 0,2.83 1.086,4.265 3.228,4.265 1.175,0 2.701,-0.128 3.289,-0.176 l 0.059,0 c 0.264,0 0.415,0.144 0.415,0.395 l 0,0.999 c 0,0.142 -0.061,0.387 -0.465,0.432 -1.031,0.164 -2.146,0.315 -3.318,0.315 -1.608,0 -5.35,-0.607 -5.35,-6.23 l 0,-2.722 c 0,-5.624 3.742,-6.231 5.35,-6.231 1.623,0 2.406,0.091 3.283,0.258 0.337,0.061 0.539,0.273 0.539,0.568 l 0,0.803 c 0,0.313 -0.18,0.493 -0.493,0.493"
           style="fill:#010202;fill-opacity:1;fill-rule:nonzero;stroke:none"
           id="path312"
           inkscape:connector-curvature="0" /><path
           d="m 408.534,50.483 3.779,0 c 0.233,0 0.395,0.171 0.395,0.415 l 0,0.979 c 0,0.194 -0.129,0.415 -0.358,0.453 -0.858,0.082 -2.759,0.119 -3.835,0.119 -2.969,0 -4.352,-1.215 -4.352,-3.823 l 0,-7.539 c 0,-2.607 1.383,-3.822 4.352,-3.822 0.484,0 2.946,0.005 3.847,0.1 0.217,0.036 0.346,0.258 0.346,0.452 l 0,0.998 c 0,0.245 -0.162,0.415 -0.395,0.415 l -3.779,0 c -2.037,0 -2.229,0.51 -2.229,1.857 l 0,3.11 5.832,0 c 0.315,0 0.571,0.257 0.571,0.572 l 0,0.744 c 0,0.315 -0.256,0.571 -0.571,0.571 l -5.832,0 0,2.542 c 0,1.348 0.192,1.857 2.229,1.857"
           style="fill:#010202;fill-opacity:1;fill-rule:nonzero;stroke:none"
           id="path314"
           inkscape:connector-curvature="0" /></g><path
         d="m 420.281,61.551 0,-32.176"
         style="fill:none;stroke:#838382;stroke-width:0.205;stroke-linecap:butt;stroke-linejoin:miter;stroke-miterlimit:10;stroke-dasharray:none;stroke-opacity:1"
         id="path318"
         inkscape:connector-curvature="0" /></g></g></svg>