<?xml version="1.0" encoding="UTF-8" standalone="no"?>
<!-- Created with Inkscape (http://www.inkscape.org/) -->
<svg
   xmlns:dc="http://purl.org/dc/elements/1.1/"
   xmlns:cc="http://creativecommons.org/ns#"
   xmlns:rdf="http://www.w3.org/1999/02/22-rdf-syntax-ns#"
   xmlns:svg="http://www.w3.org/2000/svg"
   xmlns="http://www.w3.org/2000/svg"
   xmlns:xlink="http://www.w3.org/1999/xlink"
   xmlns:sodipodi="http://sodipodi.sourceforge.net/DTD/sodipodi-0.dtd"
   xmlns:inkscape="http://www.inkscape.org/namespaces/inkscape"
   width="746.55554"
   height="414.07007"
   id="svg2"
   sodipodi:version="0.32"
   inkscape:version="0.45+0.46pre2+devel"
   version="1.0"
   sodipodi:docname="Logo_Guadeloupe.svg"
   inkscape:output_extension="org.inkscape.output.svg.inkscape">
  <defs
     id="defs4">
    <linearGradient
       id="linearGradient2955">
      <stop
         style="stop-color:white;stop-opacity:0.3137255;"
         offset="0"
         id="stop2957" />
      <stop
         id="stop2959"
         offset="0.40420339"
         style="stop-color:white;stop-opacity:0.25098041;" />
      <stop
         style="stop-color:#6b6b6b;stop-opacity:0.1254902;"
         offset="0.75141996"
         id="stop2961" />
      <stop
         style="stop-color:black;stop-opacity:0.1254902;"
         offset="1"
         id="stop2963" />
    </linearGradient>
    <linearGradient
       id="linearGradient2893">
      <stop
         id="stop2895"
         offset="0"
         style="stop-color:white;stop-opacity:0.3137255;" />
      <stop
         style="stop-color:white;stop-opacity:0.25098041;"
         offset="0.19"
         id="stop2897" />
      <stop
         id="stop2901"
         offset="0.60000002"
         style="stop-color:#6b6b6b;stop-opacity:0.1254902;" />
      <stop
         id="stop2899"
         offset="1"
         style="stop-color:black;stop-opacity:0.1254902;" />
    </linearGradient>
    <radialGradient
       inkscape:collect="always"
       xlink:href="#linearGradient2893"
       id="radialGradient2981"
       gradientUnits="userSpaceOnUse"
       gradientTransform="matrix(-3.0909776,0.2538187,-0.2851139,-3.4720872,1021.1556,3551.4905)"
       cx="-21.620144"
       cy="934.93756"
       fx="-21.620144"
       fy="934.93756"
       r="300" />
    <radialGradient
       inkscape:collect="always"
       xlink:href="#linearGradient2893"
       id="radialGradient2983"
       gradientUnits="userSpaceOnUse"
       gradientTransform="matrix(-2.8015808,1.7736002,-2.1050174,-3.3250885,2254.5939,5366.0617)"
       cx="-273.39301"
       cy="1268.7018"
       fx="-273.39301"
       fy="1268.7018"
       r="300" />
    <radialGradient
       inkscape:collect="always"
       xlink:href="#linearGradient2955"
       id="radialGradient2987"
       gradientUnits="userSpaceOnUse"
       gradientTransform="matrix(-3.6845192,1.4005013,-1.3263949,-3.4895561,381.50502,4958.8049)"
       cx="-410.4519"
       cy="1093.3527"
       fx="-410.4519"
       fy="1093.3527"
       r="300" />
    <radialGradient
       inkscape:collect="always"
       xlink:href="#linearGradient2893"
       id="radialGradient3001"
       gradientUnits="userSpaceOnUse"
       gradientTransform="matrix(1.2054749,0.6148409,-0.6940073,1.3606908,896.55212,-879.28968)"
       cx="-39.145729"
       cy="1113.5106"
       fx="-39.145729"
       fy="1113.5106"
       r="300" />
    <radialGradient
       inkscape:collect="always"
       xlink:href="#linearGradient2893"
       id="radialGradient3003"
       gradientUnits="userSpaceOnUse"
       gradientTransform="matrix(0.9412613,2.4436043,-2.7864107,1.073308,2923.7426,-928.82275)"
       cx="148.34586"
       cy="1003.4661"
       fx="148.34586"
       fy="1003.4661"
       r="300" />
  </defs>
  <sodipodi:namedview
     id="base"
     pagecolor="#ffffff"
     bordercolor="#666666"
     borderopacity="1.0"
     inkscape:pageopacity="0.0"
     inkscape:pageshadow="2"
     inkscape:zoom="0.49497475"
     inkscape:cx="636.42761"
     inkscape:cy="230.2247"
     inkscape:document-units="px"
     inkscape:current-layer="layer1"
     showgrid="false"
     inkscape:window-width="922"
     inkscape:window-height="667"
     inkscape:window-x="317"
     inkscape:window-y="68" />
  <metadata
     id="metadata7">
    <rdf:RDF>
      <cc:Work
         rdf:about="">
        <dc:format>image/svg+xml</dc:format>
        <dc:type
           rdf:resource="http://purl.org/dc/dcmitype/StillImage" />
        <dc:title>Logo de la Guadeloupe</dc:title>
        <dc:date>2008 FEB 27</dc:date>
        <dc:creator>
          <cc:Agent>
            <dc:title>Jean-Bernard FRANCOIS (infofiltrage)</dc:title>
          </cc:Agent>
        </dc:creator>
        <dc:publisher>
          <cc:Agent>
            <dc:title>Département Guadeloupe</dc:title>
          </cc:Agent>
        </dc:publisher>
        <dc:language>fr</dc:language>
        <dc:subject>
          <rdf:Bag>
            <rdf:li>Département Guadeloupe</rdf:li>
          </rdf:Bag>
        </dc:subject>
        <dc:description>Département Guadeloupe</dc:description>
      </cc:Work>
    </rdf:RDF>
  </metadata>
  <g
     inkscape:label="Calque 1"
     inkscape:groupmode="layer"
     id="layer1"
     transform="translate(676.89285,-366.00503)">
    <g
       id="g2900"
       transform="matrix(0.6043839,0,0,0.6043839,675.04908,29.101141)">
      <path
         sodipodi:nodetypes="ccccccssssscccssssssssssssssssssscccsssssssssccccccccssssssssc"
         style="fill:#67c5a4"
         d="M -1861.5913,800.137 C -1829.4671,777.15512 -1800.7752,753.55364 -1776.0207,729.66721 L -1719.0772,674.72081 L -1722.5023,701.52363 L -1725.9274,728.32646 L -1709.8574,713.56392 C -1701.0189,705.44452 -1691.9188,690.29391 -1689.635,679.89591 C -1686.061,663.6236 -1684.6353,662.50456 -1679.3989,671.86149 C -1676.0529,677.84056 -1674.7181,688.09742 -1676.4328,694.6545 C -1678.1476,701.21158 -1677.3151,706.57646 -1674.5829,706.57646 C -1667.926,706.57646 -1662.0712,690.34475 -1662.0712,671.88964 C -1662.0712,646.59458 -1637.4111,654.30079 -1615.5887,686.41526 L -1600.7938,708.18789 L -1596.6615,686.16076 C -1591.4484,658.3723 -1603.5459,631.79914 -1626.3957,620.84755 C -1635.7636,616.35759 -1643.4283,610.25703 -1643.4283,607.29073 C -1643.4283,599.11615 -1603.4477,587.64627 -1590.0018,591.96341 C -1580.2715,595.08756 -1580.7755,593.46724 -1592.8489,582.8109 C -1610.2164,567.48183 -1650.5193,565.26445 -1661.9274,579.01035 C -1668.5937,587.04277 -1670.7041,586.97418 -1679.2303,578.44795 C -1685.3762,572.3021 -1696.4442,569.61334 -1709.3805,571.12357 C -1725.55,573.01127 -1728.4264,571.83054 -1723.149,565.47169 C -1718.2664,559.58848 -1692.8494,557.4336 -1628.339,557.4336 C -1544.8842,557.4336 -1539.1179,558.23201 -1519.8374,572.45675 C -1483.4683,599.28901 -1462.3992,627.03143 -1472.3531,653.29025 C -1480.9038,675.84732 -1474.0808,679.82164 -1448.8002,706.11168 C -1416.8253,739.36325 -1410.8241,752.72737 -1422.5857,764.4889 C -1428.0136,769.91685 -1427.749,783.93096 -1426.2101,799.90822 C -1425.6207,806.02736 -1434.0988,808.66413 -1434.5115,813.19659 C -1435.2368,821.16291 -1427.2754,827.71174 -1431.1221,830.90424 C -1437.9162,836.54288 -1442.708,841.37491 -1437.7951,850.5548 C -1429.6612,865.75316 -1440.2362,880.54331 -1459.3142,880.65132 C -1476.2104,880.74698 -1525.1435,908.57783 -1536.22,924.3917 C -1543.3774,934.61035 -1551.7029,936.21767 -1734.2433,936.42446 L -1861.5913,800.137 z M -1494.3478,927.25869 C -1480.0505,910.03155 -1446.5752,893.17267 -1409.767,884.66198 C -1373.6463,876.31024 -1373.1316,875.88657 -1374.7877,855.86743 C -1375.7121,844.69248 -1370.4266,832.29713 -1367.1278,828.32227 C -1365.7316,826.63992 -1371.9973,818.19434 -1371.2612,813.8851 C -1370.2581,808.01274 -1362.5799,807.16444 -1363.2536,799.9157 C -1364.5777,785.66875 -1365.4513,772.68051 -1360.0385,768.18832 C -1346.794,757.19637 -1349.0702,750.98588 -1379.3212,715.57674 C -1401.5937,689.50648 -1412.3363,678.13588 -1407.2855,659.71169 C -1399.7391,632.18394 -1425.2518,601.01391 -1453.8706,581.52422 C -1465.7985,573.40117 -1488.4339,556.94342 -1481.3145,560.09431 L -1443.3205,559.60167 L -1214.5912,769.48719 L -1379.5923,936.50504 L -1440.807,936.50504 C -1494.2944,936.50504 -1501.0529,935.33788 -1494.3478,927.25869 z M -2006.9641,826.71881 C -1996.7105,817.82025 -1934.3582,760.3022 -1868.4035,698.90089 C -1760.6132,598.55245 -1746.2987,587.26217 -1726.8604,587.26217 C -1705.7415,587.26217 -1686.9283,596.98942 -1686.9283,607.90879 C -1686.9283,610.90815 -1701.2784,613.36217 -1718.8174,613.36217 C -1748.1839,613.36217 -1752.854,615.50964 -1777.8532,640.50879 C -1792.7838,655.43943 -1804.9998,672.70546 -1804.9998,678.87774 C -1804.9998,689.11282 -1803.7629,688.93811 -1790.9402,676.89181 C -1774.2342,661.19727 -1718.6033,635.54442 -1713.1342,641.01343 C -1706.1021,648.04553 -1786.1584,718.20001 -1848.8137,759.9113 C -1937.461,818.92624 -2055.385,868.7409 -2006.9641,826.71881 z"
         id="path2434" />
      <path
         sodipodi:nodetypes="cccc"
         id="path2432"
         d="M -1215.3989,770.77244 L -1446.1883,559.94211 L -1005.1168,561.61985 L -1215.3989,770.77244 z"
         style="fill:#fcb507" />
      <path
         sodipodi:nodetypes="ccccc"
         id="path2426"
         d="M -1317.4894,998.64789 L -1410.0815,1091.8622 L -2142.8964,1091.8622 L -2053.1004,995.9204 L -1317.4894,998.64789 z"
         style="fill:#0f5869" />
      <path
         sodipodi:nodetypes="cccccccccc"
         id="path2424"
         d="M -2010.7331,892.64548 C -1958.8979,865.70715 -1905.6841,829.17109 -1856.9604,796.89566 C -1816.0039,838.47236 -1758.9773,891.40582 -1720.4424,935.22493 L -2089.0734,933.39789 C -2062.96,919.81376 -2036.8465,906.22962 -2010.7331,892.64548 z M -1761.852,864.29337 L -1707.2246,827.52771 L -1577.8184,934.20758 L -1691.6742,936.00507 L -1761.852,864.29337 z"
         style="fill:#2e5e14" />
      <path
         sodipodi:nodetypes="ccccccc"
         id="path2422"
         d="M -2137.7558,955.14789 L -1417.276,955.14789 L -1459.6479,998.86451 L -2055.7846,998.18793 L -2105.464,1051.8683 L -2236.8927,1055.2022 L -2137.7558,955.14789 z"
         style="fill:#141d2e" />
    </g>
    <g
       id="g2893"
       transform="matrix(0.6043839,0,0,0.6043839,-489.33888,149.55014)">
      <path
         sodipodi:nodetypes="ccccccssssscccssssssssssssssssssscccsssssssssccccccccssssssssc"
         style="opacity:1;fill:url(#radialGradient3003);fill-opacity:1;fill-rule:evenodd;stroke:none;stroke-width:1px;stroke-linecap:butt;stroke-linejoin:miter;marker:none;marker-start:none;marker-mid:none;marker-end:none;stroke-miterlimit:4;stroke-dasharray:none;stroke-dashoffset:0;stroke-opacity:1;visibility:visible;display:inline;overflow:visible;enable-background:accumulate"
         d="M 67.342506,598.48111 C 99.466706,575.49921 125.79492,554.26149 150.54942,530.37499 L 207.49292,475.42859 L 204.06782,502.23139 L 200.64272,529.03429 L 216.71272,514.27169 C 225.55122,506.15229 234.65132,491.00169 236.93512,480.60369 C 240.50912,464.33139 241.93482,463.21239 247.17122,472.56929 C 250.51722,478.54839 251.85202,488.80519 250.13732,495.36229 C 248.42252,501.91939 249.25502,507.28429 251.98722,507.28429 C 258.64412,507.28429 264.49892,491.05259 264.49892,472.59749 C 264.49892,447.30239 289.15902,455.00859 310.98143,487.12309 L 325.77633,508.89569 L 329.90863,486.86859 C 335.12173,459.08009 323.02423,432.50694 300.17443,421.55535 C 290.80652,417.06539 283.14182,410.96483 283.14182,407.99853 C 283.14182,399.82395 323.12243,388.35407 336.56833,392.67121 C 346.29863,395.79536 345.79463,394.17504 333.72123,383.5187 C 316.35373,368.18963 276.05082,365.97225 264.64272,379.71815 C 257.97642,387.75057 255.86602,387.68198 247.33982,379.15575 C 241.19392,373.0099 230.12592,370.32114 217.18962,371.83137 C 201.02012,373.71907 198.14372,372.53834 203.42112,366.17949 C 208.30372,360.29628 233.72072,358.1414 298.23113,358.1414 C 381.68593,358.1414 387.45223,358.93981 406.73273,373.16455 C 443.10183,399.99681 464.17093,427.73923 454.21703,453.99809 C 445.66633,476.55509 452.48933,480.52949 477.76993,506.81949 C 509.74482,540.07109 515.74602,553.43519 503.98442,565.19669 C 498.55652,570.62469 496.31402,582.96739 497.85292,598.94469 C 498.44232,605.06379 492.47133,609.37189 492.05863,613.90439 C 491.33333,621.87069 495.11632,628.41959 491.26963,631.61209 C 484.47553,637.25069 483.86213,642.08269 488.77503,651.26259 C 496.90892,666.46099 486.33393,681.25109 467.25593,681.35909 C 450.35973,681.45479 401.42663,709.28559 390.35013,725.09949 C 383.19273,735.31819 387.86748,736.92549 205.32707,737.13229 L 67.342506,598.48111 z M 432.22233,727.96649 C 446.51963,710.73939 479.99493,693.88049 516.80312,685.36979 C 552.92382,677.01809 553.43852,676.59439 551.78242,656.57519 C 550.85802,645.40029 552.80072,633.00489 556.09952,629.03009 C 557.49572,627.34769 554.57282,618.90219 555.30892,614.59289 C 556.31202,608.72059 560.64742,606.20089 559.97372,598.95209 C 558.64962,584.70519 561.11882,573.38829 566.53162,568.89609 C 579.77612,557.90419 577.49992,551.69369 547.24892,516.28459 C 524.97642,490.21429 514.23382,478.84369 519.28462,460.41949 C 526.83102,432.89174 501.31832,401.72171 472.69953,382.23202 C 460.77163,374.10897 438.13623,357.65122 445.25563,360.80211 L 483.24963,360.30947 L 711.97892,570.19499 L 546.97782,737.21289 L 485.76313,737.21289 C 432.27573,737.21289 425.51723,736.04569 432.22233,727.96649 z M -80.393976,627.42659 C -70.140376,618.52809 -7.7880759,561.00999 58.166624,499.60869 C 165.95692,399.26025 180.27142,387.96997 199.70972,387.96997 C 220.82862,387.96997 239.64182,397.69722 239.64182,408.61659 C 239.64182,411.61595 225.29172,414.06997 207.75272,414.06997 C 178.38622,414.06997 173.71612,416.21744 148.71692,441.21659 C 133.78632,456.14719 121.57032,473.41329 121.57032,479.58559 C 121.57032,489.82059 122.80722,489.64589 135.62992,477.59959 C 152.33592,461.90509 207.96682,436.25222 213.43592,441.72123 C 220.46802,448.75329 140.41172,518.90779 77.756424,560.61909 C -10.890876,619.63409 -128.81488,669.44869 -80.393976,627.42659 z"
         id="path2650" />
      <path
         sodipodi:nodetypes="cccc"
         id="path2652"
         d="M 711.17122,571.48029 L 480.38183,360.64991 L 921.45332,362.32765 L 711.17122,571.48029 z"
         style="opacity:1;fill:url(#radialGradient2981);fill-opacity:1;fill-rule:evenodd;stroke:none;stroke-width:1px;stroke-linecap:butt;stroke-linejoin:miter;marker:none;marker-start:none;marker-mid:none;marker-end:none;stroke-miterlimit:4;stroke-dasharray:none;stroke-dashoffset:0;stroke-opacity:1;visibility:visible;display:inline;overflow:visible;enable-background:accumulate" />
      <path
         sodipodi:nodetypes="ccccc"
         id="path2654"
         d="M 609.08072,799.35569 L 516.48862,892.56999 L -216.32628,892.56999 L -126.53028,796.62819 L 609.08072,799.35569 z"
         style="opacity:1;fill:url(#radialGradient2983);fill-opacity:1;fill-rule:evenodd;stroke:none;stroke-width:1px;stroke-linecap:butt;stroke-linejoin:miter;marker:none;marker-start:none;marker-mid:none;marker-end:none;stroke-miterlimit:4;stroke-dasharray:none;stroke-dashoffset:0;stroke-opacity:1;visibility:visible;display:inline;overflow:visible;enable-background:accumulate" />
      <path
         sodipodi:nodetypes="cccccccccc"
         id="path2656"
         d="M -84.162976,693.35329 C -32.327776,666.41499 22.067888,629.87885 70.791588,597.60345 C 111.74808,639.18015 165.22913,690.93175 203.76403,734.75085 L -162.50328,734.10569 C -136.38988,720.52159 -110.27638,706.93739 -84.162976,693.35329 z M 164.71812,665.00119 L 219.34552,628.23549 L 348.75173,734.91539 L 234.89592,736.71289 L 164.71812,665.00119 z"
         style="opacity:1;fill:url(#radialGradient3001);fill-opacity:1;fill-rule:evenodd;stroke:none;stroke-width:1px;stroke-linecap:butt;stroke-linejoin:miter;marker:none;marker-start:none;marker-mid:none;marker-end:none;stroke-miterlimit:4;stroke-dasharray:none;stroke-dashoffset:0;stroke-opacity:1;visibility:visible;display:inline;overflow:visible;enable-background:accumulate" />
      <path
         sodipodi:nodetypes="ccccccc"
         id="path2658"
         d="M -211.18568,755.85569 L 509.29412,755.85569 L 466.92223,799.57229 L -129.21448,798.89569 L -178.89388,852.57609 L -310.32258,855.90999 L -211.18568,755.85569 z"
         style="opacity:1;fill:url(#radialGradient2987);fill-opacity:1;fill-rule:evenodd;stroke:none;stroke-width:1px;stroke-linecap:butt;stroke-linejoin:miter;marker:none;marker-start:none;marker-mid:none;marker-end:none;stroke-miterlimit:4;stroke-dasharray:none;stroke-dashoffset:0;stroke-opacity:1;visibility:visible;display:inline;overflow:visible;enable-background:accumulate" />
    </g>
    <path
       style="font-size:101.30558777px;font-style:italic;font-variant:normal;font-weight:bold;font-stretch:normal;text-align:start;line-height:125%;writing-mode:lr-tb;text-anchor:start;fill:#1a1a1a;fill-opacity:1;stroke:none;stroke-width:1px;stroke-linecap:butt;stroke-linejoin:miter;stroke-opacity:1;font-family:Lucida Sans;-inkscape-font-specification:Lucida Sans Bold Italic"
       d="M -574.42913,776.06839 C -585.3446,778.73953 -594.71008,780.0751 -602.5256,780.0751 C -611.89112,780.0751 -619.14607,777.57709 -624.29047,772.58106 C -629.43491,767.58504 -632.00712,760.89895 -632.00711,752.52275 C -632.00712,744.14661 -629.88835,736.10021 -625.65078,728.38353 C -621.41324,720.66695 -615.77417,714.53322 -608.73354,709.98232 C -601.69297,705.43155 -593.27558,703.15614 -583.48134,703.15606 C -577.31469,703.15614 -570.07623,704.09598 -561.76593,705.9756 L -564.04135,717.74842 C -567.73486,716.4294 -570.67806,715.48131 -572.87096,714.90415 C -575.06401,714.32711 -577.13332,713.90666 -579.0789,713.64277 C -581.02461,713.37902 -582.95376,713.24711 -584.86638,713.24705 C -590.76932,713.24711 -595.93023,714.85475 -600.34911,718.06995 C -604.76808,721.28527 -608.42853,726.00923 -611.33048,732.24185 C -614.23249,738.47456 -615.68348,744.72371 -615.68346,750.98932 C -615.68348,756.92521 -614.02639,761.58322 -610.71216,764.96335 C -607.398,768.34351 -602.70702,770.03359 -596.63919,770.03358 C -593.83619,770.03359 -590.91772,769.52244 -587.88378,768.50015 L -583.28348,745.30077 L -568.34486,745.30077 L -574.42913,776.06839 z M -545.54121,705.03576 L -530.00901,705.03576 L -539.16015,751.18718 C -539.65483,753.59453 -539.90216,755.85346 -539.90213,757.96397 C -539.90216,761.59146 -538.70674,764.45222 -536.31587,766.54625 C -533.92507,768.64031 -530.88294,769.68733 -527.18947,769.68732 C -523.26524,769.68733 -519.86036,768.40947 -516.97482,765.85374 C -514.08938,763.29803 -511.93762,758.45865 -510.51955,751.33558 L -501.31895,705.03576 L -487.56751,705.03576 L -496.12506,747.87298 C -497.80696,756.38109 -500.03291,762.72093 -502.80292,766.89251 C -505.57305,771.06412 -509.29946,774.30412 -513.98215,776.61251 C -518.66494,778.9209 -523.92478,780.0751 -529.76168,780.0751 C -537.04965,780.0751 -543.1504,778.19541 -548.06396,774.43602 C -552.97756,770.67664 -555.43435,765.54871 -555.43434,759.05221 C -555.43435,756.05132 -555.0716,752.75362 -554.34609,749.15909 L -545.54121,705.03576 z M -491.77209,778.24487 L -451.21028,705.03576 L -435.67808,705.03576 L -421.58037,778.24487 L -436.66739,778.24487 L -440.27838,759.6458 L -469.26523,759.6458 L -479.50461,778.24487 L -491.77209,778.24487 z M -463.77455,749.55481 L -442.10861,749.55481 L -447.89608,720.96369 L -463.77455,749.55481 z M -410.64846,778.24487 L -396.0561,705.03576 L -365.33795,705.03576 C -357.52245,705.03583 -351.72673,705.8685 -347.95079,707.53377 C -344.17499,709.19918 -341.18232,711.91154 -338.97278,715.67086 C -336.7634,719.43031 -335.65867,724.34389 -335.65858,730.41162 C -335.65867,739.18356 -337.66202,747.3866 -341.66866,755.02076 C -345.67545,762.65497 -350.86109,768.4342 -357.22559,772.35846 C -363.59023,776.28274 -371.90044,778.24487 -382.15627,778.24487 L -410.64846,778.24487 z M -393.38496,768.15389 L -384.62955,768.15389 C -377.7044,768.1539 -372.01586,766.63695 -367.56391,763.60305 C -363.11206,760.56918 -359.45161,756.10079 -356.58254,750.19787 C -353.7136,744.295 -352.2791,738.16127 -352.27903,731.79666 C -352.2791,725.89381 -354.1423,721.63153 -357.86865,719.00979 C -361.59511,716.38818 -368.3719,715.07734 -378.19902,715.07728 L -382.79932,715.07728 L -393.38496,768.15389 z M -330.90988,778.24487 L -316.31752,705.03576 L -270.26503,705.03576 L -272.24365,715.07728 L -303.06073,715.07728 L -307.16638,735.50658 L -282.43357,735.50658 L -284.31326,745.00398 L -309.04607,745.00398 L -313.64637,768.15389 L -280.70227,768.15389 L -282.6809,778.24487 L -330.90988,778.24487 z M -270.1661,778.24487 L -255.57374,705.03576 L -240.33833,705.03576 L -252.9026,768.15389 L -219.01865,768.15389 L -221.04674,778.24487 L -270.1661,778.24487 z M -180.33653,780.0751 C -189.40526,780.0751 -196.47059,777.5606 -201.53255,772.53159 C -206.59454,767.5026 -209.12553,760.75055 -209.12552,752.27542 C -209.12553,744.13012 -207.015,736.23212 -202.79392,728.58139 C -198.57288,720.93077 -192.95029,714.78055 -185.92615,710.13072 C -178.90207,705.48102 -170.70727,703.15614 -161.34173,703.15606 C -151.97631,703.15614 -144.78732,705.68713 -139.77472,710.74904 C -134.76229,715.81108 -132.25604,722.54664 -132.25595,730.95574 C -132.25604,739.10112 -134.34184,746.97439 -138.51335,754.57557 C -142.68503,762.17681 -148.28288,768.32703 -155.30693,773.02625 C -162.3311,777.72548 -170.6743,780.0751 -180.33653,780.0751 L -180.33653,780.0751 z M -176.9234,770.03358 C -172.14178,770.03359 -167.62392,768.46718 -163.36982,765.33435 C -159.11584,762.20154 -155.57905,757.50231 -152.75945,751.23665 C -149.93998,744.97103 -148.53021,738.60646 -148.53014,732.14292 C -148.53021,725.84435 -149.98944,721.12038 -152.90785,717.97102 C -155.82638,714.82177 -159.64347,713.24711 -164.35914,713.24705 C -168.97598,713.24711 -173.45261,714.8465 -177.78905,718.04521 C -182.12558,721.24405 -185.67061,725.96801 -188.42416,732.21711 C -191.17778,738.46631 -192.55457,744.75668 -192.55454,751.08825 C -192.55457,757.58475 -191.04587,762.36643 -188.02844,765.43328 C -185.01107,768.50016 -181.30939,770.03359 -176.9234,770.03358 L -176.9234,770.03358 z M -113.80528,705.03576 L -98.273076,705.03576 L -107.42422,751.18718 C -107.9189,753.59453 -108.16623,755.85346 -108.1662,757.96397 C -108.16623,761.59146 -106.97081,764.45222 -104.57994,766.54625 C -102.18914,768.64031 -99.147006,769.68733 -95.453536,769.68732 C -91.529308,769.68733 -88.124428,768.40947 -85.238886,765.85374 C -82.353445,763.29803 -80.201693,758.45865 -78.783622,751.33558 L -69.583017,705.03576 L -55.831575,705.03576 L -64.389127,747.87298 C -66.071028,756.38109 -68.296979,762.72093 -71.066986,766.89251 C -73.837123,771.06412 -77.563529,774.30412 -82.246216,776.61251 C -86.92901,778.9209 -92.188849,780.0751 -98.025748,780.0751 C -105.31371,780.0751 -111.41447,778.19541 -116.32803,774.43602 C -121.24163,770.67664 -123.69842,765.54871 -123.6984,759.05221 C -123.69842,756.05132 -123.33567,752.75362 -122.61016,749.15909 L -113.80528,705.03576 z M -53.308862,778.24487 L -38.716505,705.03576 L -13.241711,705.03576 C -4.9645211,705.03583 0.59211124,706.45384 3.4282028,709.2898 C 6.2641632,712.1259 7.6821762,715.572 7.6822461,719.62811 C 7.6821762,724.34389 6.2064534,729.24098 3.2550732,734.3194 C 0.30356209,739.39791 -3.7526146,743.20676 -8.9134691,745.74596 C -14.07443,748.28523 -20.133962,749.55484 -27.092084,749.55481 L -32.632233,749.55481 L -38.370245,778.24487 L -53.308862,778.24487 z M -30.703074,739.81009 L -27.042618,739.81009 C -23.250293,739.81013 -20.010298,739.10936 -17.322624,737.7078 C -14.63504,736.30631 -12.417334,734.08036 -10.669499,731.02994 C -8.9217666,727.97961 -8.0478749,724.95397 -8.0478208,721.953 C -8.0478749,719.71062 -8.9052781,718.00405 -10.620033,716.83331 C -12.334891,715.66268 -16.077786,715.07734 -21.848729,715.07728 L -25.805978,715.07728 L -30.703074,739.81009 z M 9.017859,778.24487 L 23.610217,705.03576 L 69.662708,705.03576 L 67.684083,715.07728 L 36.867003,715.07728 L 32.761356,735.50658 L 57.494166,735.50658 L 55.614472,745.00398 L 30.881663,745.00398 L 26.28136,768.15389 L 59.225462,768.15389 L 57.246838,778.24487 L 9.017859,778.24487 z"
       id="text3025" />
  </g>
</svg>
