<?xml version="1.0" encoding="UTF-8" standalone="no"?>
<svg
   xmlns:dc="http://purl.org/dc/elements/1.1/"
   xmlns:cc="http://creativecommons.org/ns#"
   xmlns:rdf="http://www.w3.org/1999/02/22-rdf-syntax-ns#"
   xmlns:svg="http://www.w3.org/2000/svg"
   xmlns="http://www.w3.org/2000/svg"
   xmlns:xlink="http://www.w3.org/1999/xlink"
   xmlns:sodipodi="http://sodipodi.sourceforge.net/DTD/sodipodi-0.dtd"
   xmlns:inkscape="http://www.inkscape.org/namespaces/inkscape"
   viewBox="0 0 800 216.99999"
   height="217"
   width="800"
   xml:space="preserve"
   version="1.1"
   id="svg2"
   inkscape:version="0.91 r13725"
   sodipodi:docname="Logo Haut Rhin 2015 copie.svg"><sodipodi:namedview
     pagecolor="#ffffff"
     bordercolor="#666666"
     borderopacity="1"
     objecttolerance="10"
     gridtolerance="10"
     guidetolerance="10"
     inkscape:pageopacity="0"
     inkscape:pageshadow="2"
     inkscape:window-width="1440"
     inkscape:window-height="790"
     id="namedview508"
     showgrid="false"
     inkscape:zoom="0.55261916"
     inkscape:cx="441.08954"
     inkscape:cy="64.112421"
     inkscape:window-x="0"
     inkscape:window-y="1"
     inkscape:window-maximized="1"
     inkscape:current-layer="svg2" /><metadata
     id="metadata8"><rdf:RDF><cc:Work
         rdf:about=""><dc:format>image/svg+xml</dc:format><dc:type
           rdf:resource="http://purl.org/dc/dcmitype/StillImage" /><dc:title></dc:title></cc:Work></rdf:RDF></metadata><defs
     id="defs6"><linearGradient
       id="linearGradient4676"
       spreadMethod="pad"
       gradientTransform="matrix(-16.76603,7.782563,7.782563,16.76603,504.3153,68.82624)"
       gradientUnits="userSpaceOnUse"
       y2="0"
       x2="1"
       y1="0"
       x1="0"><stop
         id="stop4678"
         offset="0"
         style="stop-opacity:1;stop-color:#b83125" /><stop
         style="stop-color:#b52b23;stop-opacity:1"
         offset="0.3816793"
         id="stop4680" /><stop
         style="stop-color:#88261d;stop-opacity:1"
         offset="0.72076309"
         id="stop4682" /><stop
         id="stop4686"
         offset="0.85484707"
         style="stop-color:#76231b;stop-opacity:1" /><stop
         id="stop4684"
         offset="1"
         style="stop-opacity:1;stop-color:#694217" /></linearGradient><linearGradient
       inkscape:collect="always"
       id="linearGradient10004"><stop
         style="stop-color:#b78307;stop-opacity:1"
         offset="0"
         id="stop10006" /><stop
         style="stop-color:#fbc707;stop-opacity:1"
         offset="1"
         id="stop10008" /></linearGradient><linearGradient
       id="linearGradient9919"
       inkscape:collect="always"><stop
         id="stop9921"
         offset="0"
         style="stop-color:#88181c;stop-opacity:0.99803919" /><stop
         style="stop-color:#c81c22;stop-opacity:1"
         offset="0.46619996"
         id="stop9923" /><stop
         id="stop9925"
         offset="1"
         style="stop-color:#c81c22;stop-opacity:1" /></linearGradient><linearGradient
       x1="0"
       y1="0"
       x2="1"
       y2="0"
       gradientUnits="userSpaceOnUse"
       gradientTransform="matrix(8.932347,-2.428974,-2.428974,-8.932347,512.9574,99.0834)"
       spreadMethod="pad"
       id="linearGradient8853"><stop
         style="stop-opacity:1;stop-color:#87191e"
         offset="0"
         id="stop8855" /><stop
         id="stop8863"
         offset="0.13695946"
         style="stop-color:#87191e;stop-opacity:1" /><stop
         style="stop-color:#87191e;stop-opacity:1"
         offset="0.32423922"
         id="stop8865" /><stop
         id="stop8861"
         offset="0.56135738"
         style="stop-color:#280e0f;stop-opacity:1" /><stop
         id="stop8859"
         offset="0.6709618"
         style="stop-color:#4e1215;stop-opacity:1" /><stop
         style="stop-opacity:0.92156863;stop-color:#88191e"
         offset="1"
         id="stop8857" /></linearGradient><linearGradient
       x1="0"
       y1="0"
       x2="1"
       y2="0"
       gradientUnits="userSpaceOnUse"
       gradientTransform="matrix(-16.76603,7.782563,7.782563,16.76603,504.3153,68.82624)"
       spreadMethod="pad"
       id="linearGradient9494"><stop
         style="stop-opacity:1;stop-color:#fbc707"
         offset="0"
         id="stop9496" /><stop
         id="stop9502"
         offset="0.54453063"
         style="stop-color:#fbc707;stop-opacity:1" /><stop
         id="stop9500"
         offset="0.63338029"
         style="stop-color:#edb907;stop-opacity:1" /><stop
         style="stop-opacity:1;stop-color:#855207"
         offset="1"
         id="stop9498" /></linearGradient><linearGradient
       x1="0"
       y1="0"
       x2="1"
       y2="0"
       gradientUnits="userSpaceOnUse"
       gradientTransform="matrix(40.42959,-11.04762,-11.04762,-40.42959,508.3822,83.3538)"
       spreadMethod="pad"
       id="linearGradient9429"><stop
         style="stop-opacity:1;stop-color:#ba1b20"
         offset="0"
         id="stop9431" /><stop
         id="stop9443"
         offset="0.24744907"
         style="stop-color:#a5191e;stop-opacity:1" /><stop
         style="stop-color:#a72a21;stop-opacity:1"
         offset="0.33932862"
         id="stop3706" /><stop
         id="stop3708"
         offset="0.36584961"
         style="stop-color:#9c2920;stop-opacity:1" /><stop
         id="stop9435"
         offset="0.40018073"
         style="stop-color:#be2c24;stop-opacity:1" /><stop
         style="stop-color:#bd2c24;stop-opacity:1"
         offset="0.55160046"
         id="stop9437" /><stop
         id="stop3694"
         offset="0.57453287"
         style="stop-color:#b12b22;stop-opacity:1" /><stop
         style="stop-color:#762218;stop-opacity:1"
         offset="0.58821702"
         id="stop3696" /><stop
         id="stop3698"
         offset="0.62168181"
         style="stop-color:#bb2b23;stop-opacity:1" /><stop
         id="stop9441"
         offset="0.70150429"
         style="stop-color:#d12e26;stop-opacity:1" /><stop
         style="stop-color:#c92d25;stop-opacity:1"
         offset="0.79202658"
         id="stop3700" /><stop
         id="stop3702"
         offset="0.82558292"
         style="stop-color:#9b2920;stop-opacity:1" /><stop
         style="stop-color:#a22921;stop-opacity:1"
         offset="0.8420276"
         id="stop3704" /><stop
         style="stop-opacity:1;stop-color:#c71c22"
         offset="1"
         id="stop9433" /></linearGradient><linearGradient
       gradientTransform="matrix(1.7586696,0,0,1.7586696,-987.2121,945.03505)"
       gradientUnits="userSpaceOnUse"
       y2="-62.205288"
       x2="546.69342"
       y1="-96.986763"
       x1="451.71326"
       id="linearGradient9427"
       xlink:href="#linearGradient9429" /><linearGradient
       gradientTransform="matrix(1.7586696,0,0,-1.7586696,-987.2121,945.03505)"
       gradientUnits="userSpaceOnUse"
       y2="61.536415"
       x2="505.89209"
       y1="89.406189"
       x1="453.49692"
       id="linearGradient9492"
       xlink:href="#linearGradient9494" /><linearGradient
       inkscape:collect="always"
       xlink:href="#linearGradient8853"
       id="linearGradient8851"
       x1="13.952166"
       y1="269.19727"
       x2="799.99414"
       y2="269.19727"
       gradientUnits="userSpaceOnUse"
       gradientTransform="matrix(0.21031468,0,0,0.21031468,-192.90405,749.56862)" /><linearGradient
       inkscape:collect="always"
       xlink:href="#linearGradient9919"
       id="linearGradient9917"
       x1="431.38858"
       y1="220.17458"
       x2="796.21271"
       y2="299.53983"
       gradientUnits="userSpaceOnUse"
       gradientTransform="matrix(0.21031468,0,0,0.21031468,-192.90405,749.56862)" /><linearGradient
       inkscape:collect="always"
       xlink:href="#linearGradient10004"
       id="linearGradient10010"
       x1="442.73196"
       y1="248.71591"
       x2="624.6225"
       y2="274.3176"
       gradientUnits="userSpaceOnUse"
       gradientTransform="matrix(0.21031468,0,0,0.21031468,-192.90405,749.56862)" /><linearGradient
       inkscape:collect="always"
       xlink:href="#linearGradient10004"
       id="linearGradient3526"
       gradientUnits="userSpaceOnUse"
       x1="442.73196"
       y1="248.71591"
       x2="624.6225"
       y2="274.3176"
       gradientTransform="matrix(0.21031468,0,0,0.21031468,-192.90405,749.56859)" /><linearGradient
       inkscape:collect="always"
       xlink:href="#linearGradient10004"
       id="linearGradient3528"
       gradientUnits="userSpaceOnUse"
       x1="442.73196"
       y1="248.71591"
       x2="624.6225"
       y2="274.3176"
       gradientTransform="matrix(0.21031468,0,0,0.21031468,-192.90405,749.56862)" /><linearGradient
       inkscape:collect="always"
       xlink:href="#linearGradient9919"
       id="linearGradient3530"
       gradientUnits="userSpaceOnUse"
       x1="431.38858"
       y1="220.17458"
       x2="796.21271"
       y2="299.53983"
       gradientTransform="matrix(0.21031468,0,0,0.21031468,-192.90405,749.56859)" /><linearGradient
       inkscape:collect="always"
       xlink:href="#linearGradient9919"
       id="linearGradient3532"
       gradientUnits="userSpaceOnUse"
       x1="431.38858"
       y1="220.17458"
       x2="796.21271"
       y2="299.53983"
       gradientTransform="matrix(0.21031468,0,0,0.21031468,-192.90405,749.56859)" /><linearGradient
       inkscape:collect="always"
       xlink:href="#linearGradient9919"
       id="linearGradient3534"
       gradientUnits="userSpaceOnUse"
       x1="431.38858"
       y1="220.17458"
       x2="796.21271"
       y2="299.53983"
       gradientTransform="matrix(0.21031468,0,0,0.21031468,-192.90405,749.56859)" /><linearGradient
       inkscape:collect="always"
       xlink:href="#linearGradient9919"
       id="linearGradient3536"
       gradientUnits="userSpaceOnUse"
       x1="431.38858"
       y1="220.17458"
       x2="796.21271"
       y2="299.53983"
       gradientTransform="matrix(0.21031468,0,0,0.21031468,-192.90405,749.56862)" /><linearGradient
       inkscape:collect="always"
       xlink:href="#linearGradient9919"
       id="linearGradient3538"
       gradientUnits="userSpaceOnUse"
       x1="431.38858"
       y1="220.17458"
       x2="796.21271"
       y2="299.53983"
       gradientTransform="matrix(0.21031468,0,0,0.21031468,-192.90405,749.56862)" /><linearGradient
       inkscape:collect="always"
       xlink:href="#linearGradient9919"
       id="linearGradient3540"
       gradientUnits="userSpaceOnUse"
       x1="431.38858"
       y1="220.17458"
       x2="796.21271"
       y2="299.53983"
       gradientTransform="matrix(0.21031468,0,0,0.21031468,-192.90405,749.56862)" /><linearGradient
       inkscape:collect="always"
       xlink:href="#linearGradient8853"
       id="linearGradient3542"
       gradientUnits="userSpaceOnUse"
       x1="13.952166"
       y1="269.19727"
       x2="799.99414"
       y2="269.19727"
       gradientTransform="matrix(0.21031468,0,0,0.21031468,-192.90405,749.56859)" /><linearGradient
       inkscape:collect="always"
       xlink:href="#linearGradient8853"
       id="linearGradient3544"
       gradientUnits="userSpaceOnUse"
       x1="13.952166"
       y1="269.19727"
       x2="799.99414"
       y2="269.19727"
       gradientTransform="matrix(0.21031468,0,0,0.21031468,-192.90405,749.56862)" /><linearGradient
       inkscape:collect="always"
       xlink:href="#linearGradient8853"
       id="linearGradient3546"
       gradientUnits="userSpaceOnUse"
       x1="13.952166"
       y1="269.19727"
       x2="799.99414"
       y2="269.19727"
       gradientTransform="matrix(0.21031468,0,0,0.21031468,-192.90405,749.56859)" /><linearGradient
       inkscape:collect="always"
       xlink:href="#linearGradient8853"
       id="linearGradient3548"
       gradientUnits="userSpaceOnUse"
       x1="13.952166"
       y1="269.19727"
       x2="799.99414"
       y2="269.19727"
       gradientTransform="matrix(0.21031468,0,0,0.21031468,-192.90405,749.56862)" /><linearGradient
       inkscape:collect="always"
       xlink:href="#linearGradient8853"
       id="linearGradient3550"
       gradientUnits="userSpaceOnUse"
       x1="13.952166"
       y1="269.19727"
       x2="799.99414"
       y2="269.19727"
       gradientTransform="matrix(0.21031468,0,0,0.21031468,-192.90405,749.56862)" /><linearGradient
       inkscape:collect="always"
       xlink:href="#linearGradient4676"
       id="linearGradient4688"
       gradientUnits="userSpaceOnUse"
       x1="54.885998"
       y1="231.83614"
       x2="432.63083"
       y2="366.36066"
       gradientTransform="matrix(0.21031468,0,0,0.21031468,-192.90405,749.56859)" /><linearGradient
       inkscape:collect="always"
       xlink:href="#linearGradient4676"
       id="linearGradient4690"
       gradientUnits="userSpaceOnUse"
       x1="54.885998"
       y1="231.83614"
       x2="432.63083"
       y2="366.36066"
       gradientTransform="matrix(0.21031468,0,0,0.21031468,-192.90405,749.56859)" /><linearGradient
       inkscape:collect="always"
       xlink:href="#linearGradient4676"
       id="linearGradient4692"
       gradientUnits="userSpaceOnUse"
       x1="54.885998"
       y1="231.83614"
       x2="432.63083"
       y2="366.36066"
       gradientTransform="matrix(0.21031468,0,0,0.21031468,-192.90405,749.56859)" /><linearGradient
       inkscape:collect="always"
       xlink:href="#linearGradient4676"
       id="linearGradient4694"
       gradientUnits="userSpaceOnUse"
       x1="54.885998"
       y1="231.83614"
       x2="432.63083"
       y2="366.36066"
       gradientTransform="matrix(0.21031468,0,0,0.21031468,-192.90405,749.56859)" /><linearGradient
       inkscape:collect="always"
       xlink:href="#linearGradient4676"
       id="linearGradient4696"
       gradientUnits="userSpaceOnUse"
       x1="54.885998"
       y1="231.83614"
       x2="432.63083"
       y2="366.36066"
       gradientTransform="matrix(0.21031468,0,0,0.21031468,-192.90405,749.56859)" /><linearGradient
       inkscape:collect="always"
       xlink:href="#linearGradient4676"
       id="linearGradient4698"
       gradientUnits="userSpaceOnUse"
       x1="54.885998"
       y1="231.83614"
       x2="432.63083"
       y2="366.36066"
       gradientTransform="matrix(0.21031468,0,0,0.21031468,-192.90405,749.56859)" /><linearGradient
       inkscape:collect="always"
       xlink:href="#linearGradient4676"
       id="linearGradient4700"
       gradientUnits="userSpaceOnUse"
       x1="54.885998"
       y1="231.83614"
       x2="432.63083"
       y2="366.36066"
       gradientTransform="matrix(0.21031468,0,0,0.21031468,-192.90405,749.56859)" /><linearGradient
       inkscape:collect="always"
       xlink:href="#linearGradient4676"
       id="linearGradient4702"
       gradientUnits="userSpaceOnUse"
       x1="54.885998"
       y1="231.83614"
       x2="432.63083"
       y2="366.36066"
       gradientTransform="matrix(0.21031468,0,0,0.21031468,-192.90405,749.56859)" /><linearGradient
       inkscape:collect="always"
       xlink:href="#linearGradient4676"
       id="linearGradient4704"
       gradientUnits="userSpaceOnUse"
       x1="54.885998"
       y1="231.83614"
       x2="432.63083"
       y2="366.36066"
       gradientTransform="matrix(0.21031468,0,0,0.21031468,-192.90405,749.56859)" /><linearGradient
       inkscape:collect="always"
       xlink:href="#linearGradient4676"
       id="linearGradient4706"
       gradientUnits="userSpaceOnUse"
       x1="54.885998"
       y1="231.83614"
       x2="432.63083"
       y2="366.36066"
       gradientTransform="matrix(0.21031468,0,0,0.21031468,-192.90405,749.56859)" /><linearGradient
       inkscape:collect="always"
       xlink:href="#linearGradient4676"
       id="linearGradient4708"
       gradientUnits="userSpaceOnUse"
       x1="54.885998"
       y1="231.83614"
       x2="432.63083"
       y2="366.36066"
       gradientTransform="matrix(0.21031468,0,0,0.21031468,-192.90405,749.56859)" /><linearGradient
       inkscape:collect="always"
       xlink:href="#linearGradient4676"
       id="linearGradient4710"
       gradientUnits="userSpaceOnUse"
       x1="54.885998"
       y1="231.83614"
       x2="432.63083"
       y2="366.36066"
       gradientTransform="matrix(0.21031468,0,0,0.21031468,-192.90405,749.56859)" /><linearGradient
       inkscape:collect="always"
       xlink:href="#linearGradient4676"
       id="linearGradient4712"
       gradientUnits="userSpaceOnUse"
       x1="54.885998"
       y1="231.83614"
       x2="432.63083"
       y2="366.36066"
       gradientTransform="matrix(0.21031468,0,0,0.21031468,-192.90405,749.56862)" /><linearGradient
       inkscape:collect="always"
       xlink:href="#linearGradient4676"
       id="linearGradient4714"
       gradientUnits="userSpaceOnUse"
       x1="54.885998"
       y1="231.83614"
       x2="432.63083"
       y2="366.36066"
       gradientTransform="matrix(0.21031468,0,0,0.21031468,-192.90405,749.56859)" /><linearGradient
       inkscape:collect="always"
       xlink:href="#linearGradient4676"
       id="linearGradient4716"
       gradientUnits="userSpaceOnUse"
       x1="54.885998"
       y1="231.83614"
       x2="432.63083"
       y2="366.36066"
       gradientTransform="matrix(0.21031468,0,0,0.21031468,-192.90405,749.56862)" /><linearGradient
       inkscape:collect="always"
       xlink:href="#linearGradient4676"
       id="linearGradient4718"
       gradientUnits="userSpaceOnUse"
       x1="54.885998"
       y1="231.83614"
       x2="432.63083"
       y2="366.36066"
       gradientTransform="matrix(0.21031468,0,0,0.21031468,-192.90405,749.56862)" /><linearGradient
       inkscape:collect="always"
       xlink:href="#linearGradient4676"
       id="linearGradient4720"
       gradientUnits="userSpaceOnUse"
       x1="54.885998"
       y1="231.83614"
       x2="432.63083"
       y2="366.36066"
       gradientTransform="matrix(0.21031468,0,0,0.21031468,-192.90405,749.56862)" /><linearGradient
       inkscape:collect="always"
       xlink:href="#linearGradient4676"
       id="linearGradient4722"
       gradientUnits="userSpaceOnUse"
       x1="54.885998"
       y1="231.83614"
       x2="432.63083"
       y2="366.36066"
       gradientTransform="matrix(0.21031468,0,0,0.21031468,-192.90405,749.56862)" /></defs><g
     id="g22357"
     transform="matrix(2.7680684,0,0,2.7680684,998.81674,-1896.6886)"><path
       d="m -360.67821,694.52257 279.6725,-9.04375 c 4.48375,0 9.03875,5.38625 9.03875,9.57 l -5.08625,60.83375 c 0,4.18 -4.555,7.5725 -10.175,7.5725 l -256.69,-3.0025 c -5.62,0 -10.79875,-3.1925 -10.6675,-8.0675 l -6.0925,-57.8625 z"
       style="fill:#ffffff;stroke:#000000;stroke-width:0.28375;stroke-linecap:butt;stroke-linejoin:miter;stroke-miterlimit:10;stroke-dasharray:none;stroke-opacity:1"
       id="path7651"
       inkscape:connector-curvature="0" /><path
       d="m -219.14034,700.01944 0,52.4375"
       style="fill:none;stroke:#000000;stroke-width:0.28375;stroke-linecap:butt;stroke-linejoin:miter;stroke-miterlimit:10;stroke-dasharray:none;stroke-opacity:1"
       id="path7655"
       inkscape:connector-curvature="0" /></g><g
     id="g22692"
     transform="matrix(1.5143785,0,0,1.5143785,755.98637,-1104.963)"><g
       id="g22650"><path
         style="fill:url(#linearGradient9427);fill-opacity:1;stroke:none;stroke-width:0.01;stroke-linecap:round;stroke-linejoin:round;stroke-miterlimit:4;stroke-dasharray:none;stroke-opacity:1"
         d="m -192.81641,774.76758 0,51.11523 168.156254,0 0,-51.11523 -168.156254,0 z"
         transform="translate(0,-3.0517578e-5)"
         id="rect9425"
         inkscape:connector-curvature="0" /><g
         id="g22643"><path
           id="path10016"
           d="m -81.192861,774.76609 c -0.485391,1.02179 -0.828579,2.24563 -0.009,2.82775 1.505422,1.11148 15.428832,7.57627 17.562098,9.10103 2.138543,1.50718 11.303251,7.22817 14.683414,7.64322 3.373129,0.41153 9.781674,-0.0737 14.531842,3.92902 4.431847,3.72838 7.159381,6.18702 9.771005,6.23098 l 0,-29.732 -56.539322,0 z"
           style="fill:url(#linearGradient3526);fill-opacity:1;fill-rule:evenodd"
           inkscape:connector-curvature="0" /><path
           id="path10014"
           transform="translate(0,-3.0517578e-5)"
           d="m -70.75,808.82812 c -1.714701,0 -3.483012,0.36277 -5.078125,1.01172 -5.096625,2.06644 -8.962891,8.75196 -8.962891,8.75196 -1.579284,-4.6851 -5.575932,-5.17017 -8.470703,-4.27149 -2.766486,0.85006 -5.510108,5.29539 -7.677731,11.5625 l 17.812497,0 c 9.778114,-9.11748 14.736328,-6.05273 14.736328,-6.05273 0.687641,5.9232 6.890413,1.4439 5.722656,-4.89258 -0.807228,-4.35447 -4.3132,-6.10761 -8.082031,-6.10938 z"
           style="fill:url(#linearGradient3528);fill-opacity:1;fill-rule:evenodd"
           inkscape:connector-curvature="0" /><path
           id="path9954"
           transform="translate(0,-3.0517578e-5)"
           d="m -44.652344,816.32422 c -1.704151,0 -3.539721,0.69859 -4.99414,1.57617 -2.966875,1.7956 -8.619887,6.47599 -6.683594,7.6543 1.927503,1.166 3.921875,-1.72852 3.921875,-1.72852 0.820818,0.48504 1.38254,1.20206 1.753906,2.05664 l 12.087891,0 c -0.25994,-2.52735 -1.022983,-5.02342 -1.783203,-6.74023 -0.912751,-2.06996 -2.538788,-2.8166 -4.302735,-2.81836 z"
           style="fill:url(#linearGradient10010);fill-opacity:1;fill-rule:evenodd"
           inkscape:connector-curvature="0" /><path
           id="path9488"
           transform="translate(0,-3.0517578e-5)"
           d="m -173.57812,774.76562 c -0.4467,1.38584 -0.95483,2.8947 -1.09376,2.94922 -0.27436,0.0897 -5.23992,0.55023 -7.07421,6.51563 -1.83781,5.97244 2.10546,8.77734 2.10547,8.77734 -1.41749,4.54616 0.14212,8.95406 0.27929,9.05078 0.051,0.0334 -0.29624,-0.138 -0.78515,-0.30859 -0.84768,-0.29546 -2.12889,-0.59061 -2.57032,0.16211 -0.67884,1.19941 0.73633,1.93945 0.73633,1.93945 l -4.13281,13.58985 c -3.76003,0.27435 -4.9603,5.23673 -1.47461,7.625 0.46945,0.20847 0.99193,0.4913 1.54101,0.8164 l 70.91211,0 c -2.35817,-4.83345 -3.55273,-8.94336 -3.55273,-8.94336 0.45902,0.55046 4.27446,5.78522 9,6.05078 4.73434,0.2849 7.94946,-2.14526 11.855469,-8.66992 3.907765,-6.52291 2.806839,-11.34558 0,-14.01172 -2.803319,-2.66439 -7.339849,-2.89257 -7.339849,-2.89257 10.552021,-7.302 7.842113,-15.93978 5.601568,-18.875 -1.512448,-1.95915 -4.882078,-3.63821 -8.779298,-3.7754 l -0.89062,0 c -1.6936,0.0563 -3.46907,0.39788 -5.22071,1.15235 -6.1483,2.66614 -7.34179,10.06445 -7.34179,10.06445 -4.04846,-7.81377 -10.51506,-6.1606 -14.06055,-4.82226 -3.5314,1.3278 -8.72612,5.37093 -9.64063,10.10351 -3.04074,11.62305 8.67969,12.95117 8.67969,12.95117 -5.38153,1.0939 -15.30266,2.01993 -22.2793,0.41602 -6.79726,-1.5617 -14.72295,-8.56485 -15.30859,-8.93945 8.71948,4.33161 18.20335,-0.66998 19.35352,-10.17383 0.76854,-6.44201 -4.47351,-9.46284 -7.94336,-10.75196 l -10.57617,0 z"
           style="fill:url(#linearGradient9492);fill-opacity:1"
           inkscape:connector-curvature="0" /></g><g
         id="g22594"><path
           inkscape:connector-curvature="0"
           id="path9939"
           d="m -65.982426,774.76568 0,4.2e-4 0,0.002 c 0.0809,0.0721 0.181146,0.12811 0.293701,0.13514 0.06155,0.009 6.375191,0.64207 11.399711,2.99165 5.319975,2.47269 6.289324,2.45669 9.957908,2.38986 3.869073,-0.0809 9.151985,0.61555 11.251836,2.04359 1.113237,0.74567 2.884173,2.81226 4.600633,4.7978 1.415729,1.62501 2.757585,3.17419 3.825099,4.14673 l 0,-1.5334 c -0.898679,-0.91803 -1.950499,-2.13335 -2.979322,-3.33628 -1.860671,-2.14031 -3.598247,-4.15726 -4.831076,-4.99087 -2.585243,-1.75164 -8.520678,-2.29339 -11.888529,-2.23007 -3.550756,0.0633 -4.393226,0.0808 -9.47402,-2.2917 -2.075232,-0.9655 -4.319191,-1.64614 -6.288901,-2.1245 l -5.86704,0 z"
           style="fill:url(#linearGradient3530);fill-opacity:1;fill-rule:nonzero;stroke:none" /><path
           inkscape:connector-curvature="0"
           id="path9937"
           d="m -79.54526,777.24756 c -0.27787,0 -0.420139,0.1036 -0.515105,0.37092 -0.02286,0.0967 -0.01401,0.16368 -0.007,0.23579 1.95564,1.25569 5.763049,3.13376 9.820299,5.09643 0.138936,-0.0404 0.270887,-0.12843 0.342994,-0.2744 0.153004,-0.27611 0.04041,-0.61001 -0.21812,-0.74719 -0.18466,-0.0897 -2.887908,-1.49833 -5.341252,-2.7382 1.366486,0.25149 2.982807,0.48712 4.692234,0.60671 5.332287,0.38339 10.622393,1.58981 16.174513,3.6879 1.062237,0.40626 1.837911,0.72105 2.479825,0.98133 2.423447,0.98838 2.623776,1.06929 6.870964,1.11853 5.07552,0.0721 9.581188,0.43612 13.313083,4.31926 1.364728,1.40166 2.571509,2.80307 3.63902,4.05349 1.438592,1.67952 2.599119,3.02837 3.640251,3.83208 l 0,-1.46645 c -0.817782,-0.78085 -1.769172,-1.88178 -2.794475,-3.0812 -1.085099,-1.25569 -2.303829,-2.6748 -3.687899,-4.10812 -4.029114,-4.18211 -8.766898,-4.57987 -14.100943,-4.65198 -4.036147,-0.0475 -4.125861,-0.0897 -6.468409,-1.0376 -0.631363,-0.25853 -1.433259,-0.58394 -2.500772,-0.98668 -5.650604,-2.1403 -11.037518,-3.37293 -16.485878,-3.7528 -3.33092,-0.24445 -6.301564,-0.92322 -7.740156,-1.25737 -0.51529,-0.11959 -0.866976,-0.20045 -1.11319,-0.20045 z"
           style="fill:url(#linearGradient3532);fill-opacity:1;fill-rule:nonzero;stroke:none" /><path
           inkscape:connector-curvature="0"
           id="path9935"
           d="m -72.394561,810.56724 c -1.783289,0 -3.845984,0.54852 -5.759417,1.50876 -0.137175,0.0633 -0.195401,0.22852 -0.128571,0.36394 0.06331,0.13893 0.235626,0.18679 0.369283,0.13227 1.915193,-0.95848 3.988904,-1.5005 5.696571,-1.45126 1.347141,0.0387 3.130237,0.43644 3.990226,2.14587 1.224034,2.44103 0.742323,4.82025 0.510177,5.66617 -2.317926,-1.21699 -7.826301,-0.269 -11.371779,2.04893 -2.12799,1.39287 -4.016632,2.17213 -5.233631,2.09123 -0.151245,-0.0106 -0.298989,0.11441 -0.306024,0.26742 0,0.153 0.146088,0.27235 0.292057,0.28466 l 0.135144,0 c 1.345383,0 3.257306,-0.77397 5.415193,-2.19146 3.482163,-2.27396 9.173245,-3.22892 11.062058,-1.86244 l 0.279735,0.21114 0.140484,-0.33232 c 0.051,-0.13014 1.190712,-3.18487 -0.432541,-6.42609 -0.775574,-1.55467 -2.314461,-2.4077 -4.461795,-2.45518 -0.06507,-0.002 -0.13034,-0.002 -0.19717,-0.002 z"
           style="fill:url(#linearGradient3534);fill-opacity:1;fill-rule:nonzero;stroke:none" /><path
           id="path9933"
           transform="translate(0,-3.0517578e-5)"
           d="m -90.560547,815.41992 c -1.690082,0 -3.334152,0.53784 -3.794922,1.05664 -0.835672,0.90436 -3.872506,5.00576 -5.888671,9.40625 l 0.605468,0 c 2.104722,-4.51559 5.210081,-8.51405 5.683594,-9.0332 0.436151,-0.47836 2.746936,-1.14257 4.626953,-0.77149 1.150169,0.22511 1.896719,0.78103 2.216797,1.64454 0.051,0.13893 0.203638,0.21155 0.349609,0.16406 0.145969,-0.058 0.21995,-0.21302 0.160157,-0.35547 -0.378114,-1.04114 -1.293688,-1.72448 -2.625,-1.98828 -0.432632,-0.0844 -0.885525,-0.12305 -1.333985,-0.12305 z"
           style="fill:url(#linearGradient3536);fill-opacity:1;fill-rule:nonzero;stroke:none"
           inkscape:connector-curvature="0" /><path
           id="path9931"
           transform="translate(0,-3.0517578e-5)"
           d="m -45.431641,819.76367 c -0.941747,0.0233 -1.81143,0.2442 -2.478515,0.57813 -2.926428,1.46145 -4.11931,3.11929 -4.173828,3.1914 l -0.08008,0.11328 -0.113282,0.16407 0.324219,0.1289 c 0.218075,0.0897 0.394827,0.2099 0.591797,0.3418 0.550217,0.37431 0.964308,0.93517 1.298828,1.60156 l 0.625,0 c -0.454158,-1.00834 -1.07494,-1.82701 -1.984375,-2.28906 0.455495,-0.5188 1.638032,-1.69557 3.751953,-2.75781 1.436834,-0.72105 3.828418,-0.79377 5.632813,0.45312 1.032497,0.71086 2.162899,2.07279 2.445312,4.59375 l 0.548828,0 c -0.286378,-2.76035 -1.527322,-4.25802 -2.677734,-5.04687 -1.171274,-0.80525 -2.500122,-1.10219 -3.710938,-1.07227 z"
           style="fill:url(#linearGradient3538);fill-opacity:1;fill-rule:nonzero;stroke:none"
           inkscape:connector-curvature="0" /><path
           id="path9929"
           transform="translate(0,-3.0517578e-5)"
           d="m -97.306641,822.78516 c -0.109038,0 -0.205627,0.038 -0.28125,0.11718 -0.191181,0.20289 -0.261277,0.65645 0.582032,2.98047 l 0.595703,0 c -0.596332,-1.60512 -0.778112,-2.30511 -0.8125,-2.50195 0.627242,0.29174 2.43028,1.44287 4.060547,2.50195 l 1.013671,0 c -1.571619,-1.03379 -4.354117,-2.85185 -5.017578,-3.07812 -0.04749,-0.0141 -0.0949,-0.0195 -0.140625,-0.0195 z"
           style="fill:url(#linearGradient3540);fill-opacity:1;fill-rule:nonzero;stroke:none"
           inkscape:connector-curvature="0" /><path
           id="path1312"
           transform="translate(0,-3.0517578e-5)"
           d="m -85.037109,825.74609 c -0.131874,0 -0.284558,0.0454 -0.464844,0.13672 l 0.802734,0 c -0.04509,-0.0413 -0.09264,-0.08 -0.132812,-0.0957 -0.06331,-0.0264 -0.129455,-0.041 -0.205078,-0.041 z"
           style="fill:url(#linearGradient9917);fill-opacity:1;fill-rule:nonzero;stroke:none"
           inkscape:connector-curvature="0" /></g><g
         id="g22621"><path
           inkscape:connector-curvature="0"
           id="path10040"
           d="m -174.0472,774.76609 -0.9304,2.78749 c -0.96375,0.17059 -5.55907,1.22581 -6.9449,6.52469 -1.52301,5.78602 1.13257,8.32201 2.01894,8.99382 -0.26204,0.98838 -1.31361,5.46034 -0.0579,8.436 l -1.59708,-0.39721 c -0.31656,-0.12838 -1.02876,-0.14604 -1.45084,0.68229 -0.26908,0.54343 -0.3076,1.09399 -0.12118,1.55477 0.12135,0.29193 0.39724,0.6717 0.99694,0.93902 l -4.05184,12.67474 c 0.0387,-0.007 0.0719,-0.023 0.12118,-0.023 0.0739,0 0.24261,0.0159 0.44486,0.0493 l 4.11017,-12.85425 c 0,-0.0158 -0.009,-0.0246 -0.009,-0.0316 0,-0.0405 0.0334,-0.0649 0.0563,-0.0965 l 0.0156,-0.0579 -0.26741,-0.09 c -0.46956,-0.153 -0.77022,-0.39566 -0.90739,-0.71926 -0.12839,-0.31656 -0.0879,-0.70505 0.10557,-1.10251 0.27611,-0.55222 0.68932,-0.43966 0.79484,-0.40625 l 2.81912,0.70694 -0.30767,-0.55208 c -1.71646,-3.03194 -0.13701,-8.68997 -0.12118,-8.74449 l 0.0563,-0.19306 -0.16185,-0.11625 c -0.5997,-0.3957 -3.48419,-2.67339 -1.95239,-8.51569 1.38231,-5.31645 6.02898,-6.06194 6.59,-6.13404 0.13541,-0.23566 0.26526,-0.41495 0.4042,-0.54509 l 0.93039,-2.76983 -0.5837,0 z"
           style="fill:url(#linearGradient3542);fill-opacity:1;stroke:none" /><path
           transform="translate(0,-3.0517578e-5)"
           id="path10038"
           d="m -164.12891,774.76562 c 3.53317,0.96376 6.23425,2.76971 7.69922,5.22657 1.37,2.30913 1.56475,5.09856 0.56055,8.05664 -1.3278,3.89721 -4.10083,6.90266 -7.60938,8.24805 -3.49272,1.33834 -7.34384,0.90709 -11.16015,-1.24024 l -0.32227,0.44727 c 0.0897,0.0897 9.13275,8.61384 18.07032,9.85547 8.13912,1.12378 20.11938,-0.34104 20.42187,-1.11133 l 0.0644,-0.23438 -0.17968,-0.125 c -0.0862,-0.0545 -0.2002,-0.0871 -0.61524,-0.16797 -6.48949,-1.3999 -9.30084,-5.04776 -8.36523,-10.84961 0.96551,-5.9021 7.11,-11.61463 13.43945,-12.45703 4.49867,-0.6085 8.04435,1.45044 10.01758,5.77149 l 0.3789,0.82422 0.14454,-0.89063 c 0.009,-0.0791 1.28153,-7.45645 7.13086,-9.85352 4.06955,-1.6549 8.76054,-1.58035 11.98242,0.20118 2.509616,1.41221 4.057159,3.73029 4.591794,6.89062 1.468491,8.66145 -7.342544,13.72596 -7.437504,13.77344 l -0.79297,0.44726 0.90626,0.0664 c 0.0616,0.007 6.336348,0.54106 8.689448,4.85156 1.595115,2.91763 1.053251,6.89916 -1.609375,11.83399 -3.135703,5.80888 -6.861413,8.62844 -11.101563,8.37695 -4.82228,-0.30777 -8.58075,-4.5711 -9.20508,-6.15039 l -0.51758,0.17969 c 0.0924,0.34432 1.26142,4.44543 3.48829,9.14648 l 0.66796,0 c -1.4014,-2.90768 -2.42512,-5.61624 -3.01367,-7.34765 1.63557,1.98378 4.73838,4.48075 8.55469,4.71289 3.07416,0.19873 7.57205,-1.16471 11.615234,-8.66016 2.745284,-5.10542 3.288322,-9.25259 1.603516,-12.34961 -2.01016,-3.68793 -6.53172,-4.75865 -8.35547,-5.04883 2.09106,-1.40869 8.342423,-6.32989 7.058595,-13.92383 -0.557498,-3.29574 -2.241481,-5.80866 -4.884765,-7.27539 -1.06223,-0.59268 -2.30072,-0.9819 -3.60742,-1.22461 l -5.33985,0 c -1.19237,0.21105 -2.3598,0.52752 -3.49414,0.98829 -4.96825,2.03478 -6.77474,7.45545 -7.29882,9.49023 -2.13327,-4.07659 -5.75426,-5.98056 -10.24415,-5.38086 -6.54753,0.88462 -12.91807,6.79018 -13.9082,12.91211 -0.67708,4.15397 0.25054,9.46234 8.3457,11.38281 -2.79629,0.55925 -11.72123,1.66924 -19.05664,0.65625 -6.58622,-0.91451 -13.25871,-5.8906 -16.19921,-8.3457 4.13112,1.73404 7.51747,1.18948 9.7246,0.3418 3.67034,-1.39639 6.56261,-4.53221 7.94141,-8.58594 1.05872,-3.11813 0.85033,-6.06932 -0.60937,-8.51563 -1.29614,-2.17372 -3.50055,-3.8653 -6.38477,-4.94336 l -1.78516,0 z"
           style="fill:url(#linearGradient3544);fill-opacity:1;stroke:none"
           inkscape:connector-curvature="0" /><path
           inkscape:connector-curvature="0"
           id="path10036"
           d="m -81.590488,774.76609 c -0.444944,0.87582 -0.696402,1.85513 -0.0879,2.5287 1.102686,1.2469 6.15002,3.72657 13.719335,7.37581 2.729454,1.31196 5.332237,2.93168 7.850652,4.51273 4.029112,2.51841 7.83851,4.91035 11.385747,5.42915 1.232827,0.17587 2.416362,0.28324 3.550703,0.37997 4.101218,0.35701 7.627379,0.66474 11.874564,4.37553 4.357985,3.81807 6.427928,5.3303 8.643852,5.46572 l 0,-0.55044 c -2.06292,-0.15652 -4.06262,-1.64246 -8.279909,-5.32688 -4.379088,-3.8339 -8.168779,-4.1682 -12.190856,-4.51642 -1.134341,-0.095 -2.300677,-0.19166 -3.526469,-0.36928 -3.425889,-0.50474 -7.183842,-2.8612 -11.179539,-5.35851 -2.52369,-1.57928 -5.130145,-3.21656 -7.885981,-4.54436 -0.852954,-0.40625 -1.69539,-0.81086 -2.530758,-1.21711 -0.126624,0.0317 -0.263966,0.0248 -0.397625,-0.0403 -0.06155,-0.0317 -6.480691,-3.38048 -8.587576,-4.32665 -0.451978,-0.21104 -0.808718,-0.3901 -0.835098,-0.72952 -0.564533,-0.36405 -0.988359,-0.68248 -1.206435,-0.92342 -0.437908,-0.48715 -0.141011,-1.36105 0.323277,-2.16476 l -0.639981,0 z"
           style="fill:url(#linearGradient3546);fill-opacity:1;stroke:none" /><path
           transform="translate(0,-3.0517578e-5)"
           id="path10034"
           d="m -70.703125,808.54297 c -1.224033,0 -2.516546,0.18165 -3.832031,0.55273 -4.964724,1.3999 -9.057437,6.64498 -10.230469,8.92774 -0.675329,-1.87123 -2.569249,-4.52735 -5.951172,-4.52735 -4.088907,0 -6.352308,2.51043 -10.033203,11.18946 -0.17824,0.41977 -0.30998,0.79745 -0.4668,1.19726 l 0.59375,0 c 0.13196,-0.33253 0.23785,-0.64013 0.38477,-0.98633 3.928867,-9.28754 6.120217,-10.85156 9.521483,-10.85156 3.510305,0 5.267212,3.16209 5.617188,4.80469 -0.01758,0.0598 -0.01758,0.10584 0,0.14453 l 0.07422,0.28516 0.558594,0 -0.04883,-0.31641 c -0.007,-0.0475 -0.0164,-0.0884 -0.02344,-0.12891 0.330629,-1.17303 4.544919,-7.62578 10.162109,-9.20507 3.566581,-1.01299 6.977664,-0.56452 9.125,1.18359 1.772739,1.45091 2.592295,3.70331 2.367187,6.51367 -0.270835,3.5912 -1.842062,4.59654 -2.498046,4.86914 -0.722811,0.29194 -1.484906,0.18987 -2.001954,-0.26562 -0.51705,-0.46253 -0.681549,-1.19882 -0.46875,-2.02539 l 0.06445,-0.20313 -0.177735,-0.10351 c -0.22489,-0.14312 -5.619603,-3.20258 -15.628906,6.28515 l 0.791015,0 c 8.44331,-7.79261 13.407407,-6.31264 14.375,-5.89843 -0.195211,0.94967 0.05009,1.80011 0.679688,2.35937 0.675331,0.59267 1.65424,0.72908 2.572266,0.36328 0.750951,-0.30777 2.550634,-1.44166 2.849609,-5.33008 0.23742,-3.00732 -0.663517,-5.42208 -2.583984,-6.99609 -1.480799,-1.20997 -3.517056,-1.83789 -5.791016,-1.83789 z"
           style="fill:url(#linearGradient3548);fill-opacity:1;stroke:none"
           inkscape:connector-curvature="0" /><path
           transform="translate(0,-3.0517578e-5)"
           id="path10032"
           d="m -44.650391,816.01953 c -2.692522,0 -5.625718,1.71414 -6.957031,2.76758 -1.579285,1.2469 -5.613063,4.84587 -5.257812,6.49023 0.04353,0.19917 0.158791,0.43692 0.453125,0.60547 l 2.15039,0 c 0.981087,-0.40577 1.658235,-1.25683 1.953125,-1.67383 0.609371,0.40334 1.041393,0.98625 1.351563,1.67383 l 0.597656,0 c -0.244078,-0.60818 -0.564545,-1.15713 -1.001953,-1.60156 -0.200489,-0.1319 -0.373722,-0.25211 -0.591797,-0.3418 l -0.324219,-0.12695 0.115235,-0.16602 c -0.03341,-0.0141 -0.07401,-0.0404 -0.107422,-0.0527 l -0.251953,-0.14063 -0.119141,0.23438 c -0.01935,0.0264 -1.318379,2.28441 -3.279297,1.80078 -0.313042,-0.0792 -0.378499,-0.22827 -0.410156,-0.33203 -0.212798,-0.99013 2.444035,-3.87575 5.064453,-5.93164 1.4808,-1.17831 5.032831,-3.21695 7.802734,-2.51172 1.264483,0.3148 2.19815,1.16847 2.789063,2.5332 0.761185,1.75903 1.600119,4.16109 1.859375,6.63672 l 0.552734,0 c -0.261041,-2.5626 -1.118575,-5.04117 -1.902343,-6.85547 -0.663019,-1.5318 -1.725869,-2.49084 -3.150391,-2.84961 -0.432632,-0.10728 -0.882201,-0.1582 -1.335938,-0.1582 z"
           style="fill:url(#linearGradient3550);fill-opacity:1;stroke:none"
           inkscape:connector-curvature="0" /><path
           transform="translate(0,-3.0517578e-5)"
           id="path8287"
           d="m -186.55859,817.24609 c -0.8512,0.11255 -2.56961,0.60929 -3.2168,2.78125 -0.65972,2.2048 0.36167,4.12915 3.11328,5.85547 l 1.0918,0 c -3.14195,-1.72888 -4.32691,-3.54216 -3.67774,-5.69531 0.56805,-1.88002 2.00063,-2.306 2.73047,-2.40625 -0.0563,-0.0915 -0.0996,-0.17866 -0.0996,-0.29297 0,-0.0915 0.0252,-0.17009 0.0586,-0.24219 z"
           style="fill:url(#linearGradient8851);fill-opacity:1;stroke:none"
           inkscape:connector-curvature="0" /></g><g
         id="g22550"><path
           inkscape:connector-curvature="0"
           id="path9890"
           d="m -171.70458,774.76568 0,4.2e-4 0,0.002 c 0.0246,1.02003 0.16855,1.99065 0.1791,2.03989 0.0229,0.13893 0.13727,0.23578 0.26741,0.23578 l 0.0407,0 c 0.153,-0.0246 0.25131,-0.16194 0.23373,-0.3167 0,-0.0141 -0.13734,-0.97265 -0.16021,-1.96102 l -0.5607,0 z"
           style="fill:url(#linearGradient4688);fill-opacity:1" /><path
           inkscape:connector-curvature="0"
           id="path9888"
           d="m -164.08971,775.5979 c -0.10728,0 -0.21276,0.0687 -0.25673,0.17417 -0.0545,0.14597 0.0175,0.30742 0.16349,0.3549 0.0387,0.0246 4.70617,1.84833 5.55033,4.31926 0.87406,2.56062 0.93054,3.33117 -0.55906,4.95266 -1.11851,1.22228 -1.02879,1.9117 -0.9004,2.86842 0.0633,0.49418 0.13712,1.05325 0.0633,1.84641 -0.16179,1.92926 -0.8988,4.1191 -5.05453,5.68959 -3.81807,1.44211 -8.45219,-1.45821 -8.49967,-1.48987 -0.12311,-0.0809 -0.30059,-0.0491 -0.38325,0.0793 -0.0809,0.13014 -0.0405,0.30071 0.0826,0.38161 0.15477,0.10552 3.16737,1.99265 6.44377,1.99265 0.84064,0 1.71645,-0.12831 2.55006,-0.44487 4.4424,-1.6848 5.22848,-4.06639 5.41314,-6.15745 0.0739,-0.85296 -0.007,-1.47552 -0.0633,-1.96267 -0.13014,-0.90747 -0.18806,-1.40159 0.75459,-2.43217 1.7147,-1.86067 1.5632,-2.93322 0.67859,-5.50967 -0.93034,-2.70659 -5.6804,-4.56216 -5.88265,-4.6413 -0.0334,-0.0141 -0.0668,-0.0209 -0.10023,-0.0209 z"
           style="fill:url(#linearGradient4690);fill-opacity:1" /><path
           inkscape:connector-curvature="0"
           id="path9886"
           d="m -173.90836,777.31081 c -0.1618,0 -0.32374,0.0897 -0.48553,0.22511 l -0.16883,0.52209 -0.17376,0.0144 c -0.007,0.009 -0.0387,0.009 -0.0616,0.009 -0.0739,0.13717 -0.14766,0.2674 -0.21976,0.43624 -0.59971,1.33834 -1.79915,5.67327 -2.75587,9.15895 -0.54343,1.9363 -1.00445,3.61256 -1.18384,4.08389 -0.23566,0.65598 -0.18442,1.48256 0.12159,1.91871 0.13718,0.19697 0.33217,0.30931 0.53441,0.30931 0.46253,0 0.86876,-0.51 1.25039,-1.55641 0.97079,-2.72242 3.58794,-12.32464 3.79018,-13.47657 0.11432,-0.59971 0.0262,-1.1433 -0.20949,-1.43524 -0.12311,-0.13541 -0.26729,-0.20908 -0.43788,-0.20908 z m 0,0.55044 c 0.0739,0.0404 0.21812,0.40427 0.10557,0.99694 -0.19346,1.14313 -2.80502,10.68219 -3.77581,13.38702 -0.41505,1.16072 -0.72296,1.19247 -0.72296,1.19247 -0.0158,0 -0.0403,-0.0247 -0.0895,-0.0739 -0.17763,-0.25852 -0.23583,-0.88961 -0.0477,-1.41018 0.18817,-0.49242 0.63156,-2.0981 1.19082,-4.13112 0.90923,-3.28343 2.14734,-7.78066 2.73122,-9.0768 0.3658,-0.82833 0.60835,-0.88439 0.60835,-0.88439 z"
           style="fill:url(#linearGradient4692);fill-opacity:1" /><path
           inkscape:connector-curvature="0"
           id="path9882"
           d="m -111.39479,777.92985 c -0.17762,0 -0.36214,0.003 -0.55208,0.014 -3.19374,0.16004 -7.16476,1.91853 -8.71943,6.38379 -0.0492,0.14773 0.0245,0.29909 0.17047,0.34833 0.13718,0.051 0.29898,-0.0211 0.34998,-0.16882 1.45794,-4.20674 5.20939,-5.8669 8.22199,-6.01287 2.61162,-0.13014 3.48915,0.6492 4.36321,2.334 0.58915,1.13434 0.81586,1.22376 1.70223,1.41018 0.4766,0.10552 1.18727,0.24975 2.37261,0.71228 2.59052,1.01299 3.784597,2.798 3.538384,5.30058 -0.205764,2.20362 -1.836204,5.41166 -3.929024,6.67791 -0.12662,0.0791 -0.16875,0.24413 -0.0949,0.37955 0.0545,0.0809 0.13531,0.13021 0.23907,0.13021 0.0422,0 0.0934,-0.0174 0.1409,-0.0333 2.29858,-1.40166 3.969322,-4.7711 4.187395,-7.09607 0.186421,-1.91167 -0.339299,-4.48285 -3.883015,-5.86868 -1.2258,-0.47836 -1.96645,-0.64049 -2.45888,-0.73898 -0.75447,-0.16179 -0.82838,-0.17754 -1.32432,-1.13249 -0.88461,-1.69536 -1.86774,-2.63962 -4.3246,-2.63962 z"
           style="fill:url(#linearGradient4694);fill-opacity:1" /><path
           inkscape:connector-curvature="0"
           id="path9880"
           d="m -172.01265,781.64075 c -0.13718,0 -0.27399,0.0736 -0.27399,0.22305 0,0.55222 0.33933,1.54055 2.63263,1.99429 1.23283,0.24446 4.69207,1.93835 6.5633,2.84582 0.0985,0.058 0.19533,0.0966 0.29206,0.14583 -0.66478,0.0317 -1.57249,0.0635 -2.50283,0.10392 -1.49135,0.0563 -3.26591,0.13887 -4.93665,0.21976 -4.07659,0.20049 -4.43364,1.3293 -4.44946,1.54738 -0.0229,0.15476 0.0742,0.29918 0.22715,0.32204 l 0.0423,0 c 0.12838,0 0.24238,-0.0967 0.267,-0.23208 0,-0.009 0.30595,-0.9006 3.94464,-1.08526 1.66194,-0.0827 3.43502,-0.16349 4.92637,-0.21976 3.78817,-0.15477 3.78822,-0.15474 3.81811,-0.43788 l 0,-0.22675 -0.20949,-0.0739 c -0.0827,-0.0229 -0.61719,-0.2816 -1.17645,-0.55947 -1.88705,-0.91451 -5.40447,-2.62561 -6.69885,-2.88238 -1.37176,-0.27787 -2.19146,-0.8196 -2.19146,-1.46152 0,-0.14949 -0.13546,-0.22305 -0.27439,-0.22305 z"
           style="fill:url(#linearGradient4696);fill-opacity:1" /><path
           inkscape:connector-curvature="0"
           id="path9878"
           d="m -129.785,781.99935 c -1.27679,0 -2.61708,0.25492 -3.95367,0.78252 -4.78886,1.88881 -5.33756,5.29199 -5.33756,7.69785 0,1.33659 -0.66822,2.09992 -1.43852,2.97398 -0.81602,0.93913 -1.75669,2.00138 -1.93432,3.9623 -0.1319,1.32252 0.35669,2.6345 1.41716,3.79346 1.56346,1.72702 4.2069,2.90867 6.43514,2.90867 0.14421,0 0.27604,-0.12144 0.27604,-0.26741 0,-0.1618 -0.13183,-0.27604 -0.27604,-0.27604 -2.0594,0 -4.58842,-1.15188 -6.03053,-2.7382 -0.94792,-1.03761 -1.39292,-2.20385 -1.28037,-3.3716 0.17411,-1.7745 1.00614,-2.73109 1.80986,-3.6456 0.80898,-0.92506 1.57037,-1.79193 1.57037,-3.33956 0,-2.43048 0.56999,-5.44483 4.99128,-7.18767 3.86732,-1.51597 7.73968,-0.6648 9.87822,2.18777 0.0879,0.12134 0.2605,0.14421 0.39064,0.0563 0.11959,-0.0897 0.14573,-0.26724 0.0472,-0.38859 -1.54059,-2.05588 -3.9199,-3.14815 -6.56494,-3.14815 z"
           style="fill:url(#linearGradient4698);fill-opacity:1" /><path
           inkscape:connector-curvature="0"
           id="path9876"
           d="m -106.91533,783.10392 c -0.27435,0 -0.62798,0.3075 -1.11689,0.72254 l -0.28466,0.24441 c -0.3236,0.25677 -1.1748,1.06946 -2.15614,1.99101 -1.36824,1.2891 -3.06369,2.89488 -3.97996,3.65463 -1.04113,0.86878 -1.41031,0.85991 -1.48945,0.85111 -0.0809,-0.0879 -0.218,-0.11267 -0.33232,-0.0546 -0.12662,0.0791 -0.17943,0.23915 -0.10556,0.38161 0.0264,0.0387 0.12491,0.16904 0.34299,0.20949 0.4256,0.0809 1.06015,-0.23599 1.93596,-0.96408 0.92858,-0.76326 2.63096,-2.37574 3.99393,-3.67188 0.99013,-0.92506 1.83264,-1.7181 2.14217,-1.97663 l 0.29206,-0.2518 c 0.11255,-0.0897 0.27089,-0.22663 0.41159,-0.34094 -0.10728,0.26028 -0.31851,0.6805 -0.70365,1.34527 -1.84837,3.21661 -3.58601,7.49712 -3.61766,7.57626 -0.0211,0.11431 -0.29191,1.1522 0.0246,1.78357 0.0404,0.0897 0.14622,0.14582 0.24647,0.14582 0.0457,0 0.0861,-0.009 0.12652,-0.0247 0.13014,-0.0721 0.18641,-0.23404 0.11255,-0.37297 -0.18642,-0.37108 -0.0386,-1.1271 0.0177,-1.35924 0.0158,-0.0422 1.73202,-4.28768 3.56631,-7.47439 1.00245,-1.74108 1.06082,-2.12091 0.79526,-2.33195 -0.0686,-0.0563 -0.14092,-0.0826 -0.22182,-0.0826 z"
           style="fill:url(#linearGradient4700);fill-opacity:1" /><path
           inkscape:connector-curvature="0"
           id="path9874"
           d="m -137.55843,791.01249 c -0.26028,0 -0.2918,0.0705 -0.32697,0.14788 l -0.0969,0.21976 0.17581,0.14582 c 0.095,0.0791 0.51904,0.46096 1.10292,0.99735 1.84836,1.67601 5.28305,4.80266 6.28725,5.48503 0.64895,0.45197 0.5099,0.93928 0.28303,1.49151 -0.0967,0.2339 -0.17037,0.41135 -0.0719,0.5837 0.0334,0.0721 0.15459,0.16204 0.23373,0.17786 0.0176,0 0.0333,0.007 0.0579,0.007 0.11959,0 0.24471,-0.0984 0.25879,-0.22675 0.0264,-0.0633 0.007,-0.13895 -0.0247,-0.19347 0.0194,-0.0422 0.0386,-0.0898 0.0579,-0.13022 0.18642,-0.46956 0.59107,-1.42653 -0.48348,-2.16517 -0.96727,-0.66302 -4.38637,-3.7755 -6.2277,-5.44271 -0.18642,-0.17235 -0.35148,-0.32712 -0.50976,-0.46253 1.44211,0.27435 4.57766,1.00409 6.64586,1.5141 l 2.94071,0.82647 c 0.0686,0.007 1.57187,0.14583 2.06782,-0.83551 0.0651,-0.13717 0.009,-0.2987 -0.11954,-0.37257 -0.14069,-0.0721 -0.30416,-0.005 -0.37626,0.13022 -0.26732,0.5276 -1.17991,0.56807 -1.46481,0.54345 l -2.90908,-0.83387 c -5.25139,-1.27679 -6.92911,-1.60734 -7.50068,-1.60734 z"
           style="fill:url(#linearGradient4702);fill-opacity:1" /><path
           inkscape:connector-curvature="0"
           id="path9872"
           d="m -118.77922,792.61121 c -2.23526,0 -4.53929,0.7948 -5.86005,2.0329 -2.62218,2.50435 -3.18326,5.12114 -3.19909,6.86398 -0.0141,2.67494 1.22406,4.83805 2.29334,5.87567 1.13258,1.10269 3.02855,1.79219 4.94198,1.79219 2.55359,0 4.89612,-1.15178 6.60027,-3.22701 3.65275,-4.48637 2.4377,-9.18189 -0.39024,-11.83924 -1.33307,-1.2381 -3.12172,-1.49849 -4.38621,-1.49849 z m 0,0.55043 c 1.65667,0 3.07222,0.4782 4.00256,1.35226 2.64328,2.48852 3.77754,6.87293 0.33231,11.0867 -1.58632,1.94509 -3.7669,3.02492 -6.15869,3.02492 -1.7745,0 -3.52416,-0.6261 -4.55298,-1.63733 -0.99893,-0.96551 -2.1407,-2.97399 -2.1319,-5.4801 0.0176,-2.34958 1.06071,-4.58458 3.02163,-6.46635 1.21876,-1.12555 3.4136,-1.8801 5.48707,-1.8801 z"
           style="fill:url(#linearGradient4704);fill-opacity:1" /><path
           inkscape:connector-curvature="0"
           id="path9868"
           d="m -119.26475,794.32043 c -1.71646,0 -3.48542,0.63135 -4.50369,1.61268 -2.01016,1.97674 -2.4394,4.02736 -2.44819,5.40616 -0.0106,2.11392 0.93721,3.81453 1.75851,4.62528 0.87405,0.88285 2.33215,1.4266 3.81647,1.4266 1.95388,0 3.75823,-0.90751 5.06316,-2.54308 2.81387,-3.53492 1.87462,-7.23714 -0.29206,-9.32819 -1.02882,-0.98838 -2.40583,-1.19945 -3.3942,-1.19945 z m 0,0.55947 c 1.23986,0 2.30936,0.3659 3.00931,1.03596 1.98906,1.92222 2.84361,5.32507 0.24605,8.58388 -1.19941,1.51421 -2.84369,2.34262 -4.63226,2.34262 -1.34538,0 -2.65231,-0.48555 -3.42788,-1.2664 -0.74568,-0.73688 -1.60722,-2.29165 -1.59667,-4.22971 0.009,-1.82374 0.79663,-3.55582 2.27567,-5.01551 0.91802,-0.86703 2.56936,-1.45084 4.12578,-1.45084 z"
           style="fill:url(#linearGradient4706);fill-opacity:1" /><path
           inkscape:connector-curvature="0"
           id="path9864"
           d="m -177.52766,795.51454 c -0.0721,0 -0.1443,0.0282 -0.19882,0.0863 -0.10552,0.11256 -0.0965,0.28307 0.016,0.38859 0.0985,0.0967 10.35684,9.53031 18.7369,10.9988 3.56659,0.62257 7.44793,0.93204 11.28183,0.93204 5.37977,0 10.65577,-0.59962 14.74996,-1.77618 0.15124,-0.0387 0.23192,-0.19497 0.18443,-0.34094 -0.0334,-0.14597 -0.1847,-0.23397 -0.33067,-0.18649 -6.93795,1.98554 -17.29464,2.31942 -25.78901,0.8351 -8.2253,-1.44211 -18.35505,-10.76821 -18.45881,-10.85791 -0.0528,-0.0528 -0.12325,-0.0793 -0.19183,-0.0793 z"
           style="fill:url(#linearGradient4708);fill-opacity:1" /><path
           inkscape:connector-curvature="0"
           id="path9862"
           d="m -103.66162,798.33202 c -0.11079,0 -0.21986,0.0722 -0.26207,0.18648 -0.0475,0.13542 0.0247,0.29909 0.16185,0.34834 0.0246,0.0176 2.45488,0.90728 4.721806,3.17772 2.043573,2.04885 1.380754,4.17145 0.603424,6.62656 l -0.18649,0.6104 c -0.7404,2.38827 -2.58546,3.54922 -3.58439,4.17179 l -0.2251,0.15281 c -0.17235,0.0985 -0.33219,0.20395 -0.50278,0.30068 -0.86703,0.50474 -1.84849,1.0781 -2.56075,2.64331 -0.72809,1.56873 -1.64591,3.00722 -4.73413,3.20771 -2.89829,0.17763 -6.35059,-1.65297 -7.23696,-3.89 -0.0528,-0.13542 -0.21831,-0.20762 -0.34669,-0.15486 -0.14597,0.0598 -0.21813,0.22008 -0.16185,0.35901 0.90572,2.31793 4.31954,4.25395 7.3339,4.25395 0.15125,0 0.29725,4e-5 0.44323,-0.0193 3.3995,-0.22511 4.43351,-1.8623 5.19502,-3.53304 0.65598,-1.40869 1.5089,-1.90986 2.34426,-2.38822 0.17939,-0.10552 0.35349,-0.20943 0.51881,-0.31671 l 0.22674,-0.14417 c 1.06927,-0.66654 3.021506,-1.89586 3.823459,-4.4811 l 0.184848,-0.60836 c 0.79492,-2.51313 1.544122,-4.89441 -0.743906,-7.18068 -2.349581,-2.35838 -4.824371,-3.26585 -4.926371,-3.3063 -0.0281,-0.0105 -0.0577,-0.016 -0.0859,-0.016 z"
           style="fill:url(#linearGradient4710);fill-opacity:1" /><path
           id="path9860"
           transform="translate(0,-3.0517578e-5)"
           d="m -178.55273,801.92188 c -0.14069,0 -0.26132,0.0919 -0.27539,0.23437 -0.0246,0.15301 0.0884,0.291 0.23437,0.30859 5.276,0.69643 6.4764,0.98225 11.20898,3.34766 2.78749,1.40166 6.71124,2.4044 10.49415,3.39453 2.8121,0.7193 5.46016,1.40919 7.44921,2.19531 2.98974,1.19238 12.10618,4.81602 19.07227,10.42969 1.35836,1.09647 2.9946,2.51637 4.7168,4.05078 l 0.82812,0 c -1.8959,-1.69773 -3.71052,-3.28264 -5.19531,-4.47851 -7.03116,-5.67171 -16.20732,-9.31935 -19.23047,-10.51172 -2.0084,-0.80196 -4.67401,-1.49085 -7.50195,-2.2207 -3.753,-0.97079 -7.64809,-1.9845 -10.38282,-3.34571 -4.82052,-2.41649 -6.02785,-2.69888 -11.38476,-3.40234 -0.0123,-0.002 -0.0226,-0.002 -0.0332,-0.002 z"
           style="fill:url(#linearGradient4712);fill-opacity:1"
           inkscape:connector-curvature="0" /><path
           inkscape:connector-curvature="0"
           id="path9858"
           d="m -110.34486,803.29495 c -0.0809,0 -0.16184,0.0372 -0.21812,0.10228 -0.33063,0.41329 -0.0454,1.56312 0.11461,2.10479 0.0316,0.0598 3.27281,5.27616 4.98224,7.47274 0.37635,0.47836 0.57672,0.77186 0.68927,0.96532 -0.11255,-0.0492 -0.20732,-0.0808 -0.26536,-0.0895 -0.25149,-0.0897 -2.61171,-1.4102 -4.49876,-2.47243 -1.69887,-0.95321 -3.29571,-1.85374 -3.85673,-2.12985 -1.12906,-0.56805 -1.9768,-0.0652 -2.2617,0.27604 -0.0985,0.12134 -0.081,0.29022 0.0333,0.38694 0.11959,0.0985 0.29227,0.088 0.389,-0.0316 0.0229,-0.0246 0.56773,-0.64732 1.59831,-0.13555 0.53288,0.26556 2.13678,1.16415 3.8251,2.11383 3.36082,1.88881 4.43889,2.47823 4.64993,2.52747 0.0457,0.009 0.11462,0.0315 0.19552,0.0649 0.17059,0.0721 0.34973,0.14583 0.50977,0.14583 0.11959,0 0.2253,-0.0385 0.30972,-0.14583 0.17763,-0.2339 0.0931,-0.56813 -0.88644,-1.82382 -1.69008,-2.16317 -4.90145,-7.34253 -4.912,-7.34253 -0.18466,-0.66478 -0.27278,-1.39981 -0.18485,-1.53875 0.0915,-0.1231 0.0723,-0.29186 -0.0403,-0.38859 -0.0492,-0.0404 -0.11096,-0.0616 -0.17252,-0.0616 z"
           style="fill:url(#linearGradient4714);fill-opacity:1" /><path
           id="path9856"
           transform="translate(0,-3.0517578e-5)"
           d="m -181.23633,803.85156 c -0.10377,0 -0.17888,0.0681 -0.22461,0.1543 l -0.0488,0.12695 c 0.007,0.13718 0.0982,0.25136 0.24415,0.26367 0.0791,0.005 7.95758,0.70362 10.82421,2.50977 3.11285,1.95213 7.60822,3.21121 11.58985,4.23828 4.14694,1.07103 17.89882,5.54327 23.11328,9.73242 1.43882,1.15348 3.58459,3.00153 5.87695,5.00586 l 0.83594,0 c -2.487,-2.18131 -4.83079,-4.20562 -6.375,-5.44336 -5.27249,-4.2384 -19.13038,-8.75182 -23.3125,-9.82812 -3.93942,-1.01476 -8.38953,-2.26431 -11.43555,-4.17774 -2.9827,-1.87122 -10.74476,-2.55917 -11.06836,-2.58203 l -0.0195,0 z"
           style="fill:url(#linearGradient4716);fill-opacity:1"
           inkscape:connector-curvature="0" /><path
           id="path9854"
           transform="translate(0,-3.0517578e-5)"
           d="m -120.95312,814.32227 c -0.0193,0 -0.0395,0.004 -0.0606,0.01 -0.14421,0.0299 -0.2463,0.17434 -0.21289,0.32031 0.0205,0.0944 1.18656,5.37971 3.61328,11.23047 l 0.59766,0 c -2.46315,-5.87782 -3.64763,-11.25285 -3.66602,-11.34375 -0.0334,-0.13015 -0.14837,-0.21679 -0.27148,-0.21679 z"
           style="fill:url(#linearGradient4718);fill-opacity:1"
           inkscape:connector-curvature="0" /><path
           id="path9852"
           transform="translate(0,-3.0517578e-5)"
           d="m -185.61914,816.98828 -0.25,0.78516 -0.21094,-0.01 c -0.0229,-0.009 -0.1948,-0.0141 -0.4375,0.0176 0.0967,0.153 0.25791,0.25781 0.45313,0.25781 0.81954,0 10.24322,1.96868 16.92968,6.11914 0.89517,0.55257 2.0046,1.13265 3.20313,1.72461 l 2.55469,0 c -2.02537,-0.93193 -3.82637,-1.82807 -5.17578,-2.66211 -6.40859,-3.97466 -14.9437,-5.92465 -17.06641,-6.23242 z"
           style="fill:url(#linearGradient4720);fill-opacity:1"
           inkscape:connector-curvature="0" /><path
           id="path9711"
           transform="translate(0,-3.0517578e-5)"
           d="m -186.77539,823.18555 c -0.33766,0 -0.57026,0.0539 -0.67578,0.16992 l -0.27344,0.42383 0.23242,0.35547 c 0.19055,0.27703 1.06148,0.96248 2.1211,1.74804 l 1.88281,0 c -0.72224,-0.51703 -1.52506,-1.08313 -2.01563,-1.45508 1.14486,0.25667 2.89852,0.76612 4.90821,1.45508 l 3.17968,0 c -3.89252,-1.51647 -7.77813,-2.69726 -9.35937,-2.69726 z"
           style="fill:url(#linearGradient4722);fill-opacity:1"
           inkscape:connector-curvature="0" /></g></g></g><g
     id="g20154"
     transform="matrix(2.7680684,0,0,2.7680684,998.81674,-1896.6886)"><path
       inkscape:connector-curvature="0"
       id="path7637"
       style="fill:#1c205c;fill-opacity:1;fill-rule:nonzero;stroke:none"
       d="m -329.43221,717.92369 c 0.0888,-0.32375 0.22625,-0.35124 0.3475,-0.35124 0.0675,0 0.22125,0 0.31625,0.35249 l 2.74125,9.90875 -6.145,0 2.74,-9.91 z m 3.77625,-0.83875 c -0.6175,-2.22125 -2.41375,-2.5525 -3.42875,-2.5525 -1.0225,0 -2.8325,0.33625 -3.46,2.58125 l -5.7575,20.275 c -0.0612,0.12375 -0.0612,0.26375 -0.0612,0.3475 0,0.44875 0.3525,0.78625 0.8175,0.78625 l 1.8425,0 c 0.375,0 0.74375,-0.3 0.83875,-0.6775 l 1.94,-6.97125 7.65125,0 1.96875,6.96375 c 0.1025,0.41 0.42625,0.685 0.80875,0.685 l 1.84125,0 c 0.48125,0 0.81875,-0.3225 0.81875,-0.78625 0,-0.0825 0,-0.22375 -0.0437,-0.29625 l -5.77625,-20.355 z" /><path
       inkscape:connector-curvature="0"
       id="path7639"
       style="fill:#1c205c;fill-opacity:1;fill-rule:nonzero;stroke:none"
       d="m -304.63771,735.60794 -6.025,0 c -3.24875,0 -3.55375,-0.8125 -3.55375,-2.96 l 0,-16.985 c 0,-0.5025 -0.40876,-0.91125 -0.91125,-0.91125 l -1.59126,0 c -0.50374,0 -0.9125,0.40875 -0.9125,0.91125 l 0,16.985 c 0,5.37 3.50625,6.09375 6.93751,6.09375 2.77749,0 5.2325,-0.14625 6.135,-0.28625 0.345,-0.0562 0.55125,-0.41 0.55125,-0.71875 l 0,-1.46625 c 0,-0.39 -0.25876,-0.6625 -0.63001,-0.6625" /><path
       inkscape:connector-curvature="0"
       id="path7641"
       style="fill:#1c205c;fill-opacity:1;fill-rule:nonzero;stroke:none"
       d="m -293.40684,725.59507 -2.87,-1.71625 c -2.2575,-1.36625 -3.265,-2.20125 -3.265,-3.5325 0,-2.00375 1.085,-2.68 4.3025,-2.68 1.805,0 3.9875,0.0937 5.37125,0.18625 l 0.0612,0 c 0.48125,0 0.8175,-0.3225 0.8175,-0.785 l 0,-1.3425 c 0,-0.1975 -0.0737,-0.675 -0.77375,-0.81375 -1.1525,-0.1825 -3.575,-0.37875 -5.47625,-0.37875 -6.405,0 -7.74875,3.16125 -7.74875,5.81375 0,2.8025 1.7775,4.45875 4.44625,6.0825 l 3.0275,1.84125 c 2.86875,1.76625 3.61,2.57625 3.61,3.94 0,1.68 -0.52875,3.3975 -4.46,3.3975 -1.48125,0 -3.71875,-0.0625 -5.15,-0.1875 l -0.0937,0 c -0.4825,0 -0.81875,0.32375 -0.81875,0.7875 l 0,1.2475 c 0,0.5225 0.21,0.73625 0.835,0.845 1.43875,0.23125 3.06875,0.4425 5.2275,0.4425 6.96,0 7.99875,-4.0925 7.99875,-6.5325 0,-2.63625 -1.365,-4.42875 -5.04125,-6.615" /><path
       inkscape:connector-curvature="0"
       id="path7643"
       style="fill:#1c205c;fill-opacity:1;fill-rule:nonzero;stroke:none"
       d="m -278.07121,717.92319 c 0.0875,-0.32375 0.22625,-0.35125 0.3475,-0.35125 0.0675,0 0.22125,0 0.31625,0.3525 l 2.74125,9.91 -6.14625,0 2.74125,-9.91125 z m 3.77625,-0.83875 c -0.61875,-2.22 -2.41375,-2.5525 -3.42875,-2.5525 -1.02375,0 -2.83375,0.33626 -3.46125,2.58125 l -5.75625,20.27625 c -0.0612,0.1225 -0.0612,0.26375 -0.0612,0.3475 0,0.44875 0.3525,0.785 0.8175,0.785 l 1.8425,0 c 0.375,0 0.745,-0.3 0.8375,-0.6775 l 1.94125,-6.97125 7.65125,0 1.9675,6.96375 c 0.10375,0.41625 0.4225,0.685 0.81,0.685 l 1.84125,0 c 0.48125,0 0.8175,-0.3225 0.8175,-0.785 0,-0.085 0,-0.225 -0.0425,-0.2975 l -5.77625,-20.355 z" /><path
       inkscape:connector-curvature="0"
       id="path7645"
       style="fill:#1c205c;fill-opacity:1;fill-rule:nonzero;stroke:none"
       d="m -253.12034,735.35782 -0.14875,0.001 c -1.445,0.12 -3.55125,0.24875 -5.1275,0.24875 -3.3675,0 -5.14625,-2.35125 -5.14625,-6.8025 l 0,-4.33875 c 0,-4.5125 1.73125,-6.8 5.14625,-6.8 1.87375,0 4.30625,0.20375 5.245,0.28 l 0.0937,0 c 0.42,0 0.66125,-0.22875 0.66125,-0.63 l 0,-1.59125 c 0,-0.22625 -0.0975,-0.61875 -0.7425,-0.69 -1.6425,-0.26125 -3.42125,-0.5025 -5.28875,-0.5025 -2.565,0 -8.53,0.96875 -8.53,9.93375 l 0,4.33875 c 0,8.9675 5.965,9.93625 8.53,9.93625 2.58625,0 3.83625,-0.145 5.23375,-0.41125 0.53875,-0.0975 0.86,-0.43625 0.86,-0.90625 l 0,-1.28 c 0,-0.5 -0.28625,-0.78625 -0.78625,-0.78625" /><path
       inkscape:connector-curvature="0"
       id="path7647"
       style="fill:#1c205c;fill-opacity:1;fill-rule:nonzero;stroke:none"
       d="m -242.41121,717.66644 6.025,0 c 0.37125,0 0.63,-0.2725 0.63,-0.66125 l 0,-1.56125 c 0,-0.30875 -0.205,-0.66125 -0.57125,-0.72125 -1.3675,-0.13125 -4.39875,-0.19 -6.115,-0.19 -4.73375,0 -6.9375,1.93625 -6.9375,6.09375 l 0,12.02125 c 0,4.15625 2.20375,6.09375 6.9375,6.09375 0.7725,0 4.69875,-0.008 6.135,-0.16 0.345,-0.0563 0.55125,-0.41125 0.55125,-0.72 l 0,-1.59125 c 0,-0.39 -0.25875,-0.6625 -0.63,-0.6625 l -6.025,0 c -3.2475,0 -3.5525,-0.8125 -3.5525,-2.96 l 0,-4.95875 9.29875,0 c 0.5,0 0.90875,-0.40875 0.90875,-0.91125 l 0,-1.18625 c 0,-0.50375 -0.40875,-0.9125 -0.90875,-0.9125 l -9.29875,0 0,-4.0525 c 0,-2.1475 0.305,-2.96 3.5525,-2.96" /></g><g
     id="g23829"><path
       inkscape:connector-curvature="0"
       id="path7711"
       style="fill:#1c205c;fill-opacity:1;fill-rule:nonzero;stroke:none"
       d="m 476.63597,53.851392 c -0.71624,4.255906 -3.2767,6.560323 -6.40116,6.560323 -2.86495,0 -4.8372,-2.110653 -5.70914,-4.096742 -0.58475,-1.345973 -0.7889,-2.013769 -0.7889,-7.491085 0,-5.470395 0.20429,-6.145112 0.7889,-7.484165 0.87194,-1.989549 2.84419,-4.100201 5.70914,-4.100201 3.45663,0 5.83717,3.041415 6.40116,6.754087 l -2.91685,0 c -0.43251,-1.757724 -1.74042,-3.297462 -3.48431,-3.297462 -1.30445,0 -2.24905,0.771599 -2.81651,1.664302 -0.71623,1.152208 -0.92038,1.795784 -0.92038,6.463439 0,4.674576 0.20401,5.318152 0.92038,6.4669 0.56746,0.899622 1.51206,1.667761 2.81651,1.667761 1.53974,0 2.71271,-1.058786 3.48431,-3.107157 l 2.91685,0 z" /><path
       inkscape:connector-curvature="0"
       id="path7713"
       style="fill:#1c205c;fill-opacity:1;fill-rule:nonzero;stroke:none"
       d="m 485.88132,48.250898 c -0.38407,-0.671256 -1.20411,-1.183349 -2.10027,-1.183349 -0.89616,0 -1.7162,0.512093 -2.10027,1.183349 -0.48442,0.865021 -0.63666,1.505137 -0.63666,3.840695 0,2.366698 0.15224,3.006814 0.63666,3.871836 0.38407,0.674716 1.20411,1.186809 2.10027,1.186809 0.89616,0 1.7162,-0.512093 2.10027,-1.186809 0.48784,-0.865022 0.64009,-1.505138 0.64009,-3.840695 0,-2.366699 -0.15225,-3.006815 -0.64009,-3.871836 m -6.04131,-2.370158 c 0.71624,-0.989585 1.91689,-2.079484 3.94104,-2.079484 2.02415,0 3.2248,1.089899 3.9445,2.079484 0.9965,1.377114 1.40479,2.723087 1.40479,6.210853 0,3.522367 -0.40832,4.86488 -1.40479,6.242022 -0.7197,0.989557 -1.92035,2.079484 -3.9445,2.079484 -2.02415,0 -3.2248,-1.089927 -3.94104,-2.079484 -0.9965,-1.377142 -1.40828,-2.719655 -1.40828,-6.242022 0,-3.487766 0.41178,-4.833739 1.40828,-6.210853" /><path
       inkscape:connector-curvature="0"
       id="path7715"
       style="fill:#1c205c;fill-opacity:1;fill-rule:nonzero;stroke:none"
       d="m 492.59145,43.993277 2.61236,0 0,1.730042 0.0518,0 c 0.81658,-1.280231 1.99301,-1.920347 3.37704,-1.920347 2.02069,0 4.32857,1.951488 4.32857,5.629559 l 0,10.788547 -2.61237,0 0,-9.667479 c 0,-2.207535 -1.10376,-3.487766 -2.56046,-3.487766 -1.48438,0 -2.58468,1.280231 -2.58468,3.487766 l 0,9.667479 -2.61237,0 0,-16.227801 z" /><path
       inkscape:connector-curvature="0"
       id="path7717"
       style="fill:#1c205c;fill-opacity:1;fill-rule:nonzero;stroke:none"
       d="m 507.44144,55.260007 c 1.12453,1.377114 2.35632,2.079512 4.10021,2.079512 1.47745,0 2.557,-0.702398 2.557,-2.079512 0,-1.152208 -0.69202,-1.505137 -1.58818,-1.598559 l -2.30442,-0.259368 c -2.14871,-0.221446 -3.74035,-1.823465 -3.74035,-4.608834 0,-3.297462 2.10027,-4.992904 4.84066,-4.992904 2.2802,0 3.81301,0.865022 5.09671,2.210995 l -1.6124,2.366698 c -1.02419,-0.896162 -2.07605,-1.505137 -3.48431,-1.505137 -1.66084,0 -2.22829,0.833881 -2.22829,1.951489 0,0.705857 0.41175,1.408254 1.7162,1.539738 l 2.15217,0.190443 c 2.68503,0.224767 3.76111,2.273276 3.76111,4.86488 0,3.169438 -2.35285,4.992903 -5.37351,4.992903 -2.10027,0 -4.04484,-0.958443 -5.70914,-2.909932 l 1.81654,-2.242135 z" /><path
       inkscape:connector-curvature="0"
       id="path7719"
       style="fill:#1c205c;fill-opacity:1;fill-rule:nonzero;stroke:none"
       d="m 527.51617,50.651173 c -0.0761,-2.463581 -1.20411,-3.778413 -2.74039,-3.778413 -1.53282,0 -2.68849,1.314832 -2.73693,3.778413 l 5.47732,0 z m -5.47732,2.688487 c 0,2.657345 1.30446,3.999859 3.09332,3.999859 0.99996,0 2.07605,-0.574375 2.84419,-1.567419 l 1.89267,2.01723 c -1.27677,1.854605 -2.94108,2.622744 -4.6815,2.622744 -2.66426,0 -5.76104,-1.598559 -5.76104,-8.255764 0,-6.304275 2.84073,-8.352646 5.34929,-8.352646 2.86495,0 5.34929,2.653886 5.34929,6.847509 l 0,2.688487 -8.08622,0 z" /><path
       inkscape:connector-curvature="0"
       id="path7721"
       style="fill:#1c205c;fill-opacity:1;fill-rule:nonzero;stroke:none"
       d="m 533.66336,43.993277 2.61236,0 0,16.227801 -2.61236,0 0,-16.227801 z m 0,-6.560322 2.61236,0 0,3.26632 -2.61236,0 0,-3.26632 z" /><path
       inkscape:connector-curvature="0"
       id="path7723"
       style="fill:#1c205c;fill-opacity:1;fill-rule:nonzero;stroke:none"
       d="m 540.44825,37.432263 2.61234,0 0,18.594499 c 0,0.736998 0.3322,1.121068 0.97228,1.121068 l 0.89271,0 0,3.072556 -1.14873,0 c -1.89615,0 -3.3286,-1.024186 -3.3286,-3.934118 l 0,-18.854005 z" /><path
       inkscape:connector-curvature="0"
       id="path7725"
       style="fill:#1c205c;fill-opacity:1;fill-rule:nonzero;stroke:none"
       d="m 557.24453,52.090901 c 0,2.529322 0.12456,5.058645 2.58469,5.058645 2.43244,0 2.56046,-2.691947 2.56046,-5.058645 0,-2.335558 -0.12816,-5.027504 -2.56046,-5.027504 -2.46013,0 -2.58469,2.532782 -2.58469,5.027504 m 5.14515,6.435759 c -0.82004,1.117608 -2.02415,1.885747 -3.35282,1.885747 -1.59164,0 -2.74039,-0.896163 -3.48431,-2.110653 -0.71624,-1.152208 -0.92038,-2.210966 -0.92038,-6.210853 0,-3.968718 0.20428,-5.027504 0.92038,-6.176253 0.74392,-1.21795 1.89267,-2.110652 3.48431,-2.110652 1.32867,0 2.37707,0.764679 3.35282,1.920348 l 0,-8.293825 2.61236,0 0,22.788123 -2.61236,0 0,-1.691982 z" /><path
       inkscape:connector-curvature="0"
       id="path7727"
       style="fill:#1c205c;fill-opacity:1;fill-rule:nonzero;stroke:none"
       d="m 573.73391,37.240574 3.42895,0 -3.63309,4.674575 -2.15217,0 2.35631,-4.674575 z m 2.35286,13.411291 c -0.0728,-2.467041 -1.20411,-3.778413 -2.73692,-3.778413 -1.53628,0 -2.68849,1.311372 -2.74039,3.778413 l 5.47731,0 z m -5.47731,2.688487 c 0,2.657345 1.30445,3.999859 3.09677,3.999859 1.00343,0 2.0726,-0.577835 2.84419,-1.567419 l 1.89267,2.01377 c -1.28023,1.858065 -2.94453,2.626204 -4.68495,2.626204 -2.66081,0 -5.75759,-1.602019 -5.75759,-8.259224 0,-6.304275 2.83727,-8.352646 5.3493,-8.352646 2.86841,0 5.34583,2.657346 5.34583,6.850969 l 0,2.688487 -8.08622,0 z" /><path
       inkscape:connector-curvature="0"
       id="path7729"
       style="fill:#1c205c;fill-opacity:1;fill-rule:nonzero;stroke:none"
       d="m 589.91327,52.123094 c 0,-2.525863 -0.12456,-5.058645 -2.58468,-5.058645 -2.43244,0 -2.56046,2.691946 -2.56046,5.058645 0,2.335557 0.12816,5.027504 2.56046,5.027504 2.46012,0 2.58468,-2.532783 2.58468,-5.027504 m -7.75751,-8.127741 2.61237,0 0,1.691982 c 0.82004,-1.117608 2.02415,-1.885747 3.35628,-1.885747 1.58818,0 2.73693,0.896162 3.48085,2.110652 0.71623,1.152209 0.92038,2.210995 0.92038,6.210854 0,3.968718 -0.20401,5.027504 -0.92038,6.176252 -0.74392,1.21795 -1.89267,2.110652 -3.48085,2.110652 -1.33213,0 -2.384,-0.764679 -3.35628,-1.920347 l 0,4.972143 -2.61237,0 0,-19.466441 z" /><path
       inkscape:connector-curvature="0"
       id="path7731"
       style="fill:#1c205c;fill-opacity:1;fill-rule:nonzero;stroke:none"
       d="m 602.97371,53.340352 -3.12445,0 c -1.53282,0 -2.25252,0.768139 -2.25252,1.951488 0,1.086467 0.69202,2.048371 2.45666,2.048371 2.17986,0 2.92031,-0.287188 2.92031,-2.81651 l 0,-1.183349 z m 0,5.439254 -0.0518,0 c -0.53631,1.121068 -1.43593,1.63316 -3.19712,1.63316 -2.89609,0 -4.58461,-2.145253 -4.58461,-4.961762 0,-2.591604 1.43247,-4.799139 4.22476,-4.799139 l 3.60887,0 0,-1.695442 c 0,-1.536278 -0.79582,-2.082971 -2.66426,-2.082971 -1.35636,0 -1.99301,0.318328 -2.45666,1.249091 l -2.04492,-1.951488 c 0.99651,-1.730043 2.42898,-2.370159 4.37355,-2.370159 3.20058,0 5.40466,1.345973 5.40466,5.345832 l 0,11.075734 -2.61237,0 0,-1.442856 z" /><path
       inkscape:connector-curvature="0"
       id="path7733"
       style="fill:#1c205c;fill-opacity:1;fill-rule:nonzero;stroke:none"
       d="m 609.68387,43.993277 2.61237,0 0,1.730042 0.0484,0 c 0.82001,-1.280231 1.99647,-1.920347 3.3805,-1.920347 1.04841,0 1.92032,0.480952 2.71271,1.245631 l -1.89267,2.816509 c -0.61592,-0.574374 -1.04843,-0.799279 -1.7162,-0.799279 -1.28369,0 -2.53278,1.024185 -2.53278,3.394344 l 0,9.760901 -2.61237,0 0,-16.227801 z" /><path
       inkscape:connector-curvature="0"
       id="path7735"
       style="fill:#1c205c;fill-opacity:1;fill-rule:nonzero;stroke:none"
       d="m 620.51635,39.064039 2.6089,0 0,4.927162 1.89613,0 0,2.501641 -1.89613,0 0,9.439114 c 0,0.896162 0.28373,1.21449 0.92038,1.21449 l 0.97575,0 0,3.076016 -1.35982,0 c -1.81654,0 -3.14521,-1.442856 -3.14521,-4.003319 l 0,-9.726301 -1.30792,0 0,-2.501641 1.30792,0 0,-4.927162 z" /><path
       inkscape:connector-curvature="0"
       id="path7737"
       style="fill:#1c205c;fill-opacity:1;fill-rule:nonzero;stroke:none"
       d="m 635.64592,50.651173 c -0.0761,-2.463581 -1.20411,-3.778413 -2.74039,-3.778413 -1.53282,0 -2.68849,1.314832 -2.73693,3.778413 l 5.47732,0 z m -5.47732,2.688487 c 0,2.657345 1.30445,3.999859 3.09332,3.999859 0.99996,0 2.07605,-0.574375 2.84419,-1.567419 l 1.89266,2.01723 c -1.27677,1.854605 -2.94107,2.622744 -4.68149,2.622744 -2.66427,0 -5.76104,-1.598559 -5.76104,-8.255764 0,-6.304275 2.84073,-8.352646 5.34929,-8.352646 2.86495,0 5.34929,2.653886 5.34929,6.847509 l 0,2.688487 -8.08622,0 z" /><path
       inkscape:connector-curvature="0"
       id="path7739"
       style="fill:#1c205c;fill-opacity:1;fill-rule:nonzero;stroke:none"
       d="m 641.86784,43.993277 2.61237,0 0,1.730042 0.0518,0 c 0.81658,-1.280231 1.99301,-1.920347 3.3805,-1.920347 1.81655,0 2.73693,0.927303 3.65731,2.110652 1.07609,-1.470536 2.32864,-2.110652 4.10021,-2.110652 2.01723,0 4.3251,1.951488 4.3251,5.629559 l 0,10.788547 -2.61236,0 0,-9.667479 c 0,-2.207535 -1.10031,-3.487766 -2.56047,-3.487766 -1.48437,0 -2.58468,1.280231 -2.58468,3.487766 l 0,9.667479 -2.61236,0 0,-9.667479 c 0,-2.207535 -1.10031,-3.487766 -2.56047,-3.487766 -1.48091,0 -2.58468,1.280231 -2.58468,3.487766 l 0,9.667479 -2.61237,0 0,-16.227801 z" /><path
       inkscape:connector-curvature="0"
       id="path7741"
       style="fill:#1c205c;fill-opacity:1;fill-rule:nonzero;stroke:none"
       d="m 671.6976,50.651173 c -0.0761,-2.463581 -1.20411,-3.778413 -2.74042,-3.778413 -1.53279,0 -2.68848,1.314832 -2.73692,3.778413 l 5.47731,0 z m -5.47732,2.688487 c 0,2.657345 1.30446,3.999859 3.09332,3.999859 1.00343,0 2.07605,-0.574375 2.84419,-1.567419 l 1.89267,2.01723 c -1.27677,1.854605 -2.94108,2.622744 -4.6815,2.622744 -2.66426,0 -5.75758,-1.598559 -5.75758,-8.255764 0,-6.304275 2.83727,-8.352646 5.34583,-8.352646 2.86841,0 5.35275,2.653886 5.35275,6.847509 l 0,2.688487 -8.08968,0 z" /><path
       inkscape:connector-curvature="0"
       id="path7743"
       style="fill:#1c205c;fill-opacity:1;fill-rule:nonzero;stroke:none"
       d="m 677.769,43.993277 2.6089,0 0,1.730042 0.052,0 c 0.82004,-1.280231 1.99301,-1.920347 3.38051,-1.920347 2.02069,0 4.3251,1.951488 4.3251,5.629559 l 0,10.788547 -2.6089,0 0,-9.667479 c 0,-2.207535 -1.10377,-3.487766 -2.56047,-3.487766 -1.48437,0 -2.58814,1.280231 -2.58814,3.487766 l 0,9.667479 -2.6089,0 0,-16.227801 z" /><path
       inkscape:connector-curvature="0"
       id="path7745"
       style="fill:#1c205c;fill-opacity:1;fill-rule:nonzero;stroke:none"
       d="m 692.38891,39.064039 2.60891,0 0,4.927162 1.89612,0 0,2.501641 -1.89612,0 0,9.439114 c 0,0.896162 0.28372,1.21449 0.92038,1.21449 l 0.97574,0 0,3.076016 -1.35981,0 c -1.81655,0 -3.14522,-1.442856 -3.14522,-4.003319 l 0,-9.726301 -1.30791,0 0,-2.501641 1.30791,0 0,-4.927162 z" /><path
       inkscape:connector-curvature="0"
       id="path7747"
       style="fill:#1c205c;fill-opacity:1;fill-rule:nonzero;stroke:none"
       d="m 706.87731,53.340352 -3.12099,0 c -1.53282,0 -2.25252,0.768139 -2.25252,1.951488 0,1.086467 0.68856,2.048371 2.45666,2.048371 2.17639,0 2.91685,-0.287188 2.91685,-2.81651 l 0,-1.183349 z m 0,5.439254 -0.0518,0 c -0.53631,1.121068 -1.43248,1.63316 -3.19712,1.63316 -2.89263,0 -4.58461,-2.145253 -4.58461,-4.961762 0,-2.591604 1.43593,-4.799139 4.22476,-4.799139 l 3.60887,0 0,-1.695442 c 0,-1.536278 -0.79236,-2.082971 -2.6608,-2.082971 -1.35636,0 -1.99301,0.318328 -2.46013,1.249091 l -2.04491,-1.951488 c 0.99997,-1.730043 2.43244,-2.370159 4.37355,-2.370159 3.20404,0 5.40466,1.345973 5.40466,5.345832 l 0,11.075734 -2.61237,0 0,-1.442856 z" /><path
       inkscape:connector-curvature="0"
       id="path7749"
       style="fill:#1c205c;fill-opacity:1;fill-rule:nonzero;stroke:none"
       d="m 713.58988,37.432263 2.6089,0 0,18.594499 c 0,0.736998 0.33563,1.121068 0.97575,1.121068 l 0.8927,0 0,3.072556 -1.14875,0 c -1.89613,0 -3.3286,-1.024186 -3.3286,-3.934118 l 0,-18.854005 z" /></g><g
     id="g23745"><path
       inkscape:connector-curvature="0"
       id="path23740"
       transform="translate(0,-7.6293945e-6)"
       d="m 619.3125,153.76367 c -0.81592,0 -1.64727,0.0152 -2.50586,0.0469 -0.86049,0.0317 -1.69271,0.0724 -2.51758,0.13672 -0.79687,0.0588 -1.54681,0.1142 -2.26367,0.17382 -0.73678,0.061 -1.38039,0.13871 -1.94336,0.24024 -0.81102,0.14482 -1.5276,0.3617 -2.15039,0.86523 l -0.006,0.006 -0.008,0.006 c -0.8317,0.68892 -0.99611,1.67257 -0.99609,2.64063 l 0,29.70117 c 0,0.56574 0.26883,1.2086 0.68554,1.62109 0.39902,0.39615 1.01786,0.67969 1.61133,0.67969 l 5.75195,0 c 0.59267,0 1.22683,-0.28872 1.61719,-0.67188 l 0.01,-0.01 0.01,-0.01 c 0.38337,-0.39106 0.66992,-0.99997 0.66992,-1.60937 l 0,-9.78906 c 0.0172,7.7e-4 0.0257,9e-4 0.043,0.002 l 0.002,0 0.002,0 c 0.6076,0.0264 1.16167,0.0488 1.67969,0.0488 l 0.0703,0 -0.39063,0.0391 5.47266,10.33203 0.002,0.002 0.0137,0.0273 c 0.12346,0.24555 0.25572,0.48586 0.41796,0.72656 0.36354,0.55994 1.12523,0.91211 1.71875,0.91211 l 6.76758,0 c 0.41308,0 0.91826,-0.0695 1.38672,-0.44531 0.27851,-0.22343 0.46284,-0.54492 0.57422,-0.86914 l 0.12305,-0.16211 0,-0.47461 0,-0.002 c 0,-0.44165 -0.12308,-0.80248 -0.29493,-1.13281 l -0.004,-0.008 -6.04492,-11.28906 c 1.25286,-0.73002 2.40148,-1.62235 3.30859,-2.82227 1.31867,-1.74015 1.92773,-3.98494 1.92773,-6.5664 l 0,-0.57422 c 0,-2.11225 -0.36766,-3.97958 -1.17773,-5.5586 l 0.002,0 c -0.77569,-1.51575 -1.8787,-2.78658 -3.27148,-3.72656 l -0.004,-0.002 c -1.36683,-0.93421 -2.96079,-1.57471 -4.73437,-1.94532 -1.73006,-0.36135 -3.58075,-0.53906 -5.55469,-0.53906 z m 0,9.25 c 1.69642,0 2.86868,0.30939 3.53906,0.73242 0.61677,0.3892 0.84375,0.7817 0.84375,1.78907 l 0,0.002 0,0.57422 c 0,0.64048 -0.0903,1.11624 -0.21289,1.42383 l -0.006,0.0137 -0.004,0.0117 c -0.10368,0.27527 -0.23617,0.44551 -0.48438,0.61523 l -0.002,0 c -0.26867,0.18435 -0.71744,0.37987 -1.36524,0.51172 l -0.004,0 -0.006,0.002 c -0.64508,0.13644 -1.52388,0.21485 -2.60742,0.21485 l -0.62305,0 c -0.26747,0 -0.56217,-0.008 -0.87695,-0.0234 l -0.008,0 -0.006,0 c -0.0764,-0.003 -0.13915,-0.007 -0.21289,-0.01 l 0,-5.77734 c 0.11,-0.005 0.20763,-0.009 0.32227,-0.0137 l 0.006,-0.002 0.008,0 c 0.33498,-0.0165 0.67458,-0.0278 1.0293,-0.0449 0.32893,-0.0139 0.57168,-0.0195 0.66992,-0.0195 z"
       style="fill:#1c205c;fill-opacity:1;fill-rule:nonzero;stroke:none" /><path
       inkscape:connector-curvature="0"
       id="path23738"
       transform="translate(0,-7.6293945e-6)"
       d="m 510.38477,153.85352 c -1.98984,0 -3.8218,0.0946 -5.49805,0.29296 l -0.002,0 -0.002,0.002 c -1.63375,0.19717 -3.03875,0.4145 -4.21484,0.66211 l -0.0215,0.006 -0.0234,0.004 c -0.56675,0.13836 -1.13873,0.41307 -1.56446,0.9043 -0.42573,0.49123 -0.625,1.15724 -0.625,1.75586 l 0,3.67383 c 0,0.32553 0.0301,0.66042 0.17969,1.0332 0.14929,0.37204 0.47952,0.79532 0.92969,1.01367 0.415,0.20248 0.86958,0.29883 1.33008,0.29883 l 0.30664,0 0.0449,-0.004 c 0.48056,-0.0317 1.06757,-0.0728 1.75781,-0.13281 l 0.002,0 0.004,0 c 0.64588,-0.059 1.36261,-0.10014 2.16406,-0.13086 0.80279,-0.0307 1.65688,-0.0588 2.55664,-0.0898 0.88484,-0.0273 1.77658,-0.041 2.67579,-0.041 0.75589,0 1.39219,0.0601 1.90039,0.16797 0.45629,0.0977 0.73776,0.2435 0.92187,0.40039 l 0.002,0.002 0.002,0.002 c 0.17488,0.14774 0.338,0.36769 0.47851,0.78711 l 0.002,0.006 0.002,0.006 c 0.13298,0.38566 0.23437,1.0204 0.23437,1.86132 l 0,1.06641 -2.16992,0 c -2.53102,0 -4.73356,0.21295 -6.62304,0.67969 -1.87983,0.46362 -3.48599,1.16542 -4.78711,2.15039 -1.29634,0.98133 -2.27624,2.24297 -2.88477,3.70508 -0.60044,1.43935 -0.88672,3.07569 -0.88672,4.8789 l 0,0.22071 c 0,2.08879 0.30263,3.88885 0.99219,5.39257 l 0.002,0.002 0,0.002 c 0.65523,1.42033 1.54679,2.60806 2.68946,3.47461 1.08542,0.83271 2.33497,1.41532 3.69335,1.73437 l 0.002,0.002 c 1.28151,0.30826 2.57523,0.45898 3.85937,0.45898 1.49632,0 2.97915,-0.26166 4.42969,-0.76172 l 0.002,-0.002 0.002,0 c 0.85199,-0.29674 1.69584,-0.78412 2.54297,-1.20898 0.13078,0.25477 0.13027,0.57274 0.32617,0.75976 l 0.002,0.004 0.004,0.004 c 0.44754,0.4216 1.12092,0.72071 1.76953,0.72071 l 4.82422,0 c 0.42816,0 0.7914,-0.26889 1.16992,-0.48047 l 1.40039,1.5 0,-3.58984 0,-20.7129 c 0,-3.98845 -1.20756,-7.25875 -3.70899,-9.39648 l -0.002,0 c -2.47242,-2.11236 -5.93269,-3.08398 -10.1914,-3.08398 z m 1.37304,21.50781 2.16992,0 0,4.70312 c -0.53659,0.26572 -1.0601,0.54016 -1.71679,0.73828 l -0.004,0 -0.002,0.002 c -0.88873,0.27299 -1.74373,0.40039 -2.57227,0.40039 -1.28148,0 -2.02254,-0.26075 -2.27343,-0.45313 l 0,-0.002 c -0.15081,-0.11741 -0.42774,-0.5521 -0.42774,-1.71484 l 0,-0.22071 c 0,-0.70517 0.0709,-1.27443 0.19531,-1.73047 l 0.002,-0.004 0,-0.002 c 0.0951,-0.35399 0.23609,-0.58285 0.51171,-0.82226 l 0.006,-0.002 0.004,-0.004 c 0.26424,-0.23315 0.67516,-0.45842 1.3125,-0.62109 l 0.004,0 0.002,-0.002 c 0.61989,-0.161 1.56335,-0.26562 2.78906,-0.26562 z"
       style="fill:#1c205c;fill-opacity:1;fill-rule:nonzero;stroke:none" /><path
       inkscape:connector-curvature="0"
       id="path23736"
       d="m 465.50195,154.1621 c -0.55314,0 -1.15567,0.23484 -1.57031,0.61523 -0.43873,0.4005 -0.72851,1.06171 -0.72852,1.64063 l 0,31.1582 c 0,0.58001 0.28333,1.22475 0.68165,1.62305 0.40534,0.4056 1.03381,0.67773 1.61718,0.67773 l 5.80274,0 c 0.58272,0 1.20917,-0.27176 1.61523,-0.67773 0.39789,-0.39795 0.68164,-1.04294 0.68164,-1.62305 l 0,-11.37695 8.10352,0 0,11.37695 c 0,0.58001 0.28137,1.22475 0.67969,1.62305 0.40561,0.40586 1.03935,0.67773 1.62109,0.67773 l 5.79883,0 c 0.58332,0 1.20763,-0.27172 1.61133,-0.66797 l 0.01,-0.01 0.01,-0.01 c 0.38205,-0.38991 0.66992,-1.01895 0.66992,-1.61328 l 0,-31.1582 c 0,-0.59601 -0.29491,-1.24564 -0.7207,-1.63867 l -0.006,-0.004 -0.006,-0.006 c -0.41152,-0.37238 -1.01346,-0.60742 -1.56836,-0.60742 l -5.79883,0 c -0.55043,0 -1.15572,0.23462 -1.57031,0.61328 -0.4398,0.40032 -0.73047,1.06283 -0.73047,1.64258 l 0,10.35937 -8.10352,0 0,-10.35937 c 0,-0.57876 -0.29035,-1.24039 -0.72851,-1.64063 -0.41412,-0.37972 -1.01548,-0.61523 -1.56836,-0.61523 l -5.80274,0 z"
       style="fill:#1c205c;fill-opacity:1;fill-rule:nonzero;stroke:none" /><path
       inkscape:connector-curvature="0"
       id="path23734"
       d="m 641.79688,154.1621 c -0.55387,0 -1.16536,0.24108 -1.57032,0.60742 l -0.004,0.006 -0.006,0.004 c -0.42637,0.3933 -0.72071,1.0425 -0.72071,1.63867 l 0,31.1582 c 0,0.59424 0.28744,1.22301 0.66993,1.61328 l 0.01,0.01 0.01,0.01 c 0.39715,0.38977 1.02959,0.66797 1.61133,0.66797 l 5.79882,0 c 0.57782,0 1.19699,-0.26572 1.61133,-0.68164 0.40136,-0.39973 0.68945,-1.04389 0.68945,-1.61914 l 0,-11.37695 8.10352,0 0,11.37695 c 0,0.57739 0.28229,1.21653 0.67773,1.61524 0.41449,0.41963 1.03826,0.68554 1.61915,0.68554 l 5.80273,0 c 0.58332,0 1.21022,-0.27812 1.60742,-0.66797 l 0.004,-0.004 0.004,-0.004 c 0.39856,-0.39803 0.68164,-1.04489 0.68164,-1.625 l 0,-31.1582 c 0,-0.5827 -0.29122,-1.24932 -0.73242,-1.64844 -0.40534,-0.36677 -1.00944,-0.60742 -1.56445,-0.60742 l -5.80273,0 c -0.54973,0 -1.14698,0.22946 -1.57032,0.62109 -0.437,0.3999 -0.72698,1.05732 -0.72698,1.63426 l 0,10.35937 -8.10352,0 0,-10.35937 c 0,-0.57653 -0.29705,-1.23817 -0.73828,-1.63867 -0.42286,-0.38792 -1.01586,-0.61719 -1.5625,-0.61719 l -5.79882,0 z"
       style="fill:#1c205c;fill-opacity:1;fill-rule:nonzero;stroke:none" /><path
       inkscape:connector-curvature="0"
       id="path23732"
       d="m 676.45508,154.1621 c -0.51444,0 -1.16874,0.17076 -1.625,0.65234 -0.45626,0.48159 -0.58594,1.09915 -0.58594,1.60352 l 0,31.1582 c 0,0.50834 0.20116,1.1044 0.55274,1.52539 0.39472,0.47346 1.07979,0.77539 1.6582,0.77539 l 5.92969,0 c 0.58005,0 1.24786,-0.29259 1.64062,-0.71875 l 0.01,-0.0117 0.008,-0.01 c 0.34925,-0.39471 0.59767,-0.99387 0.59765,-1.56055 l 0,-31.1582 c 0,-0.51904 -0.15385,-1.16117 -0.62695,-1.63281 -0.47309,-0.47165 -1.11304,-0.62305 -1.6289,-0.62305 l -5.92969,0 z"
       style="fill:#1c205c;fill-opacity:1;fill-rule:nonzero;stroke:none" /><path
       inkscape:connector-curvature="0"
       id="path23730"
       d="m 693.58203,154.1621 c -0.79661,0 -1.62716,0.33224 -2.19726,0.90234 -0.56886,0.56911 -0.89844,1.39843 -0.89844,2.19532 l 0,30.32031 c 0,0.59601 0.27688,1.21216 0.66601,1.60937 l 0.0156,0.0156 0.0156,0.0137 c 0.38194,0.36723 0.99615,0.66211 1.60352,0.66211 l 5.22461,0 c 0.61144,0 1.21598,-0.2878 1.60742,-0.67188 l 0.004,-0.004 0.004,-0.004 c 0.39286,-0.39258 0.68555,-1.01169 0.68555,-1.62109 l 0,-13.7207 8.07422,13.94921 0.004,0.008 c 0.43161,0.72356 0.9038,1.33441 1.69336,1.6914 0.56818,0.26061 1.18804,0.37305 1.82227,0.37305 l 4.33984,0 c 0.79771,0 1.62217,-0.32925 2.19727,-0.88086 l 0.006,-0.006 1.03711,-0.99414 -0.4336,-0.43359 c 0.0838,-0.28153 0.33204,-0.49713 0.33204,-0.78516 l 0,-30.36328 c 0,-0.56416 -0.28204,-1.23451 -0.73633,-1.64258 -0.40662,-0.36815 -1.00084,-0.61328 -1.5625,-0.61328 l -5.22461,0 c -0.5659,0 -1.15058,0.23962 -1.5625,0.61328 -0.45448,0.40814 -0.73438,1.07858 -0.73438,1.64258 l 0,14.4707 -8.42187,-14.63867 -0.006,-0.006 c -0.31388,-0.55345 -0.63981,-1.02947 -1.11524,-1.42383 l -0.002,-0.002 -0.004,-0.002 c -0.55876,-0.45849 -1.28184,-0.6543 -1.95898,-0.6543 l -4.47461,0 z"
       style="fill:#1c205c;fill-opacity:1;fill-rule:nonzero;stroke:none" /><path
       inkscape:connector-curvature="0"
       id="path23728"
       d="m 530.83398,154.16405 c -0.56825,0 -1.16178,0.24835 -1.55664,0.59766 l -0.0117,0.01 -0.0117,0.01 c -0.41899,0.3865 -0.72071,1.0386 -0.72071,1.63477 l 0,19.69921 c 0,2.66109 0.34442,4.92276 1.09961,6.79297 l 0,0.002 c 0.73569,1.81239 1.77857,3.3197 3.1211,4.44726 l 0.002,0.002 0.004,0.002 c 1.32009,1.09809 2.87952,1.86973 4.61914,2.29687 1.66977,0.41338 3.44366,0.61914 5.32031,0.61914 1.8715,0 3.64704,-0.20504 5.31836,-0.61914 1.73488,-0.4272 3.29684,-1.19689 4.61523,-2.29687 l 0,-0.002 0.002,0 c 1.34589,-1.12701 2.38853,-2.63171 3.14062,-4.4375 l 0.002,0 0,-0.002 c 0.77742,-1.87611 1.125,-4.14231 1.125,-6.80469 l 0,-19.69921 c 0,-0.62432 -0.34346,-1.29422 -0.7832,-1.66993 l -0.01,-0.01 -0.0117,-0.008 c -0.3966,-0.32588 -0.97433,-0.56446 -1.54102,-0.56446 l -5.75195,0 c -0.5669,0 -1.16568,0.24833 -1.56055,0.59766 l -0.01,0.01 -0.01,0.01 c -0.42675,0.39303 -0.7207,1.05303 -0.7207,1.63477 l 0,19.69921 c 0,1.04063 -0.084,1.91105 -0.22852,2.5918 0,0 -0.002,0.002 -0.002,0.002 -0.1463,0.65666 -0.36211,1.12139 -0.60156,1.43164 l -0.002,0 -0.002,0.002 c -0.23185,0.30241 -0.5192,0.52087 -0.96875,0.68945 l -0.002,0 c -0.44111,0.16637 -1.11874,0.28711 -1.99805,0.28711 -0.88692,0 -1.55529,-0.11815 -2.00586,-0.28711 l -0.002,-0.002 c -0.44687,-0.16671 -0.72428,-0.37721 -0.97071,-0.69141 -0.23334,-0.30644 -0.4421,-0.75422 -0.56836,-1.39648 l 0,-0.004 0,-0.002 c -0.13811,-0.6869 -0.21875,-1.56988 -0.21875,-2.6211 l 0,-19.69921 c 0,-0.59316 -0.30686,-1.24871 -0.73242,-1.63672 -0.41415,-0.37888 -1.00089,-0.61524 -1.56836,-0.61524 l -5.79883,0 z"
       style="fill:#1c205c;fill-opacity:1;fill-rule:nonzero;stroke:none" /><path
       inkscape:connector-curvature="0"
       id="path23726"
       d="m 562.92383,154.16405 c -0.55267,0 -1.17283,0.24184 -1.58008,0.61719 l -0.004,0.004 -0.006,0.006 c -0.39689,0.37309 -0.71484,1.00116 -0.71484,1.625 l 0,4.56054 c 0,0.62159 0.31859,1.25613 0.71484,1.62891 l 0.01,0.0117 0.0117,0.01 c 0.39761,0.35873 1.00167,0.60547 1.56836,0.60547 l 5.79883,0 0,24.3418 c 0,0.59155 0.28277,1.21652 0.67773,1.61523 0.40758,0.41272 1.02955,0.68946 1.62305,0.68946 l 5.79883,0 c 0.59337,0 1.2263,-0.28724 1.61914,-0.67969 l 0.002,-0.002 c 0.39783,-0.39862 0.67969,-1.02959 0.67969,-1.62305 l 0,-24.3418 5.7539,0 c 0.56826,0 1.13987,-0.23138 1.54297,-0.5625 l 0.01,-0.01 0.01,-0.008 c 0.43336,-0.37007 0.78711,-1.04113 0.78711,-1.67578 l 0,-4.56054 c 0,-0.6382 -0.35379,-1.2997 -0.78711,-1.66993 l -0.004,-0.004 -0.004,-0.004 c -0.41415,-0.348 -1.00102,-0.57422 -1.55469,-0.57422 l -21.95312,0 z"
       style="fill:#1c205c;fill-opacity:1;fill-rule:nonzero;stroke:none" /><path
       inkscape:connector-curvature="0"
       id="path23722"
       d="m 591.78125,170.98046 c -0.56826,0 -1.1618,0.24841 -1.55664,0.59765 l -0.0176,0.0137 -0.0156,0.0156 c -0.42285,0.39775 -0.70899,1.04554 -0.70899,1.62891 l 0,3.54297 c 0,0.58273 0.31019,1.27159 0.76563,1.65625 l 0.0117,0.01 0.0117,0.01 c 0.39912,0.32238 0.96934,0.53515 1.50977,0.53515 l 8.5918,0 c 0.54161,0 1.10545,-0.20491 1.51562,-0.54296 l 0,-0.002 0.002,0 c 0.46506,-0.38466 0.7793,-1.08428 0.7793,-1.66601 l 0,-3.54297 c 0,-0.58328 -0.29109,-1.2403 -0.72265,-1.63867 l -0.006,-0.004 -0.006,-0.006 c -0.40498,-0.36537 -0.99283,-0.60742 -1.5625,-0.60742 l -8.5918,0 z"
       style="fill:#1c205c;fill-opacity:1;fill-rule:nonzero;stroke:none" /><path
       inkscape:connector-curvature="0"
       id="path7657"
       d="m 523.49023,188.88866 -0.008,0.008 c 0.001,-0.001 4.6e-4,-0.004 0.002,-0.006 9.9e-4,-0.001 0.004,-5.2e-4 0.006,-0.002 z"
       style="fill:#1c205c;fill-opacity:1;fill-rule:nonzero;stroke:none" /></g></svg>