<?xml version="1.0" encoding="UTF-8" standalone="no"?>
<!-- Created with Inkscape (http://www.inkscape.org/) -->
<svg
   xmlns:dc="http://purl.org/dc/elements/1.1/"
   xmlns:cc="http://creativecommons.org/ns#"
   xmlns:rdf="http://www.w3.org/1999/02/22-rdf-syntax-ns#"
   xmlns:svg="http://www.w3.org/2000/svg"
   xmlns="http://www.w3.org/2000/svg"
   xmlns:xlink="http://www.w3.org/1999/xlink"
   xmlns:sodipodi="http://sodipodi.sourceforge.net/DTD/sodipodi-0.dtd"
   xmlns:inkscape="http://www.inkscape.org/namespaces/inkscape"
   width="795.07971"
   height="930.38666"
   id="svg3728"
   sodipodi:version="0.32"
   inkscape:version="0.45+devel+devel"
   version="1.0"
   sodipodi:docname="Logo Conseil Général Réunion.svg"
   inkscape:output_extension="org.inkscape.output.svg.inkscape">
  <defs
     id="defs3730">
    <linearGradient
       id="linearGradient2893">
      <stop
         id="stop2895"
         offset="0"
         style="stop-color:white;stop-opacity:0.3137255;" />
      <stop
         style="stop-color:white;stop-opacity:0.25098041;"
         offset="0.19"
         id="stop2897" />
      <stop
         id="stop2901"
         offset="0.60000002"
         style="stop-color:#777777;stop-opacity:0.1254902;" />
      <stop
         id="stop2899"
         offset="1"
         style="stop-color:#7d7d7d;stop-opacity:0.3137255;" />
    </linearGradient>
    <radialGradient
       inkscape:collect="always"
       xlink:href="#linearGradient2893"
       id="radialGradient2659"
       gradientUnits="userSpaceOnUse"
       gradientTransform="matrix(-1.6351752,3.4088405,-3.0725599,-0.3816018,1300.854,-7457.4847)"
       cx="1738.7417"
       cy="245.99004"
       fx="1738.7417"
       fy="245.99004"
       r="300" />
    <radialGradient
       inkscape:collect="always"
       xlink:href="#linearGradient2893"
       id="radialGradient2680"
       gradientUnits="userSpaceOnUse"
       gradientTransform="matrix(-1.6351752,3.4088405,-3.0725599,-0.3816018,1300.854,-7457.4847)"
       cx="1738.7417"
       cy="245.99004"
       fx="1738.7417"
       fy="245.99004"
       r="300" />
    <radialGradient
       inkscape:collect="always"
       xlink:href="#linearGradient2893"
       id="radialGradient2736"
       gradientUnits="userSpaceOnUse"
       gradientTransform="matrix(-1.6351752,3.4088405,-3.0725599,-0.3816018,1300.854,-7457.4847)"
       cx="1738.7417"
       cy="245.99004"
       fx="1738.7417"
       fy="245.99004"
       r="300" />
    <radialGradient
       inkscape:collect="always"
       xlink:href="#linearGradient2893"
       id="radialGradient2762"
       gradientUnits="userSpaceOnUse"
       gradientTransform="matrix(-1.6351752,3.4088405,-3.0725599,-0.3816018,1300.854,-7457.4847)"
       cx="1738.7417"
       cy="245.99004"
       fx="1738.7417"
       fy="245.99004"
       r="300" />
    <radialGradient
       inkscape:collect="always"
       xlink:href="#linearGradient2893"
       id="radialGradient2853"
       gradientUnits="userSpaceOnUse"
       gradientTransform="matrix(-1.6351752,3.4088405,-3.0725599,-0.3816018,1300.854,-7457.4847)"
       cx="1738.7417"
       cy="245.99004"
       fx="1738.7417"
       fy="245.99004"
       r="300" />
    <radialGradient
       inkscape:collect="always"
       xlink:href="#linearGradient2893"
       id="radialGradient2865"
       gradientUnits="userSpaceOnUse"
       gradientTransform="matrix(-1.6351752,3.4088405,-3.0725599,-0.3816018,1300.854,-7457.4847)"
       cx="1738.7417"
       cy="245.99004"
       fx="1738.7417"
       fy="245.99004"
       r="300" />
    <radialGradient
       inkscape:collect="always"
       xlink:href="#linearGradient2893"
       id="radialGradient2869"
       gradientUnits="userSpaceOnUse"
       gradientTransform="matrix(-1.6351752,3.4088405,-3.0725599,-0.3816018,1300.854,-7457.4847)"
       cx="1738.7417"
       cy="245.99004"
       fx="1738.7417"
       fy="245.99004"
       r="300" />
    <radialGradient
       inkscape:collect="always"
       xlink:href="#linearGradient2893"
       id="radialGradient2890"
       gradientUnits="userSpaceOnUse"
       gradientTransform="matrix(-1.6351752,3.4088405,-3.0725599,-0.3816018,1300.854,-7457.4847)"
       cx="1738.7417"
       cy="245.99004"
       fx="1738.7417"
       fy="245.99004"
       r="300" />
    <radialGradient
       inkscape:collect="always"
       xlink:href="#linearGradient2893"
       id="radialGradient2978"
       gradientUnits="userSpaceOnUse"
       gradientTransform="matrix(-9.2129962,19.194737,-17.31159,-2.1487501,5228.6405,-45519.802)"
       cx="2088.751"
       cy="-674.10529"
       fx="2088.751"
       fy="-674.10529"
       r="300" />
    <radialGradient
       inkscape:collect="always"
       xlink:href="#linearGradient2893"
       id="radialGradient2980"
       gradientUnits="userSpaceOnUse"
       gradientTransform="matrix(-0.1925489,1.219232,-2.0001785,-0.3109974,-2644.0509,-6853.0678)"
       cx="2957.4807"
       cy="-975.3045"
       fx="2957.4807"
       fy="-975.3045"
       r="300" />
    <radialGradient
       inkscape:collect="always"
       xlink:href="#linearGradient2893"
       id="radialGradient2982"
       gradientUnits="userSpaceOnUse"
       gradientTransform="matrix(-0.5107393,1.9277953,-2.5213376,-0.6546359,-4152.7863,-8843.6207)"
       cx="2494.4573"
       cy="-1425.7432"
       fx="2494.4573"
       fy="-1425.7432"
       r="300" />
    <radialGradient
       inkscape:collect="always"
       xlink:href="#linearGradient2893"
       id="radialGradient2984"
       gradientUnits="userSpaceOnUse"
       gradientTransform="matrix(-1.0581539,1.8077007,-2.1555701,-1.2474229,-1661.8479,-8710.6293)"
       cx="2263.4163"
       cy="-1125.8722"
       fx="2263.4163"
       fy="-1125.8722"
       r="300" />
    <radialGradient
       inkscape:collect="always"
       xlink:href="#linearGradient2893"
       id="radialGradient2986"
       gradientUnits="userSpaceOnUse"
       gradientTransform="matrix(-0.7871304,2.3908921,-2.1615841,-0.6985939,-2000.3398,-9444.3214)"
       cx="2460.635"
       cy="-985.93243"
       fx="2460.635"
       fy="-985.93243"
       r="300" />
  </defs>
  <sodipodi:namedview
     id="base"
     pagecolor="#ffffff"
     bordercolor="#666666"
     borderopacity="1.0"
     inkscape:pageopacity="0.0"
     inkscape:pageshadow="2"
     inkscape:zoom="0.24748738"
     inkscape:cx="56.570816"
     inkscape:cy="984.56819"
     inkscape:document-units="px"
     inkscape:current-layer="layer1"
     showgrid="false"
     inkscape:window-width="1280"
     inkscape:window-height="971"
     inkscape:window-x="22"
     inkscape:window-y="-5"
     showguides="true"
     inkscape:guide-bbox="true" />
  <metadata
     id="metadata3733">
    <rdf:RDF>
      <cc:Work
         rdf:about="">
        <dc:format>image/svg+xml</dc:format>
        <dc:type
           rdf:resource="http://purl.org/dc/dcmitype/StillImage" />
        <dc:title>Logo du Conseil Général de la Réunion</dc:title>
        <dc:date>2008 FEB 22</dc:date>
        <dc:creator>
          <cc:Agent>
            <dc:title>Jean-Bernard FRANCOIS (infofiltrage)</dc:title>
          </cc:Agent>
        </dc:creator>
        <dc:rights>
          <cc:Agent>
            <dc:title>Fair Use</dc:title>
          </cc:Agent>
        </dc:rights>
        <dc:publisher>
          <cc:Agent>
            <dc:title>Conseil Général de la Réunion</dc:title>
          </cc:Agent>
        </dc:publisher>
        <dc:source />
        <dc:language>fr</dc:language>
        <dc:subject>
          <rdf:Bag>
            <rdf:li>Logo Conseil Général de la Réunion</rdf:li>
          </rdf:Bag>
        </dc:subject>
        <dc:description>Logo du Conseil Général de la Réunion</dc:description>
        <dc:contributor>
          <cc:Agent>
            <dc:title />
          </cc:Agent>
        </dc:contributor>
      </cc:Work>
    </rdf:RDF>
  </metadata>
  <g
     inkscape:label="Calque 1"
     inkscape:groupmode="layer"
     id="layer1"
     transform="translate(2125.6521,2719.3861)">
    <rect
       style="fill:#ffffff;fill-opacity:1;fill-rule:evenodd;stroke:#000000;stroke-width:2;stroke-linecap:round;stroke-linejoin:round;stroke-miterlimit:4;stroke-dasharray:none;stroke-dashoffset:0;stroke-opacity:1"
       id="rect12745"
       width="2"
       height="0"
       x="-1485.7712"
       y="-3673.4324" />
    <path
       id="path6371"
       d=""
       style="fill:#e20909;fill-opacity:1;fill-rule:evenodd;stroke:#000000;stroke-width:4.76190472;stroke-linecap:butt;stroke-linejoin:miter;marker:none;marker-start:none;marker-mid:none;marker-end:none;stroke-miterlimit:4;stroke-dasharray:none;stroke-dashoffset:0;stroke-opacity:1;visibility:visible;display:inline;overflow:visible;enable-background:accumulate" />
    <g
       id="g2924"
       transform="matrix(0.697179,0,0,0.697179,192.96541,-567.13761)">
      <g
         transform="matrix(5.6342563,0,0,5.6308698,-3326.4289,-3087.0755)"
         style="fill-rule:nonzero;stroke:#000000;stroke-width:0.25465351;stroke-miterlimit:4"
         id="g2411">
				<path
   style="fill:#00a0c6;stroke:none"
   d="M 45.003,0.854 C 46.024,1.686 47.276,1.718 48.329,1.341 C 49.804,0.974 51.594,0.239 52.758,1.222 C 53.922,2.204 59.171,1.445 59.682,1.088 C 62.036,-0.56 66.939,0.716 67.762,1.018 C 69.407,1.621 71.342,0.527 73.134,1.088 C 75.265,1.753 76.905,0.689 79.57,1.234 C 79.561,1.638 78.614,2.125 78.553,2.765 C 78.43,3.972 78.903,4.648 77.861,5.913 C 76.639,6.911 76.771,7.776 76.959,8.919 C 77.114,9.857 76.712,10.807 75.626,11.307 C 75.019,11.941 73.962,11.982 73.415,12.527 C 72.867,13.074 69.345,12.909 67.189,15.045 C 66.055,16.168 63.751,15.705 61.632,17.375 C 60.487,18.276 59.85,17.909 58.947,17.956 C 56.127,18.1 53.231,20.805 52.794,21.437 C 52.358,22.064 50.851,22.613 49.842,22.572 C 48.828,22.531 47.495,24.047 45.585,25.211 C 45.369,25.408 44.338,24.813 44.119,25.211 C 44.378,24.016 43.911,22.486 44.144,21.748 C 44.375,21.008 43.323,16.9 44.387,15.776 C 45.343,14.769 44.019,13.07 44.252,11.992 C 44.488,10.912 43.611,10.109 44.603,7.91 C 44.892,7.269 44.332,5.494 44.495,4.41 C 44.661,3.326 44.987,1.461 44.581,1.047 C 44.79,1.053 45.004,0.855 45.004,0.855 L 45.003,0.854 z"
   id="path2413" />

				<path
   style="fill:#095ba6;stroke:none"
   d="M 99.693,61.361 C 100.86,61.614 102.626,62.391 103.034,63.294 C 103.446,64.197 104.425,64.528 105.807,65.185 C 106.987,65.742 109.42,67.806 110.203,68.539 C 110.986,69.269 110.439,69.624 111.205,70.456 C 111.969,71.292 111.992,71.646 113.141,72.094 C 114.291,72.541 115.237,73.164 115.537,73.971 C 116.889,77.633 118.674,76.965 119.195,77.883 C 119.494,78.416 120.986,80.166 122.357,80.652 C 123.748,81.143 124.199,82.308 124.449,82.962 C 125.047,84.524 126.742,86.134 128.002,86.485 C 129.268,86.837 129.996,89.788 132.008,90.691 C 133.404,91.317 134.99,93.545 135.203,94.308 C 135.385,94.975 135.584,95.59 137.428,96.3 C 138.391,96.668 140.559,97.133 142.088,100.133 C 143.402,102.703 144.471,102.929 145.221,103.078 C 145.973,103.232 145.873,103.664 147.25,104.586 C 150.049,106.453 153.232,108.159 154.689,107.682 C 155.714,107.34 157.835,108.293 157.835,108.293 L 159.483,108.17 C 159.483,108.17 160.253,105.158 159.729,103.684 C 158.178,99.309 159.538,96.95 159.538,96.95 C 159.538,96.95 159.558,94.077 159.825,93.319 C 160.091,92.565 158.702,91.737 158.77,90.566 C 158.838,89.393 160.239,88.62 159.268,86.212 C 158.02,83.144 157.776,78.254 159.36,75.853 C 160.126,74.691 158.413,69.426 159.184,68.575 C 160.838,66.746 158.92,63.424 159.506,62.115 C 160.42,60.074 157.947,51.981 159.113,50.391 C 160.281,48.8 157.642,47.468 158.867,45.654 C 159.506,44.708 159.506,41.111 159.512,40.017 C 159.518,38.923 158.6,38.192 158.684,36.504 C 158.768,34.817 157.668,32.019 159.114,29.525 C 160.68,26.825 158.384,22.715 158.973,22.076 C 159.653,20.713 159.508,19.472 159.508,19.472 C 159.508,19.472 158.299,15.068 159.113,13.111 C 160.238,10.414 160.15,8.943 159.023,6.595 C 157.947,4.352 159.328,1.115 159.328,1.115 C 159.328,1.115 157.025,0.006 155.99,0.679 C 154.953,1.353 153.177,0.46 152.232,0.585 C 151.283,0.708 150.058,0.27 148.763,0.69 C 145.484,1.754 143.786,0.381 142.896,0.411 C 142.003,0.442 139.824,0.968 139.246,0.807 C 138.664,0.643 135.1,0.578 132.4,1.102 C 131.281,1.319 131.263,-0.878 129.255,0.402 C 128.294,1.014 122.741,0.108 121.944,0.374 C 121.155,0.644 120.284,0.96 119.903,1.038 C 119.526,1.112 116.598,0.64 116.299,0.415 C 116.002,0.192 114.067,0.022 112.592,0.69 C 109.844,1.93 106.683,-0.527 103.699,0.624 C 102.268,1.177 98.98,1.245 98.413,0.879 C 97.847,0.515 96.429,0.839 95.336,1.032 C 94.241,1.223 93.526,0.757 93.526,0.757 C 93.526,0.757 93.633,3.04 93.237,3.534 C 92.843,4.026 92.071,6.327 92.1,6.858 C 92.128,7.386 92.074,7.764 92.074,7.764 L 93.954,7.813 L 96.973,7.524 C 96.973,7.524 100.63,5.972 101.882,6.618 C 103.133,7.263 104.077,6.597 105.649,6.348 C 107.225,6.098 110.917,6.925 112.374,6.317 C 113.591,5.815 115.347,6.467 116.243,7.005 C 118.083,8.112 120.083,6.411 122.12,7.739 C 122.981,8.301 125.497,8.102 125.497,8.102 C 125.497,8.102 128.458,7.752 129.063,8.371 C 130.768,10.11 133.133,9.183 134.729,10.438 C 135.657,11.172 136.377,11.967 137.43,12.036 C 140.057,12.208 140.717,14.649 140.922,15.031 C 141.125,15.417 143.279,17.523 143.084,18.538 C 142.887,19.559 144.352,19.8 143.754,21.468 C 143.533,22.079 143.527,23.157 144.188,24.586 C 145.618,27.694 144.147,27.651 144.428,30.265 C 144.754,33.283 143.744,33.607 142.641,34.898 C 141.526,36.185 142.657,37.279 140.573,38.679 C 137.749,40.575 139.559,42.771 136.493,43.847 C 133.657,44.841 133.639,46.848 131.766,47.169 C 130.512,47.386 129.282,48.634 128.319,49.449 C 126.284,51.167 126.274,52.663 122.426,53.114 C 121.362,53.239 119.213,53.788 118.133,54.923 C 116.485,56.657 114.641,55.597 113.77,56.134 C 112.633,56.832 110.375,56.577 109.096,57.516 C 106.853,59.168 104.545,58.859 104.545,58.859 C 104.545,58.859 102.056,58.851 101.892,59.52 C 101.727,60.188 97.537,60.277 97.537,60.277 C 97.537,60.277 98.519,61.115 99.686,61.364 L 99.693,61.361 z"
   id="path2415" />

				<path
   style="fill:#fe000c;stroke:none"
   d="M 44.675,34.837 C 44.498,35.222 44.544,36.198 44.16,37.233 C 43.208,39.805 44.753,40.577 44.538,41.985 C 44.321,43.391 45.666,47.689 45.313,48.553 C 44.959,49.418 43.742,50.196 44.418,52.674 C 45.111,55.215 45.299,56.889 45.166,57.621 C 45.031,58.355 45.117,60.719 45.117,60.719 C 45.117,60.719 44.084,64.92 44.378,65.785 C 45.607,69.371 45.328,73.169 44.701,74.703 C 44.073,76.235 43.992,79.959 43.992,79.959 L 44.14,81.415 C 44.14,81.415 45.38,80.693 46.075,79.463 C 46.771,78.233 47.286,76.4 48.07,75.332 C 48.849,74.26 50.181,75.002 50.667,72.139 C 51.066,69.772 52.573,68.899 52.573,68.899 C 52.573,68.899 52.53,66.577 54.56,64.948 C 56.231,63.608 55.951,62.255 55.951,62.255 C 55.951,62.255 56.232,59.28 57.356,59.017 C 58.482,58.755 58.49,56.835 58.49,56.835 C 58.49,56.835 58.743,52.855 60.955,51.287 C 63.053,49.796 62.246,47.184 63.237,45.948 C 63.793,45.253 63.634,43.034 64.152,42.173 C 65.981,39.142 65.448,37.677 67.599,35.272 C 68.792,33.935 69.388,30.429 69.265,29.312 C 69.146,28.19 70.11,26.06 70.11,26.06 L 70.747,23.347 L 71.351,21.908 C 71.351,21.908 69.628,22.806 68.663,23.844 C 67.701,24.877 67.733,23.762 66.585,24.461 C 65.437,25.159 62.119,24.893 60.445,26.972 C 59.89,27.66 57.933,28.366 57.933,28.366 C 57.933,28.366 57.168,28.229 56.21,29.415 C 55.25,30.601 53.462,29.686 51.704,31.784 C 49.519,34.387 47.142,33.489 47.142,33.489 C 47.142,33.489 44.937,34.27 44.673,34.839 L 44.675,34.837 z"
   id="path2417" />

				<path
   style="fill:#00673e;stroke:none"
   d="M 90.323,18.716 C 90.824,17.335 91.653,16.958 92.176,17.15 C 92.7,17.336 94.169,17.353 95.045,16.378 C 96.435,14.834 101.11,16.703 104.05,15.455 C 104.646,15.202 105.489,14.675 106.714,15.078 C 107.935,15.482 110.001,14.402 112.64,15.515 C 113.822,16.014 114.269,15.316 114.884,16.123 C 115.499,16.934 117.777,16.629 119.169,17.144 C 120.565,17.655 121.843,19.165 122.214,20.131 C 122.587,21.097 125.402,21.315 125.073,24.862 C 124.927,26.465 125.991,27.652 125.62,28.654 C 125.073,30.129 126.054,31.449 124.854,32.557 C 124.135,33.224 123.967,34.166 123.854,35.109 C 123.702,36.416 122.885,39.674 121.03,40.586 C 118.266,41.943 117.491,44.969 115.255,45.578 C 114.11,45.887 113.181,45.93 111.898,47.07 C 109.929,48.816 108.964,47.886 106.634,49.468 C 103.108,51.861 100.214,50.825 99.459,51.394 C 98.704,51.962 97.678,50.697 95.362,52.156 C 92.417,54.011 89.715,52.792 89.423,53.498 C 89.128,54.201 86.741,55.234 85.168,54.541 C 84.185,54.105 82.836,56.24 81.829,56.061 C 80.828,55.881 78.576,58.368 78.576,58.368 L 77.102,59.34 C 77.102,59.34 76.813,58.234 77.225,57.384 C 77.637,56.535 77.287,54.478 78.637,53.462 C 80.633,51.962 79.475,50.652 80.045,49.874 C 80.613,49.091 79.17,46.124 81.314,44.743 C 83.13,43.571 82.712,41.977 83.755,40.186 C 84.8,38.395 83.302,37.855 84.448,36.859 C 85.589,35.863 84.684,31.993 86.543,30.746 C 88.425,29.488 86.279,27.444 88.226,25.028 C 89.424,23.542 88.664,21.89 89.484,21.083 C 90.306,20.276 89.82,20.099 90.323,18.718 L 90.323,18.716 z"
   id="path2419" />

				<path
   style="fill:#ffd911;stroke:none"
   d="M 74.181,66.63 L 76.828,67.837 C 76.828,67.837 79.378,69.075 79.872,70.624 C 80.367,72.174 81.902,72.615 81.902,72.615 C 81.902,72.615 84.167,74.979 84.948,75.206 C 85.728,75.432 87.203,76.87 87.78,78.784 C 88.357,80.697 90.822,81.968 90.822,81.968 C 90.822,81.968 94.902,85.156 94.875,86.346 C 94.815,88.919 97.613,88.218 97.913,89.925 C 98.164,91.349 100.623,92.464 100.75,93.306 C 100.876,94.15 103.971,94.916 104.805,97.291 C 106.004,100.704 108.864,101.073 108.864,101.073 C 108.864,101.073 111.735,102.413 111.917,103.072 C 112.397,104.8 114.608,106.415 116.589,106.861 C 118.378,107.264 120.417,109.465 121.06,110.45 C 122.388,112.491 125.746,112.658 125.746,112.658 C 125.746,112.658 126.457,113.339 127.783,113.267 C 129.111,113.193 134.519,114.893 134.519,114.893 L 136.169,115.856 C 134.87,116.189 132.105,115.266 130.974,115.723 C 129.845,116.181 125.283,114.686 123.027,115.491 C 120.966,116.227 119.996,115.384 119.996,115.384 C 119.996,115.384 115.283,114.827 114.473,115.542 C 113.664,116.255 110.918,114.525 109.362,115.506 C 107.803,116.486 102.689,115.291 100.57,115.925 C 98.449,116.56 92.945,116.521 91.365,115.718 C 90.604,115.33 89.23,114.398 87.28,115.292 C 85.328,116.187 78.66,114.95 77.25,115.869 C 75.839,116.79 72.549,115.78 72.549,115.78 C 72.549,115.78 68.539,114.61 67.442,115.346 C 65.451,116.686 63.96,115.775 63.96,115.775 L 57.419,115.134 C 57.419,115.134 55.386,114.635 54.761,115.311 C 54.134,115.989 52.305,115.493 52.305,115.493 L 52.522,113.915 L 53.771,111.154 C 53.771,111.154 54.563,108.694 56.46,107.616 C 57.611,106.963 57.768,105.055 58.132,102.536 C 58.493,100.022 60.368,100.893 60.424,97.96 C 60.456,96.308 61.683,94.214 61.683,94.214 C 61.683,94.214 65.651,90.316 66.462,85.155 C 66.617,84.149 67.538,80.05 68.757,79.239 C 69.98,78.431 70.747,77.729 70.422,76.091 C 70.22,75.076 70.345,71.439 71.901,70.369 C 72.771,69.768 73.762,67.615 73.762,67.615 L 74.181,66.63 L 74.181,66.63 z"
   id="path2421" />

			</g>
      <path
         style="fill:#0b3d91;fill-rule:nonzero;stroke:none;stroke-width:0.17753908;stroke-miterlimit:4"
         d="M -2429.4835,-1932.4994 L -3077.1919,-1932.4994 L -3077.1919,-1945.259 L -2429.4891,-1945.259 L -2429.4891,-1932.4994 L -2429.4835,-1932.4994 z"
         id="path2423" />
      <path
         style="fill:#0b3d91;fill-rule:nonzero;stroke:none;stroke-width:0.17753908;stroke-miterlimit:4"
         d="M -3315.5041,-2231.7689 C -3305.4075,-2231.4254 -3269.4609,-2231.8252 -3261.3476,-2232.3095 C -3247.9831,-2232.8782 -3236.9062,-2233.1766 -3228.1506,-2233.1766 C -3211.2027,-2233.1766 -3160.3367,-2235.1699 -3159.6605,-2185.9561 C -3159.1366,-2147.8295 -3192.1139,-2130.6554 -3208.8194,-2124.3657 C -3206.1206,-2119.5175 -3186.6655,-2089.7753 -3173.7856,-2070.5121 C -3160.9057,-2051.2488 -3125.2747,-2004.6365 -3125.2747,-2004.6365 C -3142.0028,-2005.3291 -3148.747,-2005.6332 -3156.2293,-2005.6332 C -3164.9117,-2005.6332 -3177.7014,-2005.3291 -3186.2655,-2004.6365 C -3186.7951,-2007.0127 -3225.9645,-2071.413 -3225.9645,-2071.413 C -3235.8864,-2087.9227 -3244.7829,-2100.5584 -3251.2116,-2110.3336 C -3256.8571,-2118.9094 -3258.7784,-2126.359 -3251.4764,-2126.5448 C -3244.1969,-2126.7419 -3207.0615,-2130.3626 -3207.0615,-2174.075 C -3207.0615,-2229.0098 -3274.8924,-2213.919 -3274.8924,-2213.919 C -3274.8924,-2213.919 -3271.6921,-2209.9268 -3272.171,-2187.8706 C -3272.6556,-2165.8145 -3273.2246,-2136.5734 -3273.2246,-2126.2239 C -3273.2246,-2109.9056 -3272.171,-2039.21 -3272.171,-2036.175 C -3272.171,-2021.7431 -3267.9791,-2004.6309 -3267.9791,-2004.6309 C -3286.5271,-2005.3235 -3277.3038,-2005.6782 -3296.0715,-2005.6782 C -3312.8278,-2005.6782 -3309.96,-2005.3235 -3324.2372,-2004.6309 C -3324.2372,-2004.6309 -3319.5495,-2021.7431 -3319.5776,-2046.3725 L -3318.5409,-2126.252 C -3318.5409,-2126.252 -3319.9044,-2203.0965 -3321.0426,-2213.7332 C -3322.1525,-2224.3587 -3325.5894,-2232.0842 -3315.5041,-2231.7689 L -3315.5041,-2231.7689 z"
         id="path2425" />
      <path
         style="fill:#0b3d91;fill-rule:nonzero;stroke:none;stroke-width:0.17753908;stroke-miterlimit:4"
         d="M -3021.0297,-2205.2362 C -3015.0123,-2210.8221 -3014.8545,-2218.3055 -3018.4379,-2224.8429 C -3022.3988,-2232.0673 -3030.1008,-2242.9574 -3040.8228,-2222.4836 C -3057.1002,-2191.3956 -3077.4849,-2181.215 -3078.0202,-2179.5201 C -3078.5611,-2177.8252 -3074.1156,-2175.5897 -3062.9429,-2179.5201 C -3051.7758,-2183.4391 -3033.6729,-2193.479 -3021.0353,-2205.2306 L -3021.0297,-2205.2362 z"
         id="path2427" />
      <path
         style="fill:#0b3d91;fill-rule:nonzero;stroke:none;stroke-width:0.17753908;stroke-miterlimit:4"
         d="M -2858.8307,-2031.4113 C -2873.5868,-2015.994 -2888.0894,-2004.5408 -2888.0894,-2004.5408 C -2897.5549,-2000.6836 -2906.1585,-1999.7376 -2918.4299,-2000.8976 C -2933.2085,-2002.2828 -2958.0556,-2013.3418 -2957.2837,-2044.5537 C -2956.9231,-2059.3404 -2956.3428,-2063.8451 -2956.3428,-2093.3396 C -2956.3428,-2122.8341 -2958.2021,-2139.524 -2958.9345,-2149.5751 C -2959.6726,-2159.6206 -2927.5912,-2157.4808 -2912.7167,-2162.4416 C -2912.7167,-2162.4416 -2915.3761,-2124.3544 -2915.4831,-2100.5584 C -2915.6015,-2076.7679 -2915.748,-2064.487 -2914.4972,-2051.322 C -2912.8125,-2033.551 -2897.7183,-2029.2603 -2884.9737,-2031.1072 C -2871.2655,-2033.1006 -2859.9463,-2049.5371 -2859.4843,-2054.5992 C -2857.8447,-2072.5448 -2859.873,-2117.755 -2859.873,-2117.755 C -2859.873,-2125.216 -2861.8394,-2139.3382 -2862.0591,-2149.5751 C -2862.2845,-2159.8064 -2830.1016,-2157.2331 -2815.2441,-2162.1995 C -2815.2441,-2162.1995 -2817.233,-2134.8391 -2818.1852,-2094.1336 C -2819.374,-2043.619 -2814.6074,-2004.4056 -2814.6074,-2004.4056 C -2814.6074,-2004.4056 -2829.5157,-2004.9518 -2837.9671,-2004.8054 C -2846.4184,-2004.659 -2861.0562,-2004.2987 -2861.0562,-2004.2987 C -2861.0562,-2004.2987 -2859.7829,-2010.5827 -2859.2364,-2016.8273 C -2858.6842,-2023.0607 -2858.7575,-2026.5913 -2858.8307,-2031.4113 L -2858.8307,-2031.4113 z"
         id="path2429" />
      <path
         style="fill:#0b3d91;fill-rule:nonzero;stroke:none;stroke-width:0.17753908;stroke-miterlimit:4"
         d="M -2956.3484,-2093.3396 C -2956.3484,-2122.8341 -2958.2077,-2139.524 -2958.9402,-2149.5751 C -2959.6783,-2159.6206 -2927.5968,-2157.4808 -2912.7224,-2162.4416 C -2912.7224,-2162.4416 -2915.3817,-2124.3544 -2915.4888,-2100.5584"
         id="path2431" />
      <path
         style="fill:#0b3d91;fill-rule:nonzero;stroke:none;stroke-width:0.17753908;stroke-miterlimit:4"
         d="M -2567.0607,-2236.7747 C -2560.1588,-2236.7747 -2554.2935,-2234.3873 -2549.4988,-2229.5391 C -2544.7322,-2224.7134 -2542.3038,-2218.9024 -2542.3038,-2212.1284 C -2542.3038,-2205.2531 -2544.7378,-2199.4252 -2549.4988,-2194.5826 C -2554.2991,-2189.7626 -2560.1644,-2187.3188 -2567.0607,-2187.3188 C -2573.85,-2187.3188 -2579.6927,-2189.7626 -2584.5382,-2194.5826 C -2589.3668,-2199.4252 -2591.8008,-2205.2588 -2591.8008,-2212.1284 C -2591.8008,-2218.9024 -2589.4231,-2224.7078 -2584.6058,-2229.5391 C -2579.828,-2234.3873 -2573.974,-2236.7747 -2567.0664,-2236.7747 L -2567.0607,-2236.7747 z"
         id="path2433" />
      <path
         style="fill:#0b3d91;fill-rule:nonzero;stroke:none;stroke-width:0.17753908;stroke-miterlimit:4"
         d="M -2439.7096,-2016.1573 C -2453.1699,-2016.1573 -2462.0833,-2025.0428 -2467.002,-2036.9014 C -2471.9207,-2048.715 -2475.0252,-2063.8226 -2474.9914,-2082.9169 C -2474.9576,-2102.0224 -2471.9207,-2117.13 -2467.002,-2128.9436 C -2462.0833,-2140.7909 -2453.1699,-2149.6765 -2439.7096,-2149.6765 C -2426.2607,-2149.6765 -2417.3585,-2140.7909 -2412.4286,-2128.9436 C -2407.5099,-2117.13 -2404.4054,-2102.0224 -2404.4392,-2082.9169 C -2404.4054,-2063.8226 -2407.5099,-2048.715 -2412.4286,-2036.9014 C -2417.3585,-2025.0484 -2426.2607,-2016.1573 -2439.7096,-2016.1573 z M -2439.7096,-2000.83 C -2411.0425,-2000.83 -2392.5115,-2010.9149 -2379.7048,-2024.3333 C -2366.9376,-2037.7517 -2360.2948,-2058.6253 -2360.2948,-2083.2772 C -2360.2948,-2107.9292 -2366.9432,-2128.8028 -2379.7048,-2142.2212 C -2392.5115,-2155.6395 -2411.0482,-2165.4035 -2439.7096,-2165.4035 C -2468.388,-2165.4035 -2486.7951,-2155.6395 -2499.5962,-2142.2212 C -2512.3634,-2128.8028 -2519.1414,-2108.8583 -2519.1414,-2082.9619 C -2519.1414,-2057.0655 -2512.3634,-2037.1154 -2499.5962,-2023.7026 C -2486.8008,-2010.2843 -2468.388,-2000.8357 -2439.7096,-2000.8357 L -2439.7096,-2000.83 z"
         id="path2435" />
      <path
         style="fill:#0b3d91;fill-rule:nonzero;stroke:none;stroke-width:0.17753908;stroke-miterlimit:4"
         d="M -2729.8513,-2162.3346 C -2729.8513,-2162.3346 -2730.5218,-2154.367 -2731.0739,-2148.1223 C -2731.6261,-2141.889 -2731.5529,-2138.364 -2731.4796,-2133.5384 C -2717.7771,-2148.7361 -2702.2209,-2160.4145 -2702.2209,-2160.4145 C -2692.7554,-2164.266 -2684.1519,-2165.212 -2671.8804,-2164.0577 C -2657.1018,-2162.6669 -2632.2547,-2151.6135 -2633.0266,-2120.4016 C -2633.3872,-2105.6093 -2633.9732,-2101.1102 -2633.9732,-2071.6157 C -2633.9732,-2042.1212 -2631.111,-2014.0513 -2630.3729,-2004.0002 C -2630.3729,-2004.0002 -2645.2811,-2004.5408 -2653.7325,-2004.4 C -2662.1839,-2004.2592 -2676.8104,-2003.8989 -2676.8104,-2003.8989 C -2676.8104,-2003.8989 -2674.9286,-2040.5952 -2674.8159,-2064.3857 C -2674.7032,-2088.1761 -2674.5511,-2100.4626 -2675.8075,-2113.6276 C -2677.4922,-2131.3986 -2692.6089,-2135.8921 -2705.331,-2133.8368 C -2720.0308,-2131.455 -2730.3584,-2115.407 -2730.8204,-2110.3448 C -2732.46,-2092.4049 -2730.4316,-2047.1946 -2730.4316,-2047.1946 C -2730.4316,-2039.7281 -2728.1667,-2014.4342 -2727.9469,-2004.1917 C -2727.9469,-2004.1917 -2743.0467,-2004.7885 -2751.4981,-2004.6534 C -2759.9495,-2004.5126 -2774.5817,-2004.1466 -2774.5817,-2004.1466 C -2774.5817,-2004.1466 -2773.0773,-2030.0993 -2772.1195,-2070.8049 C -2771.4434,-2099.4829 -2773.7253,-2130.7961 -2775.0887,-2148.9895 C -2775.8494,-2159.1983 -2744.7032,-2157.357 -2729.8513,-2162.3234 L -2729.8513,-2162.3346 z"
         id="path2437" />
      <path
         style="fill:#0b3d91;fill-rule:nonzero;stroke:none;stroke-width:0.17753908;stroke-miterlimit:4"
         d="M -2287.8552,-2162.3346 C -2287.8552,-2162.3346 -2288.5369,-2154.367 -2289.0891,-2148.1223 C -2289.6412,-2141.889 -2289.5623,-2138.364 -2289.4947,-2133.5384 C -2275.7922,-2148.7361 -2260.236,-2160.4145 -2260.236,-2160.4145 C -2250.7705,-2164.266 -2242.167,-2165.212 -2229.8843,-2164.0577 C -2215.1169,-2162.6669 -2190.2698,-2151.6135 -2191.0305,-2120.4016 C -2191.3911,-2105.6093 -2191.977,-2101.1102 -2191.977,-2071.6157 C -2191.977,-2042.1212 -2189.1148,-2014.0513 -2188.388,-2004.0002 C -2188.388,-2004.0002 -2203.2906,-2004.5408 -2211.742,-2004.4 C -2220.1934,-2004.2592 -2234.8312,-2003.8989 -2234.8312,-2003.8989 C -2234.8312,-2003.8989 -2232.9493,-2040.5952 -2232.8367,-2064.3857 C -2232.724,-2088.1761 -2232.5718,-2100.4626 -2233.8283,-2113.6276 C -2235.5129,-2131.3986 -2250.6015,-2135.7175 -2263.3405,-2133.8368 C -2276.1697,-2131.9448 -2288.3735,-2115.407 -2288.8355,-2110.3448 C -2290.4751,-2092.4049 -2288.4524,-2047.1946 -2288.4524,-2047.1946 C -2288.4524,-2039.7281 -2286.1762,-2014.4342 -2285.9564,-2004.1917 C -2285.9564,-2004.1917 -2301.0562,-2004.7885 -2309.5076,-2004.6534 C -2317.959,-2004.5126 -2332.5968,-2004.1466 -2332.5968,-2004.1466 C -2332.5968,-2004.1466 -2331.0868,-2030.0993 -2330.1403,-2070.8049 C -2329.4585,-2099.4829 -2331.746,-2130.7961 -2333.1095,-2148.9895 C -2333.8701,-2159.1983 -2302.724,-2157.357 -2287.8608,-2162.3234 L -2287.8552,-2162.3346 z"
         id="path2439" />
      <path
         style="fill:#0b3d91;fill-rule:nonzero;stroke:none;stroke-width:0.17753908;stroke-miterlimit:4"
         d="M -2545.1604,-2162.3346 C -2560.0179,-2157.3682 -2592.3135,-2159.2095 -2591.5529,-2149.0007 C -2590.1894,-2130.813 -2588.2399,-2112.3776 -2588.3751,-2083.6939 C -2588.5611,-2041.7496 -2591.0514,-2004.1579 -2591.0514,-2004.1579 C -2591.0514,-2004.1579 -2576.4136,-2004.5183 -2567.9622,-2004.6647 C -2559.5108,-2004.7998 -2543.256,-2004.2029 -2543.256,-2004.2029 C -2543.4757,-2014.4399 -2547.0422,-2045.618 -2547.0422,-2083.6939 C -2547.0422,-2108.4416 -2546.9014,-2140.8585 -2545.1604,-2162.3346 z"
         id="path2441" />
      <path
         style="fill:#0b3d91;fill-rule:nonzero;stroke:none;stroke-width:0.17753908;stroke-miterlimit:4"
         d="M -3028.4894,-2098.7171 C -3042.0004,-2096.6787 -3064.9881,-2100.5358 -3079.1245,-2096.1944 C -3082.3924,-2095.1865 -3085.1588,-2091.1773 -3087.1984,-2087.2188 C -3086.4547,-2116.0207 -3080.257,-2149.1584 -3056.3903,-2148.7417 C -3035.0702,-2148.3701 -3027.9091,-2123.8983 -3028.4894,-2098.7171 L -3028.4894,-2098.7171 z M -2988.2834,-2081.695 C -2984.8972,-2082.4551 -2985.5789,-2091.1267 -2985.5282,-2094.1561 C -2985.1564,-2115.2268 -2990.7455,-2130.6047 -3000.1322,-2141.5567 C -3015.7673,-2159.812 -3040.5805,-2165.8145 -3055.9114,-2165.5273 C -3079.2879,-2165.0938 -3098.619,-2156.0224 -3111.2059,-2142.1423 C -3124.4859,-2127.4908 -3130.3962,-2107.4843 -3130.7624,-2086.5826 C -3131.478,-2045.8714 -3114.1076,-2003.3865 -3051.342,-2000.5992 C -3041.9666,-2000.1825 -3019.3957,-2001.3368 -2997.3771,-2014.4905 C -2997.3771,-2014.4905 -2991.8442,-2024.2882 -2989.6525,-2030.3189 C -2987.4326,-2036.3777 -2993.6697,-2034.9475 -2993.6697,-2034.9475 C -3004.0424,-2028.4776 -3022.5791,-2017.0301 -3046.7951,-2018.1956 C -3078.2343,-2019.7216 -3084.6573,-2055.624 -3084.8095,-2068.2766 C -3085.0405,-2088.1198 -3021.0804,-2074.2847 -2988.2834,-2081.7006 L -2988.2834,-2081.695 z"
         id="path2443" />
      <path
         style="fill:#0b3d91;fill-rule:nonzero;stroke:none;stroke-width:0.17753908;stroke-miterlimit:4"
         d="M -3294.8264,-2351.9429 C -3271.8386,-2351.9429 -3262.4576,-2344.7636 -3262.4576,-2327.1671 C -3262.4576,-2309.2103 -3272.1428,-2301.5523 -3294.8264,-2301.5523 C -3294.8264,-2301.5523 -3303.7623,-2301.5523 -3305.5991,-2301.5523 C -3305.5991,-2303.6638 -3305.5991,-2349.8313 -3305.5991,-2351.9429 C -3303.7623,-2351.9429 -3294.8264,-2351.9429 -3294.8264,-2351.9429 L -3294.8264,-2351.9429 z M -3325.7133,-2362.2925 C -3325.7133,-2362.2925 -3324.5921,-2357.0107 -3324.5921,-2350.5465 L -3324.5921,-2302.4419 C -3324.5921,-2295.5216 -3325.7133,-2290.7072 -3325.7133,-2290.7072 L -3293.3671,-2290.7072 C -3259.6686,-2290.7072 -3242.5799,-2302.96 -3242.5799,-2327.1671 C -3242.5799,-2358.6549 -3271.5512,-2362.2925 -3293.3671,-2362.2925 L -3325.7133,-2362.2925 L -3325.7133,-2362.2925 z"
         id="path2445" />
      <path
         style="fill:#0b3d91;fill-rule:nonzero;stroke:none;stroke-width:0.17753908;stroke-miterlimit:4"
         d="M -3209.011,-2362.2925 C -3209.011,-2362.2925 -3207.8898,-2356.4983 -3207.8898,-2350.5465 L -3207.8898,-2302.4419 C -3207.8898,-2296.4901 -3209.0054,-2290.7072 -3209.0054,-2290.7072 L -3149.2259,-2290.7072 L -3149.2259,-2301.5523 C -3149.2259,-2301.5523 -3186.8458,-2301.5523 -3188.8854,-2301.5523 C -3188.8854,-2303.4893 -3188.8854,-2321.159 -3188.8854,-2323.096 C -3186.8515,-2323.096 -3154.3756,-2323.1185 -3154.3756,-2323.1185 L -3154.3756,-2333.4117 C -3154.3756,-2333.4117 -3186.8515,-2333.4455 -3188.8854,-2333.4455 C -3188.8854,-2335.3488 -3188.8854,-2350.051 -3188.8854,-2351.9429 C -3186.8515,-2351.9429 -3151.4402,-2351.9317 -3151.4402,-2351.9317 L -3151.4402,-2362.2925 L -3209.011,-2362.2925 L -3209.011,-2362.2925 z"
         id="path2447" />
      <path
         style="fill:#0b3d91;fill-rule:nonzero;stroke:none;stroke-width:0.17753908;stroke-miterlimit:4"
         d="M -2702.8576,-2362.2925 C -2702.8576,-2362.2925 -2701.7251,-2356.4983 -2701.7251,-2350.5465 L -2701.7251,-2302.4419 C -2701.7251,-2296.4901 -2702.8576,-2290.7072 -2702.8576,-2290.7072 L -2643.0612,-2290.7072 L -2643.0612,-2301.5523 C -2643.0612,-2301.5523 -2680.6868,-2301.5523 -2682.7433,-2301.5523 C -2682.7433,-2303.4893 -2682.7433,-2321.159 -2682.7433,-2323.096 C -2680.6868,-2323.096 -2648.2109,-2323.1185 -2648.2109,-2323.1185 L -2648.2109,-2333.4117 C -2648.2109,-2333.4117 -2680.6868,-2333.4455 -2682.7433,-2333.4455 C -2682.7433,-2335.3488 -2682.7433,-2350.051 -2682.7433,-2351.9429 C -2680.6868,-2351.9429 -2645.2868,-2351.9317 -2645.2868,-2351.9317 L -2645.2868,-2362.2925 L -2702.8632,-2362.2925 L -2702.8576,-2362.2925 z"
         id="path2449" />
      <path
         style="fill:#0b3d91;fill-rule:nonzero;stroke:none;stroke-width:0.17753908;stroke-miterlimit:4"
         d="M -2468.7373,-2362.2925 C -2468.7373,-2362.2925 -2467.6274,-2356.4983 -2467.6274,-2350.5465 L -2467.6274,-2302.4419 C -2467.6274,-2296.4901 -2468.7373,-2290.7072 -2468.7373,-2290.7072 L -2408.9748,-2290.7072 L -2408.9748,-2301.5523 C -2408.9748,-2301.5523 -2446.5778,-2301.5523 -2448.623,-2301.5523 C -2448.623,-2303.4893 -2448.623,-2321.159 -2448.623,-2323.096 C -2446.5778,-2323.096 -2414.1019,-2323.1185 -2414.1019,-2323.1185 L -2414.1019,-2333.4117 C -2414.1019,-2333.4117 -2446.5778,-2333.4455 -2448.623,-2333.4455 C -2448.623,-2335.3488 -2448.623,-2350.051 -2448.623,-2351.9429 C -2446.5778,-2351.9429 -2411.1778,-2351.9317 -2411.1778,-2351.9317 L -2411.1778,-2362.2925 L -2468.743,-2362.2925 L -2468.7373,-2362.2925 z"
         id="path2451" />
      <path
         style="fill:#0b3d91;fill-rule:nonzero;stroke:none;stroke-width:0.17753908;stroke-miterlimit:4"
         d="M -3084.5108,-2351.9429 C -3071.0112,-2351.9429 -3065.5065,-2349.2457 -3065.5065,-2342.6407 C -3065.5065,-2335.0954 -3071.3718,-2331.7281 -3084.5108,-2331.7281 C -3084.5108,-2331.7281 -3089.5197,-2331.7281 -3091.1705,-2331.7281 C -3091.1705,-2333.6426 -3091.1705,-2350.0172 -3091.1705,-2351.9429 C -3089.5197,-2351.9429 -3084.5108,-2351.9429 -3084.5108,-2351.9429 L -3084.5108,-2351.9429 z M -3111.2848,-2362.2925 C -3111.2848,-2362.2925 -3110.1636,-2356.4983 -3110.1636,-2350.5465 L -3110.1636,-2302.4419 C -3110.1636,-2296.4901 -3111.2848,-2290.7072 -3111.2848,-2290.7072 L -3091.1931,-2290.7072 C -3091.1931,-2290.7072 -3091.1705,-2319.3683 -3091.1705,-2321.3786 C -3089.5197,-2321.3786 -3084.5108,-2321.3786 -3084.5108,-2321.3786 C -3068.4419,-2321.3786 -3047.0937,-2323.569 -3047.0937,-2342.6351 C -3047.0937,-2355.8676 -3057.8777,-2362.2868 -3080.0936,-2362.2868 L -3111.2792,-2362.2868 L -3111.2848,-2362.2925 z"
         id="path2453" />
      <path
         style="fill:#0b3d91;fill-rule:nonzero;stroke:none;stroke-width:0.17753908;stroke-miterlimit:4"
         d="M -2986.0015,-2346.9709 C -2984.6155,-2344.0428 -2974.7893,-2323.3719 -2973.4146,-2320.5001 C -2976.2204,-2320.6522 -2996.5995,-2320.6522 -2999.5068,-2320.4889 C -2998.0194,-2323.4057 -2987.4777,-2344.0879 -2986.0071,-2346.9709 L -2986.0015,-2346.9709 z M -2996.7066,-2362.2925 C -2996.7066,-2362.2925 -2996.0248,-2360.575 -2998.487,-2355.9803 C -3000.9492,-2351.3855 -3034.1293,-2290.7072 -3034.1293,-2290.7072 L -3014.6292,-2290.8255 C -3014.6292,-2290.8255 -3011.0176,-2298.1287 -3009.2146,-2301.3946 C -3009.2034,-2301.4284 -3006.0651,-2307.6392 -3005.0904,-2309.5425 C -3004.1776,-2309.5763 -2969.0086,-2309.5763 -2968.1691,-2309.5425 C -2967.662,-2308.4951 -2959.4416,-2290.7016 -2959.4416,-2290.7016 L -2938.3808,-2290.7016 C -2938.3808,-2290.7016 -2941.4852,-2296.4507 -2944.5897,-2302.4701 C -2944.5897,-2302.4814 -2977.3811,-2362.2868 -2977.3811,-2362.2868 L -2996.7066,-2362.2868 L -2996.7066,-2362.2925 z"
         id="path2455" />
      <path
         style="fill:#0b3d91;fill-rule:nonzero;stroke:none;stroke-width:0.17753908;stroke-miterlimit:4"
         d="M -2878.0041,-2351.9429 C -2865.1073,-2351.9429 -2859.6026,-2350.8224 -2859.6026,-2343.2545 C -2859.6026,-2335.8105 -2869.6147,-2332.9387 -2878.0041,-2332.9387 C -2878.0041,-2332.9387 -2883.1651,-2332.9387 -2884.8159,-2332.9387 C -2884.8159,-2334.842 -2884.8159,-2350.051 -2884.8159,-2351.9429 C -2883.1651,-2351.9429 -2878.0041,-2351.9429 -2878.0041,-2351.9429 z M -2904.9527,-2362.2925 C -2904.9527,-2362.2925 -2903.8202,-2356.5096 -2903.8202,-2350.5465 L -2903.8202,-2302.4419 C -2903.8202,-2296.4789 -2904.9527,-2290.7072 -2904.9527,-2290.7072 L -2884.8497,-2290.7072 C -2884.8497,-2290.7072 -2884.8159,-2320.5677 -2884.8159,-2322.5779 C -2883.1651,-2322.5779 -2879.6774,-2322.5779 -2879.6774,-2322.5779 C -2871.0739,-2322.5779 -2868.3864,-2321.311 -2864.8425,-2314.1654 C -2857.856,-2300.0545 -2854.5205,-2290.5664 -2854.5205,-2290.5664 L -2833.0821,-2290.5439 C -2835.2175,-2295.9439 -2844.3845,-2315.0889 -2844.3845,-2315.0889 L -2844.3845,-2315.0776 C -2848.1143,-2323.096 -2852.109,-2326.3056 -2857.732,-2327.8766 C -2850.9991,-2329.6559 -2841.1898,-2335.1348 -2841.1898,-2343.2489 C -2841.1898,-2361.6168 -2861.0281,-2362.2868 -2875.9532,-2362.2868 L -2904.9471,-2362.2868 L -2904.9527,-2362.2925 z"
         id="path2457" />
      <path
         style="fill:#0b3d91;fill-rule:nonzero;stroke:none;stroke-width:0.17753908;stroke-miterlimit:4"
         d="M -2812.472,-2362.2925 L -2812.472,-2351.0983 C -2812.472,-2351.0983 -2802.3586,-2351.9429 -2798.1329,-2351.9429 C -2798.1329,-2351.9429 -2786.0474,-2351.9429 -2784.1261,-2351.9429 C -2784.1261,-2349.7976 -2784.2162,-2290.7072 -2784.2162,-2290.7072 L -2765.1668,-2290.7072 C -2765.1668,-2290.7072 -2765.133,-2349.7976 -2765.133,-2351.9429 C -2763.1948,-2351.9429 -2751.1263,-2351.9429 -2751.1263,-2351.9429 C -2746.6921,-2351.9429 -2736.7758,-2351.1264 -2736.7758,-2351.1264 L -2736.7758,-2362.2868 L -2812.472,-2362.2868 L -2812.472,-2362.2925 z"
         id="path2459" />
      <path
         style="fill:#0b3d91;fill-rule:nonzero;stroke:none;stroke-width:0.17753908;stroke-miterlimit:4"
         d="M -2260.9741,-2362.2925 L -2260.9741,-2351.0983 C -2260.9741,-2351.0983 -2250.8606,-2351.9429 -2246.6237,-2351.9429 C -2246.6237,-2351.9429 -2234.5495,-2351.9429 -2232.6282,-2351.9429 C -2232.6282,-2349.7976 -2232.7296,-2290.7072 -2232.7296,-2290.7072 L -2213.6576,-2290.7072 C -2213.6576,-2290.7072 -2213.6464,-2349.7976 -2213.6464,-2351.9429 C -2211.6969,-2351.9429 -2199.6283,-2351.9429 -2199.6283,-2351.9429 C -2195.2055,-2351.9429 -2185.2892,-2351.1264 -2185.2892,-2351.1264 L -2185.2892,-2362.2868 L -2260.9798,-2362.2868 L -2260.9741,-2362.2925 z"
         id="path2461" />
      <path
         style="fill:#0b3d91;fill-rule:nonzero;stroke:none;stroke-width:0.17753908;stroke-miterlimit:4"
         d="M -2312.9501,-2362.2925 C -2312.9501,-2362.2925 -2311.8289,-2356.4758 -2311.8289,-2350.5465 C -2311.8289,-2350.5465 -2311.8289,-2315.179 -2311.8289,-2309.9873 C -2315.0066,-2314.233 -2350.9701,-2362.2925 -2350.9701,-2362.2925 L -2373.0226,-2362.2925 C -2373.0226,-2362.2925 -2371.7436,-2355.9465 -2371.7436,-2350.7435 L -2371.4788,-2290.7072 L -2355.7085,-2290.7072 C -2355.7085,-2290.7072 -2355.5564,-2338.8455 -2355.5564,-2344.0372 C -2352.3674,-2339.8028 -2315.356,-2290.7072 -2315.356,-2290.7072 L -2295.6135,-2290.7072 L -2295.4614,-2362.2925 L -2312.9501,-2362.2925 L -2312.9501,-2362.2925 z"
         id="path2463" />
      <path
         style="fill:#0b3d91;fill-rule:nonzero;stroke:none;stroke-width:0.17753908;stroke-miterlimit:4"
         d="M -2538.2415,-2357.1458 C -2538.2415,-2357.1458 -2557.4769,-2310.9558 -2559.1052,-2307.0311 C -2560.7673,-2310.9446 -2582.4479,-2362.2925 -2582.4479,-2362.2925 L -2606.0329,-2362.2925 C -2606.0329,-2362.2925 -2604.7652,-2359.0941 -2605.03,-2357.1233 C -2605.0413,-2357.1233 -2610.2022,-2290.7072 -2610.2022,-2290.7072 L -2593.7051,-2290.7072 C -2593.7051,-2290.7072 -2591.1528,-2332.8205 -2590.5331,-2343.7951 C -2587.7047,-2337.2295 -2567.6411,-2290.7072 -2567.6411,-2290.7072 L -2552.0342,-2290.7072 C -2552.0342,-2290.7072 -2532.4551,-2336.9085 -2529.6155,-2343.6712 C -2529.2549,-2336.6889 -2526.5448,-2290.7297 -2526.5448,-2290.7297 L -2508.2673,-2290.7072 L -2513.7888,-2362.2925 L -2537.5936,-2362.2024 C -2537.5936,-2362.2024 -2537.3738,-2358.9477 -2538.2302,-2357.1458 L -2538.2415,-2357.1458 z"
         id="path2465" />
      <path
         style="fill:#0b3d91;fill-rule:nonzero;stroke:none;stroke-width:0.17753908;stroke-miterlimit:4"
         d="M -3168.0894,-2387.6089 L -3195.3592,-2373.5204 L -3188.5812,-2366.8422 L -3158.1956,-2379.1288 L -3167.3738,-2387.9805 L -3168.0894,-2387.6089 L -3168.0894,-2387.6089 z"
         id="path2467" />
      <path
         style="fill:#0b3d91;fill-rule:nonzero;stroke:none;stroke-width:0.17753908;stroke-miterlimit:4"
         d="M -2912.4125,-2245.8799 C -2897.8874,-2245.8799 -2892.2306,-2240.8233 -2892.2306,-2227.8329 C -2892.2306,-2214.561 -2898.0733,-2209.1441 -2912.4125,-2209.1441 C -2912.4125,-2209.1441 -2916.5593,-2209.1441 -2918.2777,-2209.1441 C -2918.2777,-2211.4358 -2918.2777,-2243.5881 -2918.2777,-2245.8799 C -2916.5593,-2245.8799 -2912.4125,-2245.8799 -2912.4125,-2245.8799 z M -2934.3861,-2256.4772 C -2934.3861,-2256.4772 -2933.3944,-2250.9195 -2933.3944,-2246.0544 L -2933.3944,-2208.5697 C -2933.3944,-2203.3724 -2934.4086,-2198.1526 -2934.4086,-2198.1526 L -2911.4434,-2198.1526 C -2888.281,-2198.1526 -2876.5335,-2208.1361 -2876.5335,-2227.8329 C -2876.5335,-2256.4772 -2902.8061,-2256.4772 -2911.4434,-2256.4772 L -2934.3861,-2256.4772 L -2934.3861,-2256.4772 z"
         id="path2469" />
      <path
         style="fill:#0b3d91;fill-rule:nonzero;stroke:none;stroke-width:0.17753908;stroke-miterlimit:4"
         d="M -2861.5182,-2256.4772 C -2861.5182,-2256.4772 -2860.5548,-2250.5253 -2860.5548,-2246.0544 L -2860.5548,-2208.5697 C -2860.5548,-2204.0932 -2861.5182,-2198.1526 -2861.5182,-2198.1526 L -2819.1599,-2198.1526 L -2819.1599,-2209.1384 C -2819.1599,-2209.1384 -2843.1337,-2209.1384 -2845.4268,-2209.1384 C -2845.4268,-2211.1318 -2845.4268,-2221.4025 -2845.4268,-2223.3902 C -2843.1675,-2223.3902 -2822.563,-2223.4127 -2822.563,-2223.4127 L -2822.563,-2233.9593 C -2822.563,-2233.9593 -2843.1618,-2233.9875 -2845.4268,-2233.9875 C -2845.4268,-2235.8907 -2845.4268,-2243.9654 -2845.4268,-2245.8742 C -2843.1449,-2245.8742 -2820.6192,-2245.8686 -2820.6192,-2245.8686 L -2820.6192,-2256.4715 L -2861.5182,-2256.4715 L -2861.5182,-2256.4772 z"
         id="path2471" />
      <path
         style="fill:#0b3d91;fill-rule:nonzero;stroke:none;stroke-width:0.17753908;stroke-miterlimit:4"
         d="M -2696.2486,-2220.2819 C -2695.2682,-2222.5512 -2687.0422,-2241.0204 -2686.0675,-2243.2728 C -2685.1491,-2240.9866 -2677.6161,-2222.4217 -2676.7034,-2220.1918 C -2678.5627,-2220.3101 -2694.3217,-2220.4114 -2696.2486,-2220.2819 L -2696.2486,-2220.2819 z M -2673.9764,-2210.4054 C -2673.4242,-2209.0089 -2669.3507,-2198.1582 -2669.3507,-2198.1582 L -2652.5775,-2198.1582 L -2679.5543,-2256.4772 L -2694.6992,-2256.4772 L -2694.3837,-2254.8893 C -2694.3837,-2254.878 -2694.1752,-2253.7124 -2695.4936,-2250.8125 L -2719.9406,-2198.1413 L -2704.1985,-2198.2596 C -2704.1985,-2198.2596 -2699.8602,-2208.6992 -2699.1502,-2210.3603 C -2695.7922,-2210.3772 -2677.4189,-2210.4223 -2673.9708,-2210.4054 L -2673.9764,-2210.4054 z"
         id="path2473" />
      <path
         style="fill:#0b3d91;fill-rule:nonzero;stroke:none;stroke-width:0.17753908;stroke-miterlimit:4"
         d="M -2773.6013,-2246.6175 L -2773.6013,-2209.1328 C -2773.6013,-2203.9411 -2774.7901,-2198.2821 -2774.7958,-2198.2483 L -2731.705,-2198.2427 L -2731.705,-2210.2139 L -2742.472,-2209.465 C -2742.472,-2209.465 -2756.2647,-2209.465 -2758.4452,-2209.465 C -2758.4395,-2211.8638 -2758.3775,-2257.1923 -2758.3775,-2257.1923 L -2774.5873,-2257.1923 C -2774.5873,-2257.1923 -2773.6013,-2251.4769 -2773.6013,-2246.6175 L -2773.6013,-2246.6175 z"
         id="path2475" />
      <g
         transform="matrix(5.6342563,0,0,5.6308698,-3326.4289,-3087.0755)"
         id="g2477"
         style="fill-rule:nonzero;stroke:#000000;stroke-width:0.25465351;stroke-miterlimit:4">
			<path
   id="path2479"
   d="M 12.533,231.619 L 10.62,231.619 L 8.39,221.344 L 8.347,221.344 L 6.137,231.619 L 4.182,231.619 L 0.655,218.694 L 2.653,218.694 L 5.139,229.269 L 5.181,229.269 L 7.391,218.694 L 9.367,218.694 L 11.662,229.269 L 11.704,229.269 L 14.169,218.694 L 16.039,218.694 L 12.533,231.619 L 12.533,231.619 z"
   style="fill:#0b3d91;stroke:#0b3d91;stroke-width:0.25465351" />

			<path
   id="path2481"
   d="M 35.016,231.619 L 33.103,231.619 L 30.872,221.344 L 30.83,221.344 L 28.62,231.619 L 26.665,231.619 L 23.138,218.694 L 25.136,218.694 L 27.622,229.269 L 27.664,229.269 L 29.874,218.694 L 31.851,218.694 L 34.146,229.269 L 34.188,229.269 L 36.653,218.694 L 38.523,218.694 L 35.017,231.619 L 35.016,231.619 z"
   style="fill:#0b3d91;stroke:#0b3d91;stroke-width:0.25465351" />

			<path
   id="path2483"
   d="M 57.498,231.619 L 55.585,231.619 L 53.354,221.344 L 53.312,221.344 L 51.102,231.619 L 49.147,231.619 L 45.62,218.694 L 47.618,218.694 L 50.104,229.269 L 50.146,229.269 L 52.356,218.694 L 54.333,218.694 L 56.628,229.269 L 56.67,229.269 L 59.135,218.694 L 61.005,218.694 L 57.499,231.619 L 57.498,231.619 z"
   style="fill:#0b3d91;stroke:#0b3d91;stroke-width:0.25465351" />

			<path
   id="path2485"
   d="M 68.337,228.844 L 70.696,228.844 L 70.696,231.619 L 68.337,231.619 L 68.337,228.844 z"
   style="fill:#0b3d91;stroke:#0b3d91;stroke-width:0.25465351" />

			<path
   id="path2487"
   d="M 87.674,222.844 C 87.398,221.219 86.442,220.269 84.954,220.269 C 82.34,220.269 81.533,222.694 81.533,225.319 C 81.533,227.694 82.447,230.044 84.742,230.044 C 86.484,230.044 87.526,228.844 87.759,226.894 L 89.608,226.894 C 89.204,230.044 87.525,231.919 84.763,231.919 C 81.406,231.919 79.621,229.169 79.621,225.319 C 79.621,221.444 81.321,218.394 84.806,218.394 C 87.292,218.394 89.29,219.769 89.545,222.844 L 87.675,222.844 L 87.674,222.844 z"
   style="fill:#0b3d91;stroke:#0b3d91;stroke-width:0.25465351" />

			<path
   id="path2489"
   d="M 107.479,230.519 C 107.479,234.719 105.843,236.869 102.379,236.869 C 100.317,236.869 97.938,235.894 97.832,233.069 L 99.638,233.069 C 99.723,234.619 101.295,235.169 102.486,235.169 C 104.844,235.169 105.779,233.169 105.779,230.269 L 105.779,229.419 L 105.737,229.419 C 105.142,230.994 103.697,231.769 102.316,231.769 C 99.043,231.769 97.407,228.744 97.407,225.219 C 97.407,222.169 98.682,218.394 102.486,218.394 C 103.867,218.394 105.099,219.119 105.758,220.544 L 105.737,220.544 L 105.779,220.544 L 105.779,218.694 L 107.479,218.694 L 107.479,230.519 L 107.479,230.519 z M 105.694,224.894 C 105.694,222.619 104.844,220.269 102.571,220.269 C 100.255,220.269 99.32,222.494 99.32,224.969 C 99.32,227.294 100.043,229.894 102.422,229.894 C 104.803,229.894 105.694,227.319 105.694,224.894 z"
   style="fill:#0b3d91;stroke:#0b3d91;stroke-width:0.25465351" />

			<path
   id="path2491"
   d="M 118.062,227.344 C 118.189,229.069 119.379,230.044 120.824,230.044 C 123.034,230.044 124.118,227.769 124.224,223.194 L 124.181,223.144 C 123.501,224.644 122.162,225.594 120.697,225.594 C 117.636,225.594 115.937,223.169 115.937,219.669 C 115.937,216.244 117.977,213.894 120.888,213.894 C 123.693,213.894 126.051,215.669 126.051,222.369 C 126.051,228.494 124.479,231.919 120.823,231.919 C 118.295,231.919 116.488,230.394 116.255,227.344 L 118.062,227.344 L 118.062,227.344 z M 120.803,215.769 C 118.657,215.769 117.849,217.794 117.849,219.969 C 117.849,221.919 119.081,223.719 120.824,223.719 C 122.716,223.719 123.906,221.919 123.906,219.819 C 123.906,217.644 122.822,215.769 120.803,215.769 L 120.803,215.769 z"
   style="fill:#0b3d91;stroke:#0b3d91;stroke-width:0.25465351" />

			<path
   id="path2493"
   d="M 144.22,216.019 C 141.181,219.569 138.716,226.069 138.44,231.619 L 136.421,231.619 C 136.761,225.619 139.205,220.144 142.371,216.194 L 134.466,216.194 L 134.466,214.194 L 144.22,214.194 L 144.22,216.019 L 144.22,216.019 z"
   style="fill:#0b3d91;stroke:#0b3d91;stroke-width:0.25465351" />

			<path
   id="path2495"
   d="M 160.498,225.594 L 162.538,225.594 L 162.538,227.469 L 160.498,227.469 L 160.498,231.619 L 158.798,231.619 L 158.798,227.469 L 152.19,227.469 L 152.19,225.419 L 159.054,213.894 L 160.498,213.894 L 160.498,225.594 L 160.498,225.594 z M 158.797,225.594 L 158.797,216.919 L 158.755,216.919 L 153.74,225.594 L 158.797,225.594 z"
   style="fill:#0b3d91;stroke:#0b3d91;stroke-width:0.25465351" />

			<path
   id="path2497"
   d="M 171.548,228.844 L 173.906,228.844 L 173.906,231.619 L 171.548,231.619 L 171.548,228.844 z"
   style="fill:#0b3d91;stroke:#0b3d91;stroke-width:0.25465351" />

			<path
   id="path2499"
   d="M 184.17,220.568 L 182.321,220.568 L 182.321,218.693 L 184.17,218.693 L 184.17,216.768 C 184.17,214.668 185.233,213.568 187.209,213.568 C 187.549,213.568 188.037,213.643 188.377,213.768 L 188.377,215.618 C 188.059,215.493 187.676,215.443 187.357,215.443 C 186.486,215.443 185.976,215.768 185.976,216.893 L 185.976,218.693 L 188.101,218.693 L 188.101,220.568 L 185.976,220.568 L 185.976,231.618 L 184.169,231.618 L 184.169,220.568 L 184.17,220.568 z"
   style="fill:#0b3d91;stroke:#0b3d91;stroke-width:0.25465351" />

			<path
   id="path2501"
   d="M 196.028,218.693 L 197.728,218.693 L 197.728,221.418 L 197.77,221.418 C 198.641,219.343 199.853,218.318 201.808,218.393 L 201.808,220.643 C 198.896,220.643 197.833,222.593 197.833,225.868 L 197.833,231.618 L 196.027,231.618 L 196.027,218.693 L 196.028,218.693 z"
   style="fill:#0b3d91;stroke:#0b3d91;stroke-width:0.25465351" />

		</g>
      <g
         transform="translate(-1225.7246,440.60099)"
         id="g2907">
        <path
           style="opacity:1;fill:url(#radialGradient2978);fill-opacity:1;fill-rule:evenodd;stroke:none;stroke-width:0.17753908px;stroke-linecap:butt;stroke-linejoin:miter;marker:none;marker-start:none;marker-mid:none;marker-end:none;stroke-miterlimit:4;stroke-dasharray:none;stroke-dashoffset:0;stroke-opacity:1;visibility:visible;display:inline;overflow:visible;enable-background:accumulate"
           d="M -1847.1459,-3522.8677 C -1841.3933,-3518.1829 -1834.3392,-3518.0027 -1828.4063,-3520.1255 C -1820.0958,-3522.192 -1810.0105,-3526.3307 -1803.4522,-3520.7956 C -1796.8939,-3515.2661 -1767.3197,-3519.5399 -1764.4406,-3521.5501 C -1751.1776,-3530.8298 -1723.5528,-3523.6448 -1718.9158,-3521.9443 C -1709.6475,-3518.5489 -1698.7452,-3524.709 -1688.6486,-3521.5501 C -1676.642,-3517.8056 -1667.4018,-3523.7968 -1652.3865,-3520.728 C -1652.4372,-3518.4531 -1657.7729,-3515.7109 -1658.1166,-3512.1071 C -1658.8096,-3505.3107 -1656.1446,-3501.5042 -1662.0155,-3494.3812 C -1668.9005,-3488.7616 -1668.1568,-3483.8909 -1667.0976,-3477.4548 C -1666.2243,-3472.173 -1668.4892,-3466.8237 -1674.608,-3464.0083 C -1678.028,-3460.4383 -1683.9834,-3460.2074 -1687.0654,-3457.1386 C -1690.1529,-3454.0585 -1709.9968,-3454.9876 -1722.1443,-3442.9601 C -1728.5335,-3436.6366 -1741.5148,-3439.2437 -1753.4538,-3429.8401 C -1759.905,-3424.7667 -1763.4941,-3426.8333 -1768.5818,-3426.5686 C -1784.4704,-3425.7578 -1800.7872,-3410.5263 -1803.2494,-3406.9675 C -1805.7059,-3403.437 -1814.1967,-3400.3456 -1819.8817,-3400.5765 C -1825.5948,-3400.8074 -1833.1053,-3392.271 -1843.8667,-3385.7166 C -1845.0837,-3384.6074 -1850.8926,-3387.9577 -1852.1265,-3385.7166 C -1850.6673,-3392.4455 -1853.2985,-3401.0608 -1851.9857,-3405.2163 C -1850.6842,-3409.3832 -1856.6114,-3432.5148 -1850.6166,-3438.8439 C -1845.2302,-3444.5142 -1852.69,-3454.081 -1851.3772,-3460.1511 C -1850.0475,-3466.2324 -1854.9887,-3470.754 -1849.3996,-3483.1363 C -1847.7713,-3486.7457 -1850.9264,-3496.7405 -1850.0081,-3502.8444 C -1849.0728,-3508.9482 -1847.236,-3519.4498 -1849.5235,-3521.781 C -1848.346,-3521.7472 -1847.1402,-3522.8621 -1847.1402,-3522.8621 L -1847.1459,-3522.8677 z"
           id="path2565" />
        <path
           style="opacity:1;fill:url(#radialGradient2980);fill-opacity:1;fill-rule:evenodd;stroke:none;stroke-width:0.17753908px;stroke-linecap:butt;stroke-linejoin:miter;marker:none;marker-start:none;marker-mid:none;marker-end:none;stroke-miterlimit:4;stroke-dasharray:none;stroke-dashoffset:0;stroke-opacity:1;visibility:visible;display:inline;overflow:visible;enable-background:accumulate"
           d="M -1539.0084,-3182.1607 C -1532.4332,-3180.7361 -1522.4831,-3176.3609 -1520.1843,-3171.2762 C -1517.863,-3166.1916 -1512.3471,-3164.3277 -1504.5605,-3160.6283 C -1497.9121,-3157.4919 -1484.204,-3145.8697 -1479.7924,-3141.7423 C -1475.3807,-3137.6318 -1478.4627,-3135.6328 -1474.1468,-3130.9479 C -1469.8423,-3126.2405 -1469.7127,-3124.2472 -1463.2389,-3121.7246 C -1456.7595,-3119.2076 -1451.4295,-3115.6995 -1449.7392,-3111.1554 C -1442.1217,-3090.5352 -1432.0646,-3094.2966 -1429.1291,-3089.1275 C -1427.4445,-3086.1262 -1419.0382,-3076.2722 -1411.3136,-3073.5356 C -1403.4764,-3070.7708 -1400.9353,-3064.2109 -1399.5267,-3060.5283 C -1396.1575,-3051.7329 -1386.6074,-3042.6672 -1379.5082,-3040.6907 C -1372.3753,-3038.7087 -1368.2735,-3022.092 -1356.9374,-3017.0073 C -1349.072,-3013.4824 -1340.136,-3000.9368 -1338.9359,-2996.6404 C -1337.9105,-2992.8846 -1336.7893,-2989.4217 -1326.3997,-2985.4237 C -1320.9739,-2983.3516 -1308.7589,-2980.7332 -1300.1441,-2963.8406 C -1292.7407,-2949.3693 -1286.7177,-2948.0967 -1282.492,-2947.2577 C -1278.255,-2946.3905 -1278.8184,-2943.958 -1271.0601,-2938.7664 C -1255.2898,-2928.2535 -1237.3559,-2918.6473 -1229.1468,-2921.3332 C -1223.3717,-2923.2589 -1211.4215,-2917.8927 -1211.4215,-2917.8927 L -1202.1362,-2918.5853 C -1202.1362,-2918.5853 -1197.7978,-2935.5455 -1200.7502,-2943.8454 C -1209.4889,-2968.4805 -1201.8263,-2981.7637 -1201.8263,-2981.7637 C -1201.8263,-2981.7637 -1201.7136,-2997.9412 -1200.2093,-3002.2094 C -1198.7106,-3006.455 -1206.5366,-3011.1174 -1206.1534,-3017.7111 C -1205.7703,-3024.3162 -1197.8767,-3028.6688 -1203.3476,-3042.228 C -1210.3791,-3059.5035 -1211.7539,-3087.0384 -1202.8292,-3100.5581 C -1198.5134,-3107.1012 -1208.1649,-3136.7477 -1203.8208,-3141.5396 C -1194.5018,-3151.8385 -1205.3083,-3170.5442 -1202.0066,-3177.915 C -1196.8569,-3189.4076 -1210.7904,-3234.9783 -1204.2209,-3243.9313 C -1197.6401,-3252.8901 -1212.5089,-3260.3904 -1205.6069,-3270.6048 C -1202.0066,-3275.9316 -1202.0066,-3296.1858 -1201.9728,-3302.346 C -1201.939,-3308.5062 -1207.1113,-3312.6223 -1206.638,-3322.1272 C -1206.1647,-3331.6265 -1212.3624,-3347.3817 -1204.2152,-3361.4251 C -1195.392,-3376.6284 -1208.3283,-3399.7713 -1205.0097,-3403.3694 C -1201.1784,-3411.0443 -1201.9953,-3418.0322 -1201.9953,-3418.0322 C -1201.9953,-3418.0322 -1208.8072,-3442.8306 -1204.2209,-3453.8502 C -1197.8823,-3469.0366 -1198.3782,-3477.3196 -1204.728,-3490.5409 C -1210.7904,-3503.171 -1203.0095,-3521.3981 -1203.0095,-3521.3981 C -1203.0095,-3521.3981 -1215.9852,-3527.6427 -1221.8167,-3523.8531 C -1227.6594,-3520.0579 -1237.6658,-3525.0863 -1242.9902,-3524.3824 C -1248.3371,-3523.6898 -1255.2391,-3526.1562 -1262.5354,-3523.7912 C -1281.0102,-3517.8 -1290.5771,-3525.5311 -1295.5916,-3525.3622 C -1300.623,-3525.1877 -1312.9,-3522.2258 -1316.1566,-3523.1324 C -1319.4358,-3524.0559 -1339.5163,-3524.4219 -1354.7288,-3521.4713 C -1361.0335,-3520.2494 -1361.1349,-3532.6204 -1372.4485,-3525.4129 C -1377.863,-3521.9668 -1409.15,-3527.0684 -1413.6405,-3525.5706 C -1418.086,-3524.0502 -1422.9934,-3522.2709 -1425.1401,-3521.8317 C -1427.2642,-3521.415 -1443.7613,-3524.0727 -1445.4459,-3525.3397 C -1447.1193,-3526.5954 -1458.0216,-3527.5526 -1466.3321,-3523.7912 C -1481.8151,-3516.8089 -1499.6249,-3530.644 -1516.4376,-3524.1628 C -1524.5002,-3521.049 -1543.0256,-3520.6661 -1546.2202,-3522.727 C -1549.4092,-3524.7766 -1557.3986,-3522.9522 -1563.5568,-3521.8654 C -1569.7264,-3520.7899 -1573.7548,-3523.4139 -1573.7548,-3523.4139 C -1573.7548,-3523.4139 -1573.152,-3510.5587 -1575.3831,-3507.777 C -1577.603,-3505.0066 -1581.9527,-3492.05 -1581.7893,-3489.06 C -1581.6315,-3486.0869 -1581.9358,-3483.9584 -1581.9358,-3483.9584 L -1571.3434,-3483.6825 L -1554.3336,-3485.3098 C -1554.3336,-3485.3098 -1533.7291,-3494.0489 -1526.675,-3490.4114 C -1519.6265,-3486.7795 -1514.3078,-3490.5297 -1505.4508,-3491.9317 C -1496.5712,-3493.3395 -1475.7695,-3488.6827 -1467.5604,-3492.1063 C -1460.7035,-3494.933 -1450.8097,-3491.2617 -1445.7614,-3488.2323 C -1435.3944,-3481.9989 -1424.1259,-3491.577 -1412.6489,-3484.0992 C -1407.7978,-3480.9346 -1393.622,-3482.0552 -1393.622,-3482.0552 C -1393.622,-3482.0552 -1376.939,-3484.026 -1373.5303,-3480.5405 C -1363.9239,-3470.7484 -1350.5989,-3475.9682 -1341.6066,-3468.9015 C -1336.378,-3464.7684 -1332.3213,-3460.2919 -1326.3885,-3459.9034 C -1311.5873,-3458.9348 -1307.8687,-3445.1899 -1306.7136,-3443.0389 C -1305.5699,-3440.8654 -1293.4337,-3429.0068 -1294.5324,-3423.2914 C -1295.6423,-3417.5423 -1287.3881,-3416.1853 -1290.7574,-3406.793 C -1292.0026,-3403.3525 -1292.0364,-3397.2824 -1288.3122,-3389.2359 C -1280.2552,-3371.7352 -1288.5432,-3371.9773 -1286.9599,-3357.2582 C -1285.1232,-3340.2643 -1290.8138,-3338.4399 -1297.0283,-3331.1704 C -1303.3105,-3323.9235 -1296.9382,-3317.7633 -1308.68,-3309.8801 C -1324.5911,-3299.204 -1314.3931,-3286.8386 -1331.6678,-3280.7798 C -1347.6465,-3275.1827 -1347.7479,-3263.8815 -1358.3009,-3262.074 C -1365.3662,-3260.8521 -1372.2964,-3253.8248 -1377.7222,-3249.2356 C -1389.1879,-3239.5618 -1389.2442,-3231.138 -1410.9248,-3228.5985 C -1416.9197,-3227.8946 -1429.0277,-3224.8033 -1435.1127,-3218.4122 C -1444.398,-3208.6483 -1454.7875,-3214.617 -1459.695,-3211.5933 C -1466.1011,-3207.6629 -1478.8233,-3209.0988 -1486.0295,-3203.8114 C -1498.6671,-3194.5092 -1511.671,-3196.2491 -1511.671,-3196.2491 C -1511.671,-3196.2491 -1525.6946,-3196.2942 -1526.6187,-3192.5271 C -1527.5483,-3188.7657 -1551.1558,-3188.2646 -1551.1558,-3188.2646 C -1551.1558,-3188.2646 -1545.623,-3183.5459 -1539.0478,-3182.1438 L -1539.0084,-3182.1607 z"
           id="path2567" />
        <path
           style="opacity:1;fill:url(#radialGradient2982);fill-opacity:1;fill-rule:evenodd;stroke:none;stroke-width:0.17753908px;stroke-linecap:butt;stroke-linejoin:miter;marker:none;marker-start:none;marker-mid:none;marker-end:none;stroke-miterlimit:4;stroke-dasharray:none;stroke-dashoffset:0;stroke-opacity:1;visibility:visible;display:inline;overflow:visible;enable-background:accumulate"
           d="M -1848.9939,-3331.5139 C -1849.9912,-3329.346 -1849.732,-3323.8503 -1851.8955,-3318.0223 C -1857.2594,-3303.5397 -1848.5544,-3299.1927 -1849.7658,-3291.2644 C -1850.9884,-3283.3474 -1843.4104,-3259.146 -1845.3992,-3254.2809 C -1847.3938,-3249.4102 -1854.2507,-3245.0294 -1850.4419,-3231.0761 C -1846.5374,-3216.768 -1845.4781,-3207.3419 -1846.2275,-3203.2202 C -1846.9881,-3199.0871 -1846.5036,-3185.7757 -1846.5036,-3185.7757 C -1846.5036,-3185.7757 -1852.3237,-3162.1204 -1850.6673,-3157.2497 C -1843.7428,-3137.0574 -1845.3147,-3115.6714 -1848.8474,-3107.0336 C -1852.3857,-3098.4071 -1852.8421,-3077.4378 -1852.8421,-3077.4378 L -1852.0082,-3069.2392 C -1852.0082,-3069.2392 -1845.0217,-3073.3047 -1841.1059,-3080.2307 C -1837.1845,-3087.1567 -1834.2829,-3097.478 -1829.8656,-3103.4918 C -1825.4765,-3109.5281 -1817.9717,-3105.35 -1815.2334,-3121.4712 C -1812.9854,-3134.7995 -1804.4945,-3139.7152 -1804.4945,-3139.7152 C -1804.4945,-3139.7152 -1804.7368,-3152.7901 -1793.2993,-3161.9628 C -1783.8844,-3169.5081 -1785.462,-3177.1267 -1785.462,-3177.1267 C -1785.462,-3177.1267 -1783.8788,-3193.8785 -1777.5459,-3195.3595 C -1771.2017,-3196.8347 -1771.1566,-3207.646 -1771.1566,-3207.646 C -1771.1566,-3207.646 -1769.7312,-3230.0569 -1757.2682,-3238.8861 C -1745.4475,-3247.2817 -1749.9944,-3261.9895 -1744.4108,-3268.9493 C -1741.2782,-3272.8627 -1742.174,-3285.3576 -1739.2555,-3290.2058 C -1728.9504,-3307.273 -1731.9535,-3315.5222 -1719.8342,-3329.0645 C -1713.1125,-3336.5929 -1709.7545,-3356.3348 -1710.4475,-3362.6244 C -1711.118,-3368.9423 -1705.6866,-3380.936 -1705.6866,-3380.936 L -1702.0976,-3396.2126 L -1698.6945,-3404.3154 C -1698.6945,-3404.3154 -1708.4023,-3399.2589 -1713.8394,-3393.414 C -1719.2595,-3387.5974 -1719.0792,-3393.8758 -1725.5473,-3389.9398 C -1732.0155,-3386.0094 -1750.7099,-3387.5073 -1760.1417,-3375.8007 C -1763.2687,-3371.9266 -1774.2949,-3367.9512 -1774.2949,-3367.9512 C -1774.2949,-3367.9512 -1778.6051,-3368.7227 -1784.0028,-3362.0445 C -1789.4116,-3355.3663 -1799.4857,-3360.5185 -1809.3907,-3348.7049 C -1821.7016,-3334.0478 -1835.0942,-3339.1043 -1835.0942,-3339.1043 C -1835.0942,-3339.1043 -1847.5177,-3334.7066 -1849.0052,-3331.5026 L -1848.9939,-3331.5139 z"
           id="path2569" />
        <path
           style="opacity:1;fill:url(#radialGradient2984);fill-opacity:1;fill-rule:evenodd;stroke:none;stroke-width:0.17753908px;stroke-linecap:butt;stroke-linejoin:miter;marker:none;marker-start:none;marker-mid:none;marker-end:none;stroke-miterlimit:4;stroke-dasharray:none;stroke-dashoffset:0;stroke-opacity:1;visibility:visible;display:inline;overflow:visible;enable-background:accumulate"
           d="M -1591.8014,-3422.2891 C -1588.9786,-3430.0654 -1584.3078,-3432.1882 -1581.3611,-3431.1071 C -1578.4087,-3430.0597 -1570.132,-3429.964 -1565.1964,-3435.4541 C -1557.3648,-3444.1482 -1531.0246,-3433.6241 -1514.4599,-3440.6514 C -1511.1019,-3442.076 -1506.3522,-3445.0435 -1499.4503,-3442.7742 C -1492.5708,-3440.4994 -1480.9305,-3446.5807 -1466.0617,-3440.3136 C -1459.402,-3437.5038 -1456.8835,-3441.4341 -1453.4184,-3436.89 C -1449.9533,-3432.3234 -1437.1185,-3434.0408 -1429.2756,-3431.1409 C -1421.4102,-3428.2635 -1414.2096,-3419.7609 -1412.1193,-3414.3215 C -1410.0177,-3408.882 -1394.1573,-3407.6545 -1396.011,-3387.6818 C -1396.8336,-3378.6555 -1390.8387,-3371.9717 -1392.929,-3366.3296 C -1396.011,-3358.024 -1390.4838,-3350.5913 -1397.2449,-3344.3523 C -1401.2959,-3340.5965 -1402.2424,-3335.2922 -1402.8791,-3329.9823 C -1403.7355,-3322.6227 -1408.3387,-3304.2774 -1418.7903,-3299.142 C -1434.3633,-3291.5009 -1438.7299,-3274.4619 -1451.3281,-3271.0327 C -1457.7793,-3269.2928 -1463.0135,-3269.0507 -1470.2423,-3262.6315 C -1481.3361,-3252.8 -1486.7732,-3258.0367 -1499.901,-3249.1286 C -1519.7674,-3235.654 -1536.0729,-3241.4875 -1540.3268,-3238.2836 C -1544.5807,-3235.0852 -1550.3614,-3242.2083 -1563.4104,-3233.9929 C -1580.0032,-3223.5476 -1595.227,-3230.4116 -1596.8722,-3226.4362 C -1598.5343,-3222.4777 -1611.9833,-3216.661 -1620.846,-3220.5632 C -1626.3844,-3223.0183 -1633.985,-3210.9964 -1639.6587,-3212.0043 C -1645.2986,-3213.0179 -1657.987,-3199.0139 -1657.987,-3199.0139 L -1666.2919,-3193.5407 C -1666.2919,-3193.5407 -1667.9202,-3199.7684 -1665.5989,-3204.5547 C -1663.2775,-3209.3353 -1665.2495,-3220.918 -1657.6433,-3226.6389 C -1646.3973,-3235.0852 -1652.9218,-3242.4617 -1649.7103,-3246.8425 C -1646.51,-3251.2515 -1654.6402,-3267.9583 -1642.5604,-3275.7345 C -1632.3286,-3282.3339 -1634.6837,-3291.3095 -1628.8072,-3301.3944 C -1622.9194,-3311.4793 -1631.3595,-3314.5199 -1624.9026,-3320.1283 C -1618.4739,-3325.7366 -1623.5729,-3347.5281 -1613.0989,-3354.5498 C -1602.4952,-3361.6334 -1614.5863,-3373.1429 -1603.6164,-3386.7471 C -1596.8666,-3395.1146 -1601.1486,-3404.4168 -1596.5285,-3408.9609 C -1591.8972,-3413.505 -1594.6354,-3414.5016 -1591.8014,-3422.2779 L -1591.8014,-3422.2891 z"
           id="path2571" />
        <path
           style="opacity:1;fill:url(#radialGradient2986);fill-opacity:1;fill-rule:evenodd;stroke:none;stroke-width:0.17753908px;stroke-linecap:butt;stroke-linejoin:miter;marker:none;marker-start:none;marker-mid:none;marker-end:none;stroke-miterlimit:4;stroke-dasharray:none;stroke-dashoffset:0;stroke-opacity:1;visibility:visible;display:inline;overflow:visible;enable-background:accumulate"
           d="M -1682.7495,-3152.4916 L -1667.8357,-3145.6952 C -1667.8357,-3145.6952 -1653.4683,-3138.7242 -1650.685,-3130.002 C -1647.896,-3121.2741 -1639.2474,-3118.7909 -1639.2474,-3118.7909 C -1639.2474,-3118.7909 -1626.4858,-3105.4795 -1622.0855,-3104.2013 C -1617.6908,-3102.9287 -1609.3802,-3094.8315 -1606.1293,-3084.0541 C -1602.8783,-3073.2822 -1588.9899,-3066.1254 -1588.9899,-3066.1254 C -1588.9899,-3066.1254 -1566.0021,-3048.1742 -1566.1542,-3041.4734 C -1566.4923,-3026.9852 -1550.7276,-3030.9324 -1549.0374,-3021.3205 C -1547.6232,-3013.3022 -1533.7685,-3007.0238 -1533.053,-3002.2826 C -1532.3431,-2997.5301 -1514.905,-2993.2169 -1510.2061,-2979.8435 C -1503.4506,-2960.6254 -1487.3366,-2958.5476 -1487.3366,-2958.5476 C -1487.3366,-2958.5476 -1471.1607,-2951.0022 -1470.1352,-2947.2915 C -1467.4308,-2937.5613 -1454.9735,-2928.4675 -1443.812,-2925.9561 C -1433.7323,-2923.6869 -1422.2441,-2911.2933 -1418.6212,-2905.7469 C -1411.1389,-2894.2543 -1392.2191,-2893.314 -1392.2191,-2893.314 C -1392.2191,-2893.314 -1388.2132,-2889.4793 -1380.7421,-2889.8848 C -1373.2598,-2890.3015 -1342.7898,-2880.729 -1342.7898,-2880.729 L -1333.4933,-2875.3064 C -1340.8122,-2873.4314 -1356.3909,-2878.6287 -1362.7632,-2876.0554 C -1369.1243,-2873.4764 -1394.8278,-2881.8946 -1407.5387,-2877.3617 C -1419.1509,-2873.2174 -1424.6161,-2877.9642 -1424.6161,-2877.9642 C -1424.6161,-2877.9642 -1451.1703,-2881.1006 -1455.7341,-2877.0745 C -1460.2922,-2873.0597 -1475.7639,-2882.8011 -1484.5308,-2877.2773 C -1493.3146,-2871.759 -1522.1282,-2878.4879 -1534.0671,-2874.9179 C -1546.0174,-2871.3423 -1577.0283,-2871.5619 -1585.9305,-2876.0835 C -1590.2181,-2878.2683 -1597.9596,-2883.5163 -1608.9464,-2878.4823 C -1619.9445,-2873.4426 -1657.5137,-2880.408 -1665.458,-2875.2332 C -1673.4079,-2870.0472 -1691.9446,-2875.7344 -1691.9446,-2875.7344 C -1691.9446,-2875.7344 -1714.538,-2882.3225 -1720.7188,-2878.1782 C -1731.9366,-2870.6328 -1740.3373,-2875.7625 -1740.3373,-2875.7625 L -1777.1909,-2879.3719 C -1777.1909,-2879.3719 -1788.6454,-2882.1817 -1792.1668,-2878.3753 C -1795.6995,-2874.5575 -1806.0045,-2877.3505 -1806.0045,-2877.3505 L -1804.7819,-2886.236 L -1797.7447,-2901.7828 C -1797.7447,-2901.7828 -1793.2824,-2915.6347 -1782.5942,-2921.7048 C -1776.1092,-2925.3818 -1775.2246,-2936.1255 -1773.1737,-2950.3096 C -1771.1397,-2964.4656 -1760.5755,-2959.5612 -1760.26,-2976.0765 C -1760.0797,-2985.3787 -1753.1665,-2997.1697 -1753.1665,-2997.1697 C -1753.1665,-2997.1697 -1730.8097,-3019.1189 -1726.2404,-3048.1798 C -1725.367,-3053.8444 -1720.1779,-3076.9254 -1713.3097,-3081.492 C -1706.419,-3086.0418 -1702.0976,-3089.9946 -1703.9287,-3099.218 C -1705.0668,-3104.9333 -1704.3625,-3125.4128 -1695.5956,-3131.4378 C -1690.6938,-3134.822 -1685.1103,-3146.9452 -1685.1103,-3146.9452 L -1682.7495,-3152.4916 L -1682.7495,-3152.4916 z"
           id="path2573" />
      </g>
    </g>
  </g>
</svg>
