<?xml version="1.0" encoding="UTF-8" standalone="no"?>
<!-- Created with Inkscape (http://www.inkscape.org/) -->

<svg
   xmlns:dc="http://purl.org/dc/elements/1.1/"
   xmlns:cc="http://creativecommons.org/ns#"
   xmlns:rdf="http://www.w3.org/1999/02/22-rdf-syntax-ns#"
   xmlns:svg="http://www.w3.org/2000/svg"
   xmlns="http://www.w3.org/2000/svg"
   xmlns:sodipodi="http://sodipodi.sourceforge.net/DTD/sodipodi-0.dtd"
   xmlns:inkscape="http://www.inkscape.org/namespaces/inkscape"
   id="svg2"
   version="1.1"
   inkscape:version="0.91 r13725"
   xml:space="preserve"
   width="600"
   height="335"
   viewBox="0 0 599.99997 335"
   sodipodi:docname="Logo Département Rhône.svg"><metadata
     id="metadata8"><rdf:RDF><cc:Work
         rdf:about=""><dc:format>image/svg+xml</dc:format><dc:type
           rdf:resource="http://purl.org/dc/dcmitype/StillImage" /><dc:title></dc:title></cc:Work></rdf:RDF></metadata><defs
     id="defs6"><clipPath
       clipPathUnits="userSpaceOnUse"
       id="clipPath2010"><path
         d="m 0,1190.55 841.89,0 L 841.89,0 0,0 0,1190.55 Z"
         id="path2012"
         inkscape:connector-curvature="0" /></clipPath></defs><sodipodi:namedview
     pagecolor="#ffffff"
     bordercolor="#666666"
     borderopacity="1"
     objecttolerance="10"
     gridtolerance="10"
     guidetolerance="10"
     inkscape:pageopacity="0"
     inkscape:pageshadow="2"
     inkscape:window-width="1280"
     inkscape:window-height="692"
     id="namedview4"
     showgrid="false"
     inkscape:zoom="0.49584486"
     inkscape:cx="306.35023"
     inkscape:cy="47.421085"
     inkscape:window-x="0"
     inkscape:window-y="1"
     inkscape:window-maximized="1"
     inkscape:current-layer="g10" /><g
     id="g10"
     inkscape:groupmode="layer"
     inkscape:label="Logo Département Rhône"
     transform="matrix(1.25,0,0,-1.25,0,335)"><g
       id="g6222"
       style="fill:#186dbf;fill-opacity:1"
       transform="matrix(4.8835797,0,0,4.8835797,-249.14056,-5312.4086)"><path
         d="m 58.397,1126.725 c 0,1.918 -1.674,3.207 -3.185,3.207 l -1.209,0 0,-6.23 1.431,0 c 1.31,0 2.963,1.31 2.963,3.023 m 5.885,-10.381 c -2.497,0 -4.05,1.635 -4.434,2.097 -0.364,0.466 -2.821,4.195 -3.024,4.493 -0.262,-0.057 -0.525,-0.077 -0.806,-0.077 l -0.705,0 -1.31,0 c 0,0 0.018,-4.739 0.018,-5.082 0,-0.544 0.445,-0.988 0.988,-0.988 l 0,-0.159 -3.587,0 0,0.159 c 0.544,0 1.009,0.425 1.009,0.988 l 0,11.874 c 0,0.202 -0.165,0.987 -1.009,0.987 l 0,0.14 4.113,0 0.483,0 c 2.177,0 3.951,-1.772 3.951,-3.969 0,-1.312 -0.647,-2.48 -1.635,-3.205 0.526,-0.785 3.329,-5.14 3.552,-5.442 0.26,-0.321 1.026,-1.474 2.396,-1.816"
         style="fill:#186dbf;fill-opacity:1;fill-rule:nonzero;stroke:none"
         id="path2020"
         inkscape:connector-curvature="0" /><path
         d="m 70.3092,1123.7015 0,-5.927 c 0,-0.544 0.445,-0.987 1.006,-0.987 l 0,-0.16 -3.587,0 0,0.16 c 0.564,0 1.008,0.443 1.008,0.987 l 0,11.854 c 0,0.542 -0.444,0.988 -1.008,0.988 l 0,0.16 3.587,0 0,-0.16 c -0.561,0 -1.006,-0.446 -1.006,-0.988 l 0,-4.918 9.152,0 0,4.918 c 0,0.542 -0.463,0.988 -1.009,0.988 l 0,0.16 3.569,0 0,-0.16 c -0.543,0 -0.988,-0.446 -0.988,-0.988 l 0,-11.854 c 0,-0.544 0.445,-0.987 0.988,-0.987 l 0,-0.16 -3.569,0 0,0.16 c 0.546,0 1.009,0.443 1.009,0.987 l 0,5.948 -9.152,-0.021 z"
         style="fill:#186dbf;fill-opacity:1;fill-rule:nonzero;stroke:none"
         id="path2024"
         inkscape:connector-curvature="0" /><path
         d="m 132.2009,1116.3436 -11.427,11.631 0,-10.2 c 0,-0.544 0.443,-1.006 0.986,-1.006 l 0,-0.141 -2.841,0 0,0.141 c 0.543,0 1.008,0.443 1.008,0.987 0,0.083 -0.022,13.587 -0.022,13.587 l 11.429,-11.853 0,10.139 c 0,0.542 -0.442,0.988 -0.986,0.988 l 0,0.16 2.841,0 0,-0.141 c -0.548,0 -0.988,-0.443 -0.988,-1.007 l 0,-13.285"
         style="fill:#186dbf;fill-opacity:1;fill-rule:nonzero;stroke:none"
         id="path2028"
         inkscape:connector-curvature="0" /><path
         d="m 147.3869,1129.9318 -4.856,0 0,-5.343 4.897,0 c 0.644,0 0.887,0.525 0.887,1.006 l 0.144,0 0,-2.859 -0.144,0 c 0,0.564 -0.263,0.987 -0.91,0.987 l -4.874,0 c -0.021,0 0,-5.563 0,-6.23 l 4.616,0 c 1.312,0 1.63,0.828 1.691,0.969 0.061,0 0.084,0.019 0.139,0.019 -0.055,-0.121 -0.685,-1.292 -0.963,-1.853 l -8.065,0 0,0.141 c 0.547,0 1.007,0.462 1.007,1.006 0,1.513 -0.021,11.854 0,11.854 0,0.563 -0.443,1.007 -0.986,1.007 l 0,0.14 8.565,0 0,-1.853 -0.139,0 c 0,0.545 -0.443,1.009 -1.009,1.009"
         style="fill:#186dbf;fill-opacity:1;fill-rule:nonzero;stroke:none"
         id="path2032"
         inkscape:connector-curvature="0" /><path
         d="m 98.3604,1134.2233 c 4.28,0 6.684,-3.017 6.684,-3.302 -1.709,0.611 -2.525,1.06 -4.361,1.06 -4.73,0 -9.174,-3.712 -9.174,-9.172 0,-2.241 1.021,-4.318 1.183,-4.525 -0.612,0 -3.218,2.813 -3.218,6.688 0,4.237 2.932,9.251 8.886,9.251"
         style="fill:#186dbf;fill-opacity:1;fill-rule:nonzero;stroke:none"
         id="path2036"
         inkscape:connector-curvature="0" /><path
         d="m 107.0821,1133.04 c 0.612,-0.571 5.097,-3.873 5.056,-10.026 0,-6.847 -5.787,-11.781 -11.7,-11.781 -5.91,0 -9.581,4.729 -10.028,5.26 1.264,-0.938 3.506,-2.853 8.072,-2.853 4.932,0 11.333,3.791 11.333,11.615 0,2.733 -1.302,6.032 -2.733,7.785"
         style="fill:#186dbf;fill-opacity:1;fill-rule:nonzero;stroke:none"
         id="path2040"
         inkscape:connector-curvature="0" /><path
         d="m 106.0407,1138.0343 -0.2,-0.397 -5.675,2.29 -5.547,-2.29 -0.197,0.365 5.744,4.38 5.875,-4.348 z"
         style="fill:#186dbf;fill-opacity:1;fill-rule:nonzero;stroke:none"
         id="path2044"
         inkscape:connector-curvature="0" /></g><path
       inkscape:connector-curvature="0"
       id="path2048"
       style="fill:#186dbf;fill-opacity:1;fill-rule:nonzero;stroke:none"
       d="m 302.40897,3.3727 15.86675,0 0,4.029 -11.54478,0 0,9.7476 11.20782,0 0,4.0241 -11.20782,0 0,6.9982 11.54478,0 0,4.0338 -15.86675,0 0,-28.8327 z m -34.4683,24.7989 6.64167,0 0,-24.7989 4.32196,0 0,24.7989 6.65144,0 0,4.0338 -17.61507,0 0,-4.0338 z m -26.7669,-9.23 -0.70324,0 0,9.3032 0.51766,0 c 4.91288,0 7.1984,-1.4602 7.1984,-4.5906 0,-3.2573 -2.17319,-4.7126 -7.01282,-4.7126 m 11.11014,4.8592 c 0,2.9301 -1.49437,5.6356 -3.87756,7.0372 -2.39295,1.3674 -5.28403,1.3674 -7.60373,1.3674 l -4.6394,0 0,-28.8327 4.30731,0 0,11.8378 0.82533,0 c 0.23441,-0.3418 8.23371,-11.8378 8.23371,-11.8378 l 5.27427,0 c 0,0 -8.34604,11.5058 -8.99067,12.375 3.81896,0.7619 6.47074,3.9264 6.47074,8.0531 m 97.97926,-11.8281 c -0.70323,1.6116 -9.76716,22.3864 -9.76716,22.3864 l -6.06052,-30.9864 4.45382,0 c 0,0 2.72993,15.437 3.10108,17.5907 0.89858,-2.012 8.27278,-18.8067 8.27278,-18.8067 0,0 7.38397,16.7898 8.27279,18.8067 0.38091,-2.1537 3.11084,-17.5907 3.11084,-17.5907 l 4.45382,0 -6.07029,30.9864 c 0,0 -9.05416,-20.7748 -9.76716,-22.3864 m -148.67081,2.4565 c 0.41998,0.962 3.70175,8.4437 4.32196,9.8501 0.62998,-1.4064 3.91175,-8.8881 4.34639,-9.8501 l -8.66835,0 z m -9.67926,-11.0565 4.65405,0 c 0,0 2.98875,6.5685 3.19875,7.0226 l 12.30662,0 c 0.20022,-0.4541 3.19874,-7.0226 3.19874,-7.0226 l 4.6687,0 L 205.91432,33.9732 191.9131,3.3727 Z m 246.30334,8.7758 c -1.34787,1.4016 -21.01404,22.0103 -21.01404,22.0103 l 0,-30.7861 4.33173,0 0,20.2327 C 422.86735,22.1989 442.53353,1.6 442.53353,1.6 l 0,30.6054 -4.31709,0 0,-20.0569 z m -54.96469,-8.7758 15.87652,0 0,4.029 -11.55455,0 0,9.7476 11.20782,0 0,4.0241 -11.20782,0 0,6.9982 11.55455,0 0,4.0338 -15.87652,0 0,-28.8327 z m 75.78828,28.8327 0,-4.0338 6.64655,0 0,-24.7989 4.31708,0 0,24.7989 6.6319,0 0,4.0338 -17.59553,0 z M 130.44348,3.3727 l 15.87652,0 0,4.029 -11.54478,0 0,9.7476 11.2127,0 0,4.0241 -11.2127,0 0,6.9982 11.54478,0 0,4.0338 -15.87652,0 0,-28.8327 z m -34.79062,4.029 -0.83021,0 0,20.7699 0.83021,0 c 5.86518,0 12.86335,-1.807 12.86335,-10.3874 0,-8.5707 -6.99817,-10.3825 -12.86335,-10.3825 m 1.07439,24.8037 -6.21191,0 0,-28.8327 6.09959,0 c 10.01133,0 16.22325,5.582 16.22325,14.5629 0,8.6634 -6.32424,14.2698 -16.11093,14.2698 m -90.805282,0 -4.321968,0 0,-28.8327 12.814513,0 0,4.029 -8.492545,0 0,24.8037 z m 163.844102,-13.1466 -0.69347,0 0,9.186 0.50789,0 c 3.55525,0 7.18375,-0.5372 7.18375,-4.488 0,-3.2476 -2.15855,-4.698 -6.99817,-4.698 m -0.5958,13.1466 -4.41964,0 0,-28.8327 4.32197,0 0,11.7402 1.58228,0 c 6.49028,0 10.22133,3.1255 10.22133,8.5755 0,5.8896 -3.61873,8.517 -11.70594,8.517 M 30.833108,3.3727 l 15.86675,0 0,4.029 -11.544782,0 0,9.7476 11.222466,0 0,4.0241 -11.222466,0 0,6.9982 11.544782,0 0,4.0338 -15.86675,0 0,-28.8327 z m 112.078152,36.7392 -3.9264,2.0755 -5.12287,-6.8223 2.28551,-1.3919 6.76376,6.1387 z" /></g></svg>